{
.appVersion = "3343";
.formatVersion = 3;
date = "2025-04-22 14:56:18 +0000";
familyName = "EPL Darwin";
fontMaster = (
{
id = m01;
metricValues = (
{
over = 16;
pos = 800;
},
{
over = 16;
pos = 700;
},
{
over = 16;
pos = 700;
},
{
over = 16;
pos = 700;
},
{
over = 16;
pos = 500;
},
{
over = 16;
pos = 500;
},
{
over = 16;
pos = 500;
},
{
over = -16;
},
{
over = -16;
pos = -200;
}
);
name = Regular;
}
);
glyphs = (
{
glyphname = A;
layers = (
{
hints = (
{
horizontal = 1;
place = (250,45);
type = Stem;
},
{
horizontal = 1;
place = (0,53);
type = Stem;
},
{
horizontal = 1;
place = (0,33);
type = Stem;
},
{
horizontal = 1;
place = (-3,21);
target = up;
type = BottomGhost;
},
{
place = (20,661);
type = Stem;
}
);
layerId = m01;
shapes = (
{
closed = 1;
nodes = (
(20,-3,l),
(77,0,o),
(93,0,o),
(123,0,cs),
(154,0,o),
(173,0,o),
(241,-3,c),
(252,29,l),
(165,51,l),
(168,62,o),
(200,172,o),
(219,221,cs),
(224,235,o),
(229,246,o),
(253,248,cs),
(273,249,o),
(296,250,o),
(318,250,cs),
(341,250,o),
(363,249,o),
(385,248,cs),
(426,246,o),
(441,236,o),
(447,218,cs),
(503,53,l),
(429,33,l),
(424,-3,l),
(484,0,o),
(507,0,o),
(549,0,cs),
(592,0,o),
(613,0,o),
(674,-3,c),
(681,34,l),
(617,47,o),
(604,67,o),
(564,171,cs),
(526,267,o),
(440,499,o),
(405,639,cs),
(394,683,l),
(377,683,o),
(314,665,o),
(301,648,c),
(301,629,o),
(294,604,o),
(290,591,cs),
(282,566,ls),
(251,470,o),
(134,167,o),
(125,146,cs),
(101,94,o),
(83,55,o),
(29,39,c)
);
},
{
closed = 1;
nodes = (
(420,310,ls),
(422,304,o),
(417,304,o),
(412,304,cs),
(256,295,ls),
(250,295,o),
(247,297,o),
(249,302,cs),
(338,566,l),
(343,566,l)
);
}
);
width = 701;
}
);
note = A;
unicode = 65;
},
{
glyphname = B;
layers = (
{
hints = (
{
horizontal = 1;
place = (620,52);
type = Stem;
},
{
horizontal = 1;
place = (326,40);
type = Stem;
},
{
horizontal = 1;
place = (317,56);
type = Stem;
},
{
horizontal = 1;
place = (-5,34);
type = Stem;
},
{
horizontal = 1;
place = (-17,58);
type = Stem;
},
{
horizontal = 1;
place = (-11,21);
target = up;
type = BottomGhost;
},
{
place = (478,100);
type = Stem;
},
{
place = (424,96);
type = Stem;
},
{
place = (132,93);
type = Stem;
}
);
layerId = m01;
shapes = (
{
closed = 1;
nodes = (
(41,610,l),
(53,612,o),
(64,613,o),
(73,613,cs),
(111,613,o),
(132,594,o),
(132,530,cs),
(132,124,ls),
(132,77,o),
(106,38,o),
(41,29,c),
(35,-11,l),
(78,-5,o),
(120,-5,o),
(168,-5,cs),
(195,-5,o),
(223,-6,o),
(259,-11,cs),
(281,-14,o),
(310,-17,o),
(330,-17,cs),
(434,-17,o),
(578,65,o),
(578,196,cs),
(578,299,o),
(488,358,o),
(413,366,c),
(476,391,o),
(520,449,o),
(520,517,cs),
(520,614,o),
(432,672,o),
(306,672,cs),
(222,672,o),
(136,665,o),
(48,653,c)
);
},
{
closed = 1;
nodes = (
(225,613,l),
(245,618,o),
(271,620,o),
(287,620,cs),
(363,620,o),
(424,579,o),
(424,491,cs),
(424,412,o),
(377,386,o),
(309,378,cs),
(225,368,l)
);
},
{
closed = 1;
nodes = (
(276,41,o),
(225,64,o),
(225,65,cs),
(225,312,l),
(309,322,l),
(325,326,o),
(331,326,o),
(338,326,cs),
(420,326,o),
(478,271,o),
(478,183,cs),
(478,80,o),
(399,41,o),
(329,41,cs)
);
}
);
width = 618;
}
);
note = B;
unicode = 66;
},
{
glyphname = C;
layers = (
{
hints = (
{
horizontal = 1;
place = (672,-20);
target = down;
type = TopGhost;
},
{
horizontal = 1;
place = (668,-20);
target = down;
type = TopGhost;
},
{
horizontal = 1;
place = (626,55);
type = Stem;
},
{
horizontal = 1;
place = (-21,60);
type = Stem;
},
{
place = (40,108);
type = Stem;
}
);
layerId = m01;
shapes = (
{
closed = 1;
nodes = (
(40,152,o),
(149,-21,o),
(397,-21,cs),
(543,-21,o),
(602,4,o),
(641,38,c),
(673,198,l),
(669,202,o),
(660,205,o),
(649,205,cs),
(643,205,o),
(636,204,o),
(631,202,c),
(596,58,o),
(530,39,o),
(415,39,cs),
(231,39,o),
(148,206,o),
(148,337,cs),
(148,520,o),
(226,626,o),
(408,626,cs),
(523,626,o),
(579,604,o),
(592,473,c),
(595,470,o),
(606,469,o),
(614,469,cs),
(623,469,o),
(633,471,o),
(636,475,c),
(656,672,l),
(645,670,o),
(626,668,o),
(608,668,cs),
(590,668,o),
(566,670,o),
(530,674,cs),
(507,677,o),
(470,681,o),
(429,681,cs),
(217,681,o),
(40,573,o),
(40,318,cs)
);
}
);
width = 708;
}
);
note = C;
unicode = 67;
},
{
glyphname = D;
layers = (
{
hints = (
{
horizontal = 1;
place = (665,-20);
target = down;
type = TopGhost;
},
{
horizontal = 1;
place = (614,59);
type = Stem;
},
{
horizontal = 1;
place = (-5,34);
type = Stem;
},
{
horizontal = 1;
place = (-17,59);
type = Stem;
},
{
horizontal = 1;
place = (-10,21);
target = up;
type = BottomGhost;
},
{
place = (634,101);
type = Stem;
},
{
place = (134,92);
type = Stem;
}
);
layerId = m01;
shapes = (
{
closed = 1;
nodes = (
(49,618,l),
(100,615,o),
(134,600,o),
(134,571,cs),
(134,325,ls),
(134,256,o),
(133,197,o),
(129,109,cs),
(126,54,o),
(92,35,o),
(41,29,c),
(35,-10,l),
(78,-6,o),
(120,-5,o),
(159,-5,cs),
(198,-5,o),
(223,-6,o),
(253,-10,cs),
(287,-15,o),
(325,-17,o),
(350,-17,cs),
(497,-17,o),
(735,53,o),
(735,345,cs),
(735,561,o),
(563,673,o),
(355,673,cs),
(292,673,o),
(228,669,o),
(179,665,cs),
(129,661,o),
(89,659,o),
(54,657,c)
);
},
{
closed = 1;
nodes = (
(314,42,o),
(276,54,o),
(230,74,c),
(226,153,o),
(226,250,o),
(226,336,cs),
(226,423,o),
(226,516,o),
(230,598,cs),
(230,599,o),
(283,614,o),
(353,614,cs),
(535,614,o),
(634,515,o),
(634,325,cs),
(634,56,o),
(436,42,o),
(372,42,cs)
);
}
);
width = 775;
}
);
note = D;
unicode = 68;
},
{
glyphname = E;
layers = (
{
hints = (
{
horizontal = 1;
place = (680,-20);
target = down;
type = TopGhost;
},
{
horizontal = 1;
place = (617,44);
type = Stem;
},
{
horizontal = 1;
place = (311,50);
type = Stem;
},
{
horizontal = 1;
place = (3,44);
type = Stem;
},
{
horizontal = 1;
place = (-8,21);
target = up;
type = BottomGhost;
},
{
place = (123,92);
type = Stem;
}
);
layerId = m01;
shapes = (
{
closed = 1;
nodes = (
(123,115,ls),
(123,39,o),
(94,34,o),
(38,25,c),
(35,-8,l),
(110,2,o),
(187,3,o),
(256,3,cs),
(353,3,o),
(440,1,o),
(528,-8,c),
(568,184,l),
(564,186,o),
(555,187,o),
(546,187,cs),
(538,187,o),
(529,186,o),
(524,184,c),
(503,63,o),
(425,47,o),
(332,47,cs),
(319,47,ls),
(247,47,o),
(215,84,o),
(215,142,cs),
(215,268,ls),
(215,311,o),
(218,311,o),
(260,311,cs),
(319,311,ls),
(370,311,o),
(408,309,o),
(422,254,c),
(452,254,l),
(471,423,l),
(441,423,l),
(425,366,o),
(392,361,o),
(329,361,cs),
(260,361,ls),
(218,361,o),
(215,362,o),
(215,405,cs),
(215,539,ls),
(215,609,o),
(215,617,o),
(284,617,cs),
(388,617,o),
(465,609,o),
(483,501,c),
(485,498,o),
(492,496,o),
(500,496,cs),
(508,496,o),
(517,498,o),
(521,501,c),
(514,680,l),
(454,663,o),
(341,661,o),
(254,661,cs),
(170,661,o),
(128,661,o),
(44,668,c),
(40,634,l),
(81,627,o),
(123,619,o),
(123,568,cs)
);
}
);
width = 593;
}
);
note = E;
unicode = 69;
},
{
glyphname = F;
layers = (
{
hints = (
{
horizontal = 1;
place = (686,-20);
target = down;
type = TopGhost;
},
{
horizontal = 1;
place = (616,45);
type = Stem;
},
{
horizontal = 1;
place = (293,50);
type = Stem;
},
{
horizontal = 1;
place = (-1,64);
type = Stem;
},
{
horizontal = 1;
place = (-1,21);
target = up;
type = BottomGhost;
},
{
place = (126,94);
type = Stem;
}
);
layerId = m01;
shapes = (
{
closed = 1;
nodes = (
(126,173,ls),
(126,70,o),
(104,44,o),
(43,33,c),
(35,-3,l),
(102,-2,o),
(150,-1,o),
(187,-1,cs),
(224,-1,o),
(261,-2,o),
(329,-3,c),
(339,31,l),
(220,63,l),
(220,251,ls),
(220,293,o),
(220,293,o),
(261,293,cs),
(322,293,ls),
(391,293,o),
(410,274,o),
(417,219,c),
(447,219,l),
(466,405,l),
(436,405,l),
(427,362,o),
(387,343,o),
(322,343,cs),
(261,343,ls),
(220,343,o),
(220,343,o),
(220,385,cs),
(220,546,ls),
(220,616,o),
(220,616,o),
(287,616,cs),
(421,616,o),
(457,606,o),
(479,502,c),
(485,499,o),
(512,500,o),
(518,505,c),
(534,686,l),
(474,669,o),
(360,661,o),
(256,661,cs),
(171,661,o),
(135,661,o),
(53,671,c),
(49,634,l),
(110,623,o),
(126,604,o),
(126,544,cs)
);
}
);
width = 569;
}
);
note = F;
unicode = 70;
},
{
glyphname = G;
layers = (
{
hints = (
{
horizontal = 1;
place = (671,-20);
target = down;
type = TopGhost;
},
{
horizontal = 1;
place = (668,-20);
target = down;
type = TopGhost;
},
{
horizontal = 1;
place = (635,46);
type = Stem;
},
{
horizontal = 1;
place = (-21,51);
type = Stem;
},
{
place = (569,94);
type = Stem;
},
{
place = (40,113);
type = Stem;
}
);
layerId = m01;
shapes = (
{
closed = 1;
nodes = (
(40,162,o),
(136,-21,o),
(404,-21,cs),
(508,-21,o),
(583,-12,o),
(680,23,c),
(666,66,o),
(663,102,o),
(663,140,cs),
(663,193,o),
(669,241,o),
(722,260,c),
(729,311,l),
(646,303,o),
(596,302,o),
(557,302,cs),
(504,302,o),
(475,302,o),
(441,305,c),
(433,256,l),
(554,239,o),
(569,229,o),
(569,134,cs),
(569,57,o),
(528,30,o),
(400,30,cs),
(238,30,o),
(153,185,o),
(153,346,cs),
(153,506,o),
(237,635,o),
(421,635,cs),
(533,635,o),
(580,587,o),
(592,482,c),
(595,479,o),
(607,478,o),
(614,478,cs),
(624,478,o),
(634,480,o),
(638,483,c),
(658,671,l),
(645,669,o),
(626,668,o),
(613,668,cs),
(589,668,o),
(564,671,o),
(549,673,cs),
(509,678,o),
(475,681,o),
(440,681,cs),
(229,681,o),
(40,573,o),
(40,319,cs)
);
}
);
width = 764;
}
);
note = G;
unicode = 71;
},
{
glyphname = H;
layers = (
{
hints = (
{
horizontal = 1;
place = (664,-20);
target = down;
type = TopGhost;
},
{
horizontal = 1;
place = (634,27);
type = Stem;
},
{
horizontal = 1;
place = (307,52);
type = Stem;
},
{
horizontal = 1;
place = (0,27);
type = Stem;
},
{
horizontal = 1;
place = (-3,21);
target = up;
type = BottomGhost;
},
{
place = (545,93);
type = Stem;
},
{
place = (124,94);
type = Stem;
}
);
layerId = m01;
shapes = (
{
closed = 1;
nodes = (
(35,-3,l),
(93,0,o),
(131,0,o),
(174,0,cs),
(217,0,o),
(253,0,o),
(309,-3,c),
(312,27,l),
(218,51,l),
(218,124,o),
(218,194,o),
(218,267,cs),
(218,298,o),
(233,302,o),
(271,304,cs),
(322,307,o),
(343,307,o),
(390,307,cs),
(423,307,o),
(449,307,o),
(503,304,cs),
(536,302,o),
(545,296,o),
(545,252,cs),
(545,52,l),
(458,28,l),
(454,-3,l),
(527,0,o),
(560,0,o),
(599,0,cs),
(638,0,o),
(661,0,o),
(725,-3,c),
(730,27,l),
(680,36,o),
(638,51,o),
(638,101,cs),
(638,562,ls),
(638,605,o),
(670,629,o),
(725,634,c),
(729,664,l),
(678,661,o),
(636,661,o),
(598,661,cs),
(560,661,o),
(511,661,o),
(458,664,c),
(454,634,l),
(545,612,l),
(545,414,ls),
(545,371,o),
(535,364,o),
(503,362,cs),
(451,359,o),
(424,359,o),
(384,359,cs),
(344,359,o),
(322,359,o),
(271,362,cs),
(228,365,o),
(218,371,o),
(218,414,cs),
(218,612,l),
(308,634,l),
(311,664,l),
(259,661,o),
(218,661,o),
(179,661,cs),
(142,661,o),
(94,661,o),
(41,664,c),
(35,634,l),
(91,626,o),
(124,602,o),
(124,564,cs),
(124,101,ls),
(124,52,o),
(95,41,o),
(39,27,c)
);
}
);
width = 765;
}
);
note = H;
unicode = 72;
},
{
glyphname = I;
layers = (
{
hints = (
{
horizontal = 1;
place = (664,-20);
target = down;
type = TopGhost;
},
{
horizontal = 1;
place = (634,27);
type = Stem;
},
{
horizontal = 1;
place = (0,27);
type = Stem;
},
{
horizontal = 1;
place = (-3,21);
target = up;
type = BottomGhost;
},
{
place = (136,93);
type = Stem;
}
);
layerId = m01;
shapes = (
{
closed = 1;
nodes = (
(36,-3,l),
(101,0,o),
(138,0,o),
(181,0,cs),
(224,0,o),
(259,0,o),
(322,-3,c),
(326,27,l),
(265,34,o),
(229,62,o),
(229,102,cs),
(229,558,ls),
(229,605,o),
(253,626,o),
(323,634,c),
(329,664,l),
(258,661,o),
(222,661,o),
(182,661,cs),
(142,661,o),
(103,661,o),
(40,664,c),
(35,634,l),
(101,626,o),
(136,605,o),
(136,558,cs),
(136,102,ls),
(136,62,o),
(112,35,o),
(40,27,c)
);
}
);
width = 364;
}
);
note = I;
unicode = 73;
},
{
glyphname = J;
layers = (
{
hints = (
{
horizontal = 1;
place = (630,33);
type = Stem;
},
{
horizontal = 1;
place = (624,39);
type = Stem;
},
{
horizontal = 1;
place = (601,60);
type = Stem;
},
{
horizontal = 1;
place = (-265,79);
type = Stem;
},
{
place = (149,90);
type = Stem;
}
);
layerId = m01;
shapes = (
{
closed = 1;
nodes = (
(149,67,ls),
(149,-85,o),
(138,-186,o),
(35,-186,cs),
(8,-186,o),
(-14,-179,o),
(-70,-146,c),
(-87,-170,o),
(-92,-198,o),
(-92,-227,c),
(-70,-248,o),
(-22,-265,o),
(13,-265,cs),
(93,-265,o),
(187,-176,o),
(214,-107,cs),
(236,-50,o),
(239,65,o),
(239,172,cs),
(239,524,ls),
(239,584,o),
(260,621,o),
(334,630,c),
(340,664,l),
(289,662,o),
(228,661,o),
(183,661,cs),
(138,661,o),
(93,662,o),
(40,664,c),
(35,634,l),
(140,601,l),
(149,457,o),
(149,285,o),
(149,169,cs)
);
},
{
closed = 1;
nodes = (
(149,67,ls),
(149,-85,o),
(138,-186,o),
(35,-186,cs),
(8,-186,o),
(-14,-179,o),
(-70,-146,c),
(-87,-170,o),
(-92,-198,o),
(-92,-227,c),
(-70,-248,o),
(-22,-265,o),
(13,-265,cs),
(93,-265,o),
(187,-176,o),
(214,-107,cs),
(236,-50,o),
(239,65,o),
(239,172,cs),
(239,524,ls),
(239,584,o),
(260,621,o),
(334,630,c),
(340,664,l),
(289,662,o),
(228,661,o),
(183,661,cs),
(138,661,o),
(93,662,o),
(40,664,c),
(35,634,l),
(140,601,l),
(149,457,o),
(149,285,o),
(149,169,cs)
);
}
);
width = 375;
}
);
note = J;
unicode = 74;
},
{
glyphname = K;
layers = (
{
hints = (
{
horizontal = 1;
place = (664,-20);
target = down;
type = TopGhost;
},
{
horizontal = 1;
place = (634,27);
type = Stem;
},
{
horizontal = 1;
place = (613,48);
type = Stem;
},
{
horizontal = 1;
place = (1,35);
type = Stem;
},
{
horizontal = 1;
place = (0,28);
type = Stem;
},
{
horizontal = 1;
place = (-3,21);
target = up;
type = BottomGhost;
},
{
horizontal = 1;
place = (-17,21);
target = up;
type = BottomGhost;
},
{
place = (135,93);
type = Stem;
}
);
layerId = m01;
shapes = (
{
closed = 1;
nodes = (
(35,-3,l),
(91,0,o),
(135,0,o),
(181,0,cs),
(225,0,o),
(271,0,o),
(325,-3,c),
(330,28,l),
(228,58,l),
(228,270,l),
(276,307,l),
(409,132,ls),
(438,94,o),
(511,10,o),
(559,-17,c),
(601,-6,o),
(644,1,o),
(702,1,c),
(709,36,l),
(660,36,o),
(605,73,o),
(568,105,cs),
(523,144,o),
(366,316,o),
(345,371,c),
(363,390,o),
(514,536,o),
(549,569,cs),
(579,598,o),
(622,622,o),
(669,630,c),
(675,664,l),
(619,661,o),
(591,661,o),
(557,661,cs),
(523,661,o),
(471,661,o),
(417,664,c),
(413,634,l),
(497,617,l),
(435,520,o),
(343,440,o),
(228,341,c),
(228,613,l),
(313,634,l),
(318,664,l),
(247,661,o),
(223,661,o),
(182,661,cs),
(141,661,o),
(111,661,o),
(48,664,c),
(44,636,l),
(109,629,o),
(135,611,o),
(135,556,cs),
(135,103,ls),
(135,73,o),
(118,39,o),
(40,28,c)
);
}
);
width = 729;
}
);
note = K;
unicode = 75;
},
{
glyphname = L;
layers = (
{
hints = (
{
horizontal = 1;
place = (664,-20);
target = down;
type = TopGhost;
},
{
horizontal = 1;
place = (634,27);
type = Stem;
},
{
horizontal = 1;
place = (2,52);
type = Stem;
},
{
horizontal = 1;
place = (-8,21);
target = up;
type = BottomGhost;
},
{
horizontal = 1;
place = (-12,21);
target = up;
type = BottomGhost;
},
{
place = (130,90);
type = Stem;
}
);
layerId = m01;
shapes = (
{
closed = 1;
nodes = (
(130,615,l),
(130,126,ls),
(130,65,o),
(90,40,o),
(40,23,c),
(35,-12,l),
(133,0,o),
(226,2,o),
(310,2,cs),
(432,2,o),
(474,0,o),
(526,-8,c),
(570,185,l),
(567,188,o),
(556,189,o),
(547,189,cs),
(539,189,o),
(527,188,o),
(525,185,c),
(487,68,o),
(454,54,o),
(338,54,cs),
(321,54,ls),
(285,54,o),
(253,60,o),
(220,76,c),
(220,557,ls),
(220,595,o),
(243,626,o),
(316,634,c),
(321,664,l),
(269,661,o),
(221,661,o),
(179,661,cs),
(136,661,o),
(94,661,o),
(41,664,c),
(36,634,l)
);
}
);
width = 595;
}
);
note = L;
unicode = 76;
},
{
glyphname = M;
layers = (
{
hints = (
{
horizontal = 1;
place = (664,-20);
target = down;
type = TopGhost;
},
{
horizontal = 1;
place = (634,27);
type = Stem;
},
{
horizontal = 1;
place = (613,48);
type = Stem;
},
{
horizontal = 1;
place = (0,27);
type = Stem;
},
{
horizontal = 1;
place = (-3,30);
type = Stem;
},
{
horizontal = 1;
place = (-7,21);
target = up;
type = BottomGhost;
},
{
place = (734,86);
type = Stem;
},
{
place = (27,161);
type = Stem;
},
{
place = (25,896);
type = Stem;
}
);
layerId = m01;
shapes = (
{
closed = 1;
nodes = (
(25,-3,l),
(103,0,o),
(199,0,o),
(261,-3,c),
(266,27,l),
(188,49,l),
(199,208,o),
(212,380,o),
(223,539,c),
(295,359,o),
(368,176,o),
(440,-4,cs),
(441,-6,o),
(445,-7,o),
(450,-7,cs),
(462,-7,o),
(482,-2,o),
(484,3,cs),
(556,177,o),
(630,353,o),
(702,527,c),
(712,367,o),
(724,210,o),
(734,50,c),
(657,27,l),
(651,-3,l),
(703,0,o),
(752,0,o),
(788,0,cs),
(825,0,o),
(862,0,o),
(917,-3,c),
(921,27,l),
(880,40,o),
(823,58,o),
(820,101,cs),
(788,613,l),
(856,634,l),
(859,664,l),
(826,661,o),
(795,661,o),
(771,661,cs),
(747,661,o),
(722,661,o),
(684,664,c),
(656,556,o),
(595,398,o),
(480,143,c),
(382,359,o),
(292,574,o),
(273,664,c),
(227,661,o),
(204,661,o),
(180,661,cs),
(158,661,o),
(131,661,o),
(92,664,c),
(88,634,l),
(159,614,l),
(129,146,ls),
(124,69,o),
(84,51,o),
(29,27,c)
);
}
);
width = 946;
}
);
note = M;
unicode = 77;
},
{
glyphname = N;
layers = (
{
hints = (
{
horizontal = 1;
place = (664,-20);
target = down;
type = TopGhost;
},
{
horizontal = 1;
place = (634,27);
type = Stem;
},
{
horizontal = 1;
place = (554,107);
type = Stem;
},
{
horizontal = 1;
place = (-3,30);
type = Stem;
},
{
horizontal = 1;
place = (-12,21);
target = up;
type = BottomGhost;
},
{
place = (607,65);
type = Stem;
},
{
place = (144,59);
type = Stem;
}
);
layerId = m01;
shapes = (
{
closed = 1;
nodes = (
(35,-3,l),
(125,0,o),
(235,0,o),
(326,-3,c),
(331,27,l),
(204,75,l),
(203,260,o),
(203,369,o),
(203,552,cs),
(203,554,o),
(204,554,o),
(205,554,cs),
(206,554,o),
(207,554,o),
(208,552,cs),
(590,-12,l),
(624,-12,o),
(663,-4,o),
(678,11,c),
(674,112,o),
(672,212,o),
(672,312,cs),
(672,411,o),
(674,523,o),
(678,604,c),
(757,634,l),
(762,664,l),
(717,661,o),
(681,661,o),
(643,661,cs),
(605,661,o),
(574,661,o),
(527,664,c),
(523,634,l),
(593,615,o),
(607,579,o),
(608,526,cs),
(609,472,o),
(609,422,o),
(609,368,cs),
(608,311,o),
(609,245,o),
(607,142,cs),
(607,141,o),
(606,141,o),
(605,141,cs),
(604,141,o),
(602,141,o),
(602,142,c),
(478,315,o),
(360,487,o),
(244,664,c),
(196,661,o),
(172,661,o),
(148,661,cs),
(124,661,o),
(95,661,o),
(54,664,c),
(50,634,l),
(138,593,l),
(142,501,o),
(144,419,o),
(144,358,cs),
(144,297,o),
(143,235,o),
(140,181,cs),
(133,75,o),
(99,49,o),
(40,27,c)
);
}
);
width = 797;
}
);
note = N;
unicode = 78;
},
{
glyphname = O;
layers = (
{
hints = (
{
horizontal = 1;
place = (629,51);
type = Stem;
},
{
horizontal = 1;
place = (-21,55);
type = Stem;
},
{
place = (626,99);
type = Stem;
},
{
place = (40,103);
type = Stem;
}
);
layerId = m01;
shapes = (
{
closed = 1;
nodes = (
(40,175,o),
(140,-21,o),
(364,-21,cs),
(535,-21,o),
(725,94,o),
(725,324,cs),
(725,502,o),
(637,680,o),
(402,680,cs),
(195,680,o),
(40,543,o),
(40,310,cs)
);
},
{
closed = 1;
nodes = (
(569,629,o),
(626,445,o),
(626,309,cs),
(626,212,o),
(575,34,o),
(395,34,cs),
(214,34,o),
(143,214,o),
(143,348,cs),
(143,489,o),
(221,629,o),
(361,629,cs)
);
}
);
width = 765;
}
);
note = O;
unicode = 79;
},
{
glyphname = P;
layers = (
{
hints = (
{
horizontal = 1;
place = (622,50);
type = Stem;
},
{
horizontal = 1;
place = (245,53);
type = Stem;
},
{
horizontal = 1;
place = (0,27);
type = Stem;
},
{
horizontal = 1;
place = (-3,21);
target = up;
type = BottomGhost;
},
{
place = (456,99);
type = Stem;
},
{
place = (133,94);
type = Stem;
}
);
layerId = m01;
shapes = (
{
closed = 1;
nodes = (
(35,-3,l),
(91,-1,o),
(144,0,o),
(195,0,cs),
(246,0,o),
(302,1,o),
(355,-3,c),
(360,27,l),
(227,67,l),
(227,242,l),
(292,249,ls),
(399,261,o),
(555,313,o),
(555,474,cs),
(555,589,o),
(497,672,o),
(331,672,cs),
(240,672,o),
(138,663,o),
(47,652,c),
(44,615,l),
(105,610,o),
(133,583,o),
(133,553,cs),
(133,113,ls),
(133,68,o),
(95,47,o),
(39,27,c)
);
},
{
closed = 1;
nodes = (
(456,343,o),
(389,299,o),
(292,299,cs),
(267,299,o),
(246,302,o),
(227,310,c),
(227,610,l),
(250,618,o),
(290,622,o),
(312,622,cs),
(412,622,o),
(456,543,o),
(456,454,cs)
);
}
);
width = 595;
}
);
note = P;
unicode = 80;
},
{
glyphname = Q;
layers = (
{
hints = (
{
horizontal = 1;
place = (632,48);
type = Stem;
},
{
horizontal = 1;
place = (0,34);
type = Stem;
},
{
horizontal = 1;
place = (-193,68);
type = Stem;
},
{
place = (625,101);
type = Stem;
},
{
place = (40,106);
type = Stem;
}
);
layerId = m01;
shapes = (
{
closed = 1;
nodes = (
(40,235,o),
(82,114,o),
(158,53,cs),
(215,8,o),
(298,-10,o),
(362,-21,cs),
(462,-39,o),
(549,-193,o),
(725,-193,cs),
(780,-193,o),
(871,-162,o),
(912,-122,c),
(914,-113,o),
(908,-94,o),
(897,-93,c),
(854,-113,o),
(805,-125,o),
(755,-125,cs),
(681,-125,o),
(593,-64,o),
(490,0,c),
(611,38,o),
(726,154,o),
(726,324,cs),
(726,544,o),
(596,680,o),
(396,680,cs),
(204,680,o),
(40,557,o),
(40,314,cs)
);
},
{
closed = 1;
nodes = (
(568,632,o),
(625,445,o),
(625,316,cs),
(625,212,o),
(588,34,o),
(408,34,cs),
(226,34,o),
(146,214,o),
(146,341,cs),
(146,489,o),
(218,632,o),
(358,632,cs)
);
}
);
width = 766;
}
);
note = Q;
unicode = 81;
},
{
glyphname = R;
layers = (
{
hints = (
{
horizontal = 1;
place = (619,45);
type = Stem;
},
{
horizontal = 1;
place = (308,34);
type = Stem;
},
{
horizontal = 1;
place = (1,40);
type = Stem;
},
{
horizontal = 1;
place = (-3,30);
type = Stem;
},
{
horizontal = 1;
place = (1,21);
target = up;
type = BottomGhost;
},
{
horizontal = 1;
place = (-14,21);
target = up;
type = BottomGhost;
},
{
place = (444,94);
type = Stem;
},
{
place = (134,94);
type = Stem;
}
);
layerId = m01;
shapes = (
{
closed = 1;
nodes = (
(35,-3,l),
(145,0,o),
(208,0,o),
(319,-3,c),
(325,27,l),
(228,56,l),
(228,290,l),
(326,308,l),
(344,267,ls),
(380,185,o),
(457,31,o),
(534,-14,c),
(566,-2,o),
(603,1,o),
(654,1,c),
(659,41,l),
(582,57,o),
(531,108,o),
(498,163,cs),
(475,202,o),
(455,238,o),
(408,330,c),
(444,343,o),
(538,385,o),
(538,500,cs),
(538,564,o),
(485,664,o),
(332,664,cs),
(284,664,o),
(236,661,o),
(183,661,cs),
(145,661,o),
(102,661,o),
(59,664,c),
(54,629,l),
(134,604,l),
(134,105,ls),
(134,67,o),
(97,40,o),
(40,27,c)
);
},
{
closed = 1;
nodes = (
(444,391,o),
(386,365,o),
(335,351,cs),
(291,339,o),
(260,340,o),
(228,348,c),
(228,606,l),
(252,614,o),
(274,619,o),
(299,619,cs),
(365,619,o),
(444,584,o),
(444,480,cs)
);
}
);
width = 679;
}
);
note = R;
unicode = 82;
},
{
glyphname = S;
layers = (
{
hints = (
{
horizontal = 1;
place = (622,56);
type = Stem;
},
{
horizontal = 1;
place = (-18,56);
type = Stem;
},
{
place = (358,92);
type = Stem;
},
{
place = (44,85);
type = Stem;
},
{
place = (37,43);
type = Stem;
}
);
layerId = m01;
shapes = (
{
closed = 1;
nodes = (
(317,622,o),
(363,599,o),
(371,500,c),
(374,498,o),
(383,496,o),
(391,496,cs),
(397,496,o),
(407,497,o),
(411,499,c),
(439,649,l),
(414,657,o),
(299,678,o),
(258,678,cs),
(135,678,o),
(44,612,o),
(44,507,cs),
(44,424,o),
(101,361,o),
(200,303,cs),
(307,239,o),
(358,200,o),
(358,139,cs),
(358,68,o),
(288,38,o),
(234,38,cs),
(150,38,o),
(95,67,o),
(81,193,c),
(77,194,o),
(70,195,o),
(64,195,cs),
(54,195,o),
(44,192,o),
(40,189,c),
(35,28,l),
(79,1,o),
(167,-18,o),
(210,-18,cs),
(328,-18,o),
(450,53,o),
(450,189,cs),
(450,259,o),
(418,300,o),
(281,374,cs),
(177,431,o),
(129,471,o),
(129,546,cs),
(129,595,o),
(181,622,o),
(252,622,cs)
);
}
);
width = 490;
}
);
note = S;
unicode = 83;
},
{
glyphname = T;
layers = (
{
hints = (
{
horizontal = 1;
place = (682,-20);
target = down;
type = TopGhost;
},
{
horizontal = 1;
place = (603,50);
type = Stem;
},
{
horizontal = 1;
place = (0,27);
type = Stem;
},
{
horizontal = 1;
place = (-3,21);
target = up;
type = BottomGhost;
},
{
place = (302,93);
type = Stem;
}
);
layerId = m01;
shapes = (
{
closed = 1;
nodes = (
(559,603,o),
(583,596,o),
(623,499,c),
(628,498,o),
(634,497,o),
(640,497,cs),
(649,497,o),
(657,499,o),
(663,501,c),
(644,682,l),
(540,656,o),
(443,653,o),
(346,653,cs),
(244,653,o),
(156,655,o),
(54,682,c),
(35,502,l),
(39,500,o),
(48,498,o),
(57,498,cs),
(63,498,o),
(69,499,o),
(73,500,c),
(113,600,o),
(141,603,o),
(254,603,cs),
(293,603,o),
(302,591,o),
(302,535,cs),
(302,105,ls),
(302,62,o),
(265,41,o),
(206,27,c),
(202,-3,l),
(265,0,o),
(311,0,o),
(349,0,cs),
(388,0,o),
(428,0,o),
(491,-3,c),
(497,27,l),
(428,42,o),
(395,61,o),
(395,105,cs),
(395,535,ls),
(395,593,o),
(403,603,o),
(444,603,cs)
);
}
);
width = 698;
}
);
note = T;
unicode = 84;
},
{
glyphname = U;
layers = (
{
hints = (
{
horizontal = 1;
place = (664,-20);
target = down;
type = TopGhost;
},
{
horizontal = 1;
place = (634,27);
type = Stem;
},
{
horizontal = 1;
place = (-21,64);
type = Stem;
},
{
place = (554,73);
type = Stem;
},
{
place = (103,90);
type = Stem;
}
);
layerId = m01;
shapes = (
{
closed = 1;
nodes = (
(103,203,ls),
(103,74,o),
(191,-21,o),
(367,-21,cs),
(455,-21,o),
(627,26,o),
(627,199,cs),
(627,569,ls),
(627,606,o),
(655,627,o),
(691,634,c),
(696,664,l),
(628,661,o),
(613,661,o),
(578,661,cs),
(543,661,o),
(524,661,o),
(462,664,c),
(458,634,l),
(554,611,l),
(554,204,ls),
(554,103,o),
(480,43,o),
(385,43,cs),
(272,43,o),
(193,129,o),
(193,223,cs),
(193,608,l),
(288,634,l),
(294,664,l),
(224,661,o),
(206,661,o),
(167,661,cs),
(128,661,o),
(110,661,o),
(39,664,c),
(35,634,l),
(62,628,o),
(103,606,o),
(103,567,cs)
);
}
);
width = 731;
}
);
note = U;
unicode = 85;
},
{
glyphname = V;
layers = (
{
hints = (
{
horizontal = 1;
place = (634,30);
type = Stem;
},
{
horizontal = 1;
place = (-11,127);
type = Stem;
},
{
place = (35,671);
type = Stem;
}
);
layerId = m01;
shapes = (
{
closed = 1;
nodes = (
(318,-8,ls),
(321,-16,o),
(391,-7,o),
(394,1,cs),
(600,508,ls),
(624,567,o),
(641,603,o),
(699,634,c),
(706,664,l),
(609,661,o),
(597,661,o),
(502,664,c),
(497,634,l),
(566,609,l),
(376,121,ls),
(374,115,o),
(363,114,o),
(361,119,cs),
(191,614,l),
(257,634,l),
(261,664,l),
(160,661,o),
(140,661,o),
(39,664,c),
(35,634,l),
(73,626,o),
(94,608,o),
(125,523,cs)
);
}
);
width = 741;
}
);
note = V;
unicode = 86;
},
{
glyphname = W;
layers = (
{
hints = (
{
horizontal = 1;
place = (634,30);
type = Stem;
},
{
horizontal = 1;
place = (616,48);
type = Stem;
},
{
horizontal = 1;
place = (-21,137);
type = Stem;
},
{
place = (35,1003);
type = Stem;
}
);
layerId = m01;
shapes = (
{
closed = 1;
nodes = (
(329,-18,l),
(333,-26,o),
(397,-17,o),
(400,-9,cs),
(558,399,l),
(699,-18,ls),
(701,-26,o),
(768,-17,o),
(770,-9,cs),
(929,511,ls),
(949,576,o),
(983,621,o),
(1031,634,c),
(1038,664,l),
(943,661,o),
(891,661,o),
(794,664,c),
(789,634,l),
(890,614,l),
(755,121,ls),
(753,115,o),
(744,114,o),
(742,119,cs),
(593,616,l),
(680,633,l),
(687,664,l),
(584,661,o),
(517,661,o),
(413,664,c),
(406,634,l),
(493,618,l),
(527,496,l),
(386,121,ls),
(384,115,o),
(376,114,o),
(374,119,cs),
(211,615,l),
(300,634,l),
(306,664,l),
(205,661,o),
(141,661,o),
(40,664,c),
(35,634,l),
(87,615,o),
(122,576,o),
(159,473,cs)
);
}
);
width = 1073;
}
);
note = W;
unicode = 87;
},
{
glyphname = X;
layers = (
{
hints = (
{
horizontal = 1;
place = (664,-20);
target = down;
type = TopGhost;
},
{
horizontal = 1;
place = (634,27);
type = Stem;
},
{
horizontal = 1;
place = (615,46);
type = Stem;
},
{
horizontal = 1;
place = (0,27);
type = Stem;
},
{
horizontal = 1;
place = (-3,21);
target = up;
type = BottomGhost;
},
{
place = (35,669);
type = Stem;
}
);
layerId = m01;
shapes = (
{
closed = 1;
nodes = (
(317,326,ls),
(320,322,o),
(319,319,o),
(317,316,cs),
(178,108,ls),
(143,55,o),
(88,34,o),
(42,27,c),
(35,-3,l),
(96,0,o),
(120,0,o),
(162,0,cs),
(204,0,o),
(232,0,o),
(300,-3,c),
(307,27,l),
(213,50,l),
(350,258,ls),
(352,261,o),
(363,261,o),
(365,258,cs),
(492,48,l),
(416,28,l),
(410,-3,l),
(480,0,o),
(504,0,o),
(548,0,cs),
(592,0,o),
(616,0,o),
(687,-3,c),
(693,28,l),
(640,40,o),
(597,54,o),
(567,102,cs),
(420,338,ls),
(417,342,o),
(417,342,o),
(420,346,cs),
(559,558,ls),
(593,610,o),
(626,623,o),
(696,634,c),
(704,664,l),
(636,661,o),
(613,661,o),
(570,661,cs),
(527,661,o),
(504,661,o),
(436,664,c),
(430,634,l),
(522,610,l),
(385,405,ls),
(382,400,o),
(375,400,o),
(372,405,cs),
(240,615,l),
(317,634,l),
(322,664,l),
(252,661,o),
(229,661,o),
(186,661,cs),
(143,661,o),
(121,661,o),
(50,664,c),
(44,634,l),
(108,617,o),
(140,609,o),
(170,561,cs)
);
}
);
width = 739;
}
);
note = X;
unicode = 88;
},
{
glyphname = Y;
layers = (
{
hints = (
{
horizontal = 1;
place = (634,30);
type = Stem;
},
{
horizontal = 1;
place = (634,27);
type = Stem;
},
{
horizontal = 1;
place = (615,46);
type = Stem;
},
{
horizontal = 1;
place = (613,51);
type = Stem;
},
{
horizontal = 1;
place = (0,27);
type = Stem;
},
{
horizontal = 1;
place = (-3,21);
target = up;
type = BottomGhost;
},
{
place = (302,93);
type = Stem;
}
);
layerId = m01;
shapes = (
{
closed = 1;
nodes = (
(287,302,ls),
(291,294,o),
(302,277,o),
(302,261,cs),
(302,103,ls),
(302,56,o),
(258,39,o),
(208,27,c),
(204,-3,l),
(274,0,o),
(300,0,o),
(346,0,cs),
(392,0,o),
(418,0,o),
(487,-3,c),
(492,27,l),
(435,39,o),
(395,52,o),
(395,103,cs),
(395,265,ls),
(395,274,o),
(394,294,o),
(399,302,cs),
(558,548,ls),
(590,598,o),
(618,616,o),
(688,634,c),
(695,664,l),
(598,661,o),
(541,661,o),
(444,664,c),
(437,634,l),
(520,613,l),
(367,367,ls),
(365,363,o),
(354,363,o),
(352,367,cs),
(222,615,l),
(293,634,l),
(299,664,l),
(239,661,o),
(209,661,o),
(170,661,cs),
(131,661,o),
(102,661,o),
(41,664,c),
(35,634,l),
(95,619,o),
(132,598,o),
(157,550,cs)
);
}
);
width = 730;
}
);
note = Y;
unicode = 89;
},
{
glyphname = Z;
layers = (
{
hints = (
{
horizontal = 1;
place = (681,-20);
target = down;
type = TopGhost;
},
{
horizontal = 1;
place = (605,56);
type = Stem;
},
{
horizontal = 1;
place = (475,9);
type = Stem;
},
{
horizontal = 1;
place = (0,56);
type = Stem;
},
{
place = (26,578);
type = Stem;
}
);
layerId = m01;
shapes = (
{
closed = 1;
nodes = (
(23,4,o),
(26,0,o),
(37,0,cs),
(562,0,l),
(604,198,l),
(603,210,o),
(568,217,o),
(559,211,c),
(517,70,o),
(485,56,o),
(358,56,cs),
(190,56,ls),
(178,56,o),
(175,61,o),
(182,71,cs),
(580,649,ls),
(584,655,o),
(581,661,o),
(571,661,cs),
(303,661,ls),
(221,661,o),
(161,661,o),
(61,681,c),
(31,484,l),
(37,475,o),
(73,472,o),
(80,478,c),
(106,599,o),
(149,605,o),
(225,605,cs),
(426,605,ls),
(438,605,o),
(440,603,o),
(433,593,cs),
(304,395,o),
(167,204,o),
(29,12,cs)
);
}
);
width = 629;
}
);
note = Z;
unicode = 90;
},
{
glyphname = a;
layers = (
{
hints = (
{
horizontal = 1;
place = (369,57);
type = Stem;
},
{
horizontal = 1;
place = (16,35);
type = Stem;
},
{
horizontal = 1;
place = (-11,21);
target = up;
type = BottomGhost;
},
{
horizontal = 1;
place = (-12,21);
target = up;
type = BottomGhost;
},
{
place = (262,80);
type = Stem;
},
{
place = (25,83);
type = Stem;
}
);
layerId = m01;
shapes = (
{
closed = 1;
nodes = (
(262,99,l),
(227,71,o),
(186,63,o),
(143,63,c),
(122,80,o),
(108,100,o),
(108,124,cs),
(108,130,o),
(109,148,o),
(112,158,c),
(138,178,o),
(211,199,o),
(262,210,c)
);
},
{
closed = 1;
nodes = (
(238,369,o),
(262,339,o),
(262,246,c),
(217,239,o),
(85,202,o),
(44,178,c),
(28,151,o),
(25,120,o),
(25,102,cs),
(25,36,o),
(64,2,o),
(122,-11,c),
(263,50,l),
(263,25,o),
(264,9,o),
(282,-12,c),
(317,1,o),
(377,12,o),
(416,16,c),
(421,52,l),
(413,51,o),
(405,51,o),
(404,51,cs),
(368,51,o),
(342,66,o),
(342,118,cs),
(342,282,ls),
(342,367,o),
(316,426,o),
(227,426,cs),
(176,426,o),
(103,407,o),
(49,376,c),
(49,274,l),
(56,271,o),
(65,270,o),
(74,270,cs),
(83,270,o),
(92,271,o),
(98,274,c),
(120,354,l),
(132,358,o),
(165,369,o),
(181,369,cs)
);
}
);
width = 426;
}
);
note = a;
unicode = 97;
},
{
glyphname = b;
layers = (
{
hints = (
{
horizontal = 1;
place = (675,-20);
target = down;
type = TopGhost;
},
{
horizontal = 1;
place = (641,34);
type = Stem;
},
{
horizontal = 1;
place = (363,63);
type = Stem;
},
{
horizontal = 1;
place = (-11,51);
type = Stem;
},
{
place = (379,84);
type = Stem;
},
{
place = (76,80);
type = Stem;
}
);
layerId = m01;
shapes = (
{
closed = 1;
nodes = (
(105,2,o),
(155,-11,o),
(223,-11,cs),
(328,-11,o),
(463,87,o),
(463,239,cs),
(463,366,o),
(370,426,o),
(298,426,cs),
(286,426,o),
(188,391,o),
(156,374,c),
(156,479,ls),
(156,549,o),
(158,662,o),
(171,715,c),
(129,715,o),
(37,695,o),
(-4,675,c),
(-10,640,l),
(-5,641,o),
(-1,641,o),
(4,641,cs),
(52,641,o),
(67,594,o),
(71,546,cs),
(74,515,o),
(76,439,o),
(76,342,cs),
(76,224,o),
(73,89,o),
(63,35,c)
);
},
{
closed = 1;
nodes = (
(204,40,o),
(163,61,o),
(159,101,cs),
(156,136,o),
(156,172,o),
(156,207,cs),
(156,334,l),
(188,349,o),
(226,363,o),
(257,363,cs),
(331,363,o),
(379,286,o),
(379,199,cs),
(379,135,o),
(334,40,o),
(264,40,cs)
);
}
);
width = 498;
}
);
note = b;
unicode = 98;
},
{
glyphname = c;
layers = (
{
hints = (
{
horizontal = 1;
place = (369,57);
type = Stem;
},
{
horizontal = 1;
place = (-11,71);
type = Stem;
},
{
place = (35,85);
type = Stem;
}
);
layerId = m01;
shapes = (
{
closed = 1;
nodes = (
(391,83,o),
(382,109,o),
(374,112,c),
(339,74,o),
(307,60,o),
(244,60,cs),
(167,60,o),
(120,119,o),
(120,216,cs),
(120,319,o),
(173,369,o),
(247,369,cs),
(299,369,o),
(334,345,o),
(350,288,c),
(353,287,o),
(358,286,o),
(363,286,cs),
(368,286,o),
(374,287,o),
(377,288,c),
(387,410,l),
(375,410,o),
(362,410,o),
(345,415,cs),
(325,421,o),
(286,426,o),
(259,426,cs),
(155,426,o),
(35,352,o),
(35,202,cs),
(35,71,o),
(127,-11,o),
(217,-11,cs),
(266,-11,o),
(338,13,o),
(390,76,c)
);
}
);
width = 416;
}
);
note = c;
unicode = 99;
},
{
glyphname = d;
layers = (
{
hints = (
{
horizontal = 1;
place = (644,31);
type = Stem;
},
{
horizontal = 1;
place = (378,48);
type = Stem;
},
{
horizontal = 1;
place = (12,35);
type = Stem;
},
{
horizontal = 1;
place = (-20,68);
type = Stem;
},
{
horizontal = 1;
place = (-15,21);
target = up;
type = BottomGhost;
},
{
place = (358,80);
type = Stem;
},
{
place = (35,90);
type = Stem;
}
);
layerId = m01;
shapes = (
{
closed = 1;
nodes = (
(358,412,l),
(337,415,o),
(291,426,o),
(285,426,cs),
(153,426,o),
(35,342,o),
(35,172,cs),
(35,57,o),
(122,-20,o),
(208,-20,cs),
(215,-20,o),
(335,24,o),
(358,36,c),
(359,24,o),
(364,1,o),
(373,-15,c),
(414,0,o),
(473,10,o),
(512,12,c),
(517,48,l),
(509,47,o),
(501,47,o),
(500,47,cs),
(450,47,o),
(443,60,o),
(441,104,cs),
(439,166,o),
(438,246,o),
(438,323,cs),
(438,401,ls),
(438,530,o),
(441,662,o),
(454,715,c),
(412,715,o),
(320,692,o),
(280,675,c),
(277,643,l),
(283,644,o),
(290,644,o),
(291,644,cs),
(348,644,o),
(358,600,o),
(358,516,cs)
);
},
{
closed = 1;
nodes = (
(192,48,o),
(125,91,o),
(125,201,cs),
(125,295,o),
(173,378,o),
(258,378,cs),
(289,378,o),
(335,366,o),
(358,361,c),
(358,84,l),
(335,72,o),
(286,48,o),
(246,48,cs)
);
}
);
width = 522;
}
);
note = d;
unicode = 100;
},
{
glyphname = e;
layers = (
{
hints = (
{
horizontal = 1;
place = (374,52);
type = Stem;
},
{
horizontal = 1;
place = (-11,68);
type = Stem;
},
{
place = (303,85);
type = Stem;
},
{
place = (35,78);
type = Stem;
}
);
layerId = m01;
shapes = (
{
closed = 1;
nodes = (
(389,81,o),
(385,97,o),
(378,101,c),
(346,73,o),
(317,57,o),
(261,57,cs),
(187,57,o),
(120,119,o),
(113,207,c),
(384,223,l),
(387,232,o),
(388,244,o),
(388,255,cs),
(388,335,o),
(336,426,o),
(234,426,cs),
(146,426,o),
(35,358,o),
(35,206,cs),
(35,72,o),
(122,-11,o),
(216,-11,cs),
(268,-11,o),
(350,14,o),
(389,73,c)
);
},
{
closed = 1;
nodes = (
(113,245,l),
(113,305,o),
(143,374,o),
(207,374,cs),
(263,374,o),
(303,321,o),
(303,262,c)
);
}
);
width = 414;
}
);
note = e;
unicode = 101;
},
{
glyphname = g;
layers = (
{
hints = (
{
horizontal = 1;
place = (382,44);
type = Stem;
},
{
horizontal = 1;
place = (356,60);
type = Stem;
},
{
horizontal = 1;
place = (106,51);
type = Stem;
},
{
horizontal = 1;
place = (-274,60);
type = Stem;
},
{
horizontal = 1;
place = (-2,21);
target = up;
type = BottomGhost;
},
{
horizontal = 1;
place = (-16,21);
target = up;
type = BottomGhost;
},
{
horizontal = 1;
place = (-22,21);
target = up;
type = BottomGhost;
},
{
place = (375,71);
type = Stem;
},
{
place = (293,83);
type = Stem;
},
{
place = (40,83);
type = Stem;
},
{
place = (25,78);
type = Stem;
}
);
layerId = m01;
shapes = (
{
closed = 1;
nodes = (
(124,426,o),
(40,362,o),
(40,254,cs),
(40,182,o),
(79,133,o),
(141,112,c),
(70,69,l),
(70,-2,l),
(140,-16,l),
(61,-65,ls),
(34,-82,o),
(25,-107,o),
(25,-137,cs),
(25,-234,o),
(123,-274,o),
(197,-274,cs),
(308,-274,o),
(446,-182,o),
(446,-77,cs),
(446,-14,o),
(397,19,o),
(358,25,cs),
(147,60,l),
(176,106,l),
(292,106,o),
(376,176,o),
(376,283,cs),
(376,304,o),
(373,332,o),
(368,346,c),
(391,353,o),
(410,356,o),
(430,356,cs),
(441,356,o),
(450,356,o),
(463,354,c),
(464,358,o),
(464,363,o),
(464,369,cs),
(464,387,o),
(461,405,o),
(453,416,c),
(415,414,o),
(378,404,o),
(349,387,c),
(313,413,o),
(271,426,o),
(225,426,cs)
);
},
{
closed = 1;
nodes = (
(262,382,o),
(293,333,o),
(293,260,cs),
(293,195,o),
(269,157,o),
(218,157,cs),
(155,157,o),
(123,216,o),
(123,283,cs),
(123,334,o),
(142,382,o),
(202,382,cs)
);
},
{
closed = 1;
nodes = (
(170,-214,o),
(103,-190,o),
(103,-107,cs),
(103,-89,o),
(106,-74,o),
(115,-68,cs),
(189,-22,l),
(317,-45,ls),
(351,-51,o),
(375,-74,o),
(375,-110,cs),
(375,-173,o),
(299,-214,o),
(245,-214,cs)
);
}
);
width = 489;
}
);
note = g;
unicode = 103;
},
{
glyphname = h;
layers = (
{
hints = (
{
horizontal = 1;
place = (647,26);
type = Stem;
},
{
horizontal = 1;
place = (361,65);
type = Stem;
},
{
horizontal = 1;
place = (0,27);
type = Stem;
},
{
horizontal = 1;
place = (-3,21);
target = up;
type = BottomGhost;
},
{
place = (382,79);
type = Stem;
},
{
place = (104,79);
type = Stem;
}
);
layerId = m01;
shapes = (
{
closed = 1;
nodes = (
(183,52,l),
(183,309,l),
(211,324,o),
(288,361,o),
(316,361,cs),
(346,361,o),
(382,318,o),
(382,265,cs),
(382,46,l),
(325,27,l),
(320,-3,l),
(353,0,o),
(399,0,o),
(423,0,cs),
(447,0,o),
(477,0,o),
(523,-3,c),
(529,27,l),
(478,36,o),
(468,59,o),
(464,94,cs),
(461,125,o),
(461,179,o),
(461,233,cs),
(461,333,o),
(445,426,o),
(347,426,cs),
(283,426,o),
(231,387,o),
(183,356,c),
(183,378,ls),
(183,486,o),
(179,608,o),
(196,715,c),
(159,715,o),
(56,689,o),
(24,673,c),
(19,646,l),
(25,647,o),
(30,647,o),
(35,647,cs),
(80,647,o),
(97,633,o),
(101,582,cs),
(103,551,o),
(104,461,o),
(104,397,cs),
(104,135,ls),
(104,77,o),
(82,45,o),
(29,27,c),
(25,-3,l),
(72,0,o),
(110,0,o),
(137,0,cs),
(164,0,o),
(188,0,o),
(237,-3,c),
(241,27,l)
);
}
);
width = 554;
}
);
note = h;
unicode = 104;
},
{
glyphname = i;
layers = (
{
hints = (
{
horizontal = 1;
place = (661,-20);
target = down;
type = TopGhost;
},
{
horizontal = 1;
place = (429,-20);
target = down;
type = TopGhost;
},
{
horizontal = 1;
place = (0,27);
type = Stem;
},
{
horizontal = 1;
place = (-3,21);
target = up;
type = BottomGhost;
},
{
place = (100,79);
type = Stem;
}
);
layerId = m01;
shapes = (
{
closed = 1;
nodes = (
(166,640,o),
(133,657,o),
(105,661,c),
(81,640,o),
(64,609,o),
(58,576,c),
(74,556,o),
(106,540,o),
(139,534,c),
(159,551,o),
(180,587,o),
(185,618,c)
);
},
{
closed = 1;
nodes = (
(179,56,l),
(179,100,ls),
(179,202,o),
(174,328,o),
(187,429,c),
(152,429,o),
(48,409,o),
(27,398,c),
(21,364,l),
(26,365,o),
(31,365,o),
(32,365,cs),
(75,365,o),
(100,340,o),
(100,293,cs),
(100,123,ls),
(100,84,o),
(81,47,o),
(31,27,c),
(25,-3,l),
(71,0,o),
(110,0,o),
(140,0,cs),
(171,0,o),
(206,0,o),
(256,-3,c),
(262,27,l)
);
}
);
width = 287;
}
);
note = i;
unicode = 105;
},
{
glyphname = j;
layers = (
{
hints = (
{
horizontal = 1;
place = (661,-20);
target = down;
type = TopGhost;
},
{
horizontal = 1;
place = (429,-20);
target = down;
type = TopGhost;
},
{
place = (97,79);
type = Stem;
}
);
layerId = m01;
shapes = (
{
closed = 1;
nodes = (
(-36,-243,o),
(-22,-260,o),
(-6,-264,c),
(147,-190,o),
(176,-61,o),
(176,13,cs),
(176,249,ls),
(176,320,o),
(176,393,o),
(180,429,c),
(147,427,o),
(47,408,o),
(27,400,c),
(21,364,l),
(26,365,o),
(31,365,o),
(31,365,c),
(69,365,o),
(90,339,o),
(93,291,cs),
(95,263,o),
(97,105,o),
(97,42,cs),
(97,-164,o),
(30,-208,o),
(-40,-228,c)
);
},
{
closed = 1;
nodes = (
(159,640,o),
(126,657,o),
(98,661,c),
(74,640,o),
(57,609,o),
(51,576,c),
(67,556,o),
(99,540,o),
(132,534,c),
(152,551,o),
(173,587,o),
(178,618,c)
);
}
);
width = 230;
}
);
note = j;
unicode = 106;
},
{
glyphname = k;
layers = (
{
hints = (
{
horizontal = 1;
place = (677,36);
type = Stem;
},
{
horizontal = 1;
place = (389,31);
type = Stem;
},
{
horizontal = 1;
place = (0,27);
type = Stem;
},
{
horizontal = 1;
place = (-3,21);
target = up;
type = BottomGhost;
},
{
horizontal = 1;
place = (-10,21);
target = up;
type = BottomGhost;
},
{
place = (102,80);
type = Stem;
}
);
layerId = m01;
shapes = (
{
closed = 1;
nodes = (
(182,46,l),
(182,174,l),
(237,220,l),
(249,174,o),
(314,28,o),
(385,-10,c),
(412,-3,o),
(465,0,o),
(499,0,c),
(508,32,l),
(415,43,o),
(347,145,o),
(313,209,cs),
(286,259,l),
(323,297,o),
(404,374,o),
(449,387,cs),
(467,392,l),
(476,424,l),
(438,421,o),
(409,421,o),
(370,421,cs),
(330,421,o),
(320,421,o),
(276,424,c),
(268,392,l),
(321,379,l),
(299,332,o),
(206,255,o),
(182,237,c),
(182,398,ls),
(182,506,o),
(184,628,o),
(200,688,c),
(168,701,o),
(56,723,o),
(25,713,c),
(19,677,l),
(75,675,o),
(100,626,o),
(102,563,cs),
(104,500,o),
(102,422,o),
(102,359,cs),
(102,271,o),
(103,171,o),
(101,126,cs),
(99,80,o),
(79,36,o),
(31,27,c),
(25,-3,l),
(56,0,o),
(100,0,o),
(133,0,cs),
(165,0,o),
(188,0,o),
(228,-3,c),
(234,27,l)
);
}
);
width = 523;
}
);
note = k;
unicode = 107;
},
{
glyphname = l;
layers = (
{
hints = (
{
horizontal = 1;
place = (647,27);
type = Stem;
},
{
horizontal = 1;
place = (0,56);
type = Stem;
},
{
horizontal = 1;
place = (0,21);
target = up;
type = BottomGhost;
},
{
horizontal = 1;
place = (-3,21);
target = up;
type = BottomGhost;
},
{
place = (107,80);
type = Stem;
}
);
layerId = m01;
shapes = (
{
closed = 1;
nodes = (
(189,56,l),
(188,103,o),
(187,181,o),
(187,273,cs),
(187,405,ls),
(187,528,o),
(190,662,o),
(203,715,c),
(169,718,o),
(56,695,o),
(25,674,c),
(21,646,l),
(27,647,o),
(33,647,o),
(38,647,cs),
(83,647,o),
(97,636,o),
(103,582,cs),
(106,553,o),
(107,454,o),
(107,376,cs),
(107,277,o),
(106,175,o),
(104,132,cs),
(101,85,o),
(81,34,o),
(33,27,c),
(25,-3,l),
(57,0,o),
(109,0,o),
(145,0,cs),
(180,0,o),
(222,0,o),
(266,-3,c),
(273,27,l)
);
}
);
width = 293;
}
);
note = l;
unicode = 108;
},
{
glyphname = m;
layers = (
{
hints = (
{
horizontal = 1;
place = (363,63);
type = Stem;
},
{
horizontal = 1;
place = (362,30);
type = Stem;
},
{
horizontal = 1;
place = (0,46);
type = Stem;
},
{
horizontal = 1;
place = (0,27);
type = Stem;
},
{
horizontal = 1;
place = (-3,21);
target = up;
type = BottomGhost;
},
{
place = (612,79);
type = Stem;
},
{
place = (359,80);
type = Stem;
},
{
place = (107,81);
type = Stem;
}
);
layerId = m01;
shapes = (
{
closed = 1;
nodes = (
(188,46,l),
(188,318,l),
(219,337,o),
(283,362,o),
(296,362,c),
(319,358,o),
(350,334,o),
(359,310,c),
(359,46,l),
(308,27,l),
(303,-3,l),
(329,-1,o),
(374,0,o),
(397,0,cs),
(421,0,o),
(464,-1,o),
(492,-3,c),
(498,27,l),
(439,46,l),
(439,318,l),
(468,337,o),
(531,359,o),
(551,363,c),
(577,363,o),
(605,324,o),
(607,308,cs),
(610,271,o),
(612,224,o),
(612,180,cs),
(612,135,o),
(612,81,o),
(611,46,c),
(566,27,l),
(560,-3,l),
(595,0,o),
(633,0,o),
(662,0,cs),
(691,0,o),
(723,0,o),
(756,-3,c),
(764,27,l),
(723,39,o),
(694,59,o),
(693,97,cs),
(692,154,o),
(691,232,o),
(691,290,cs),
(691,387,o),
(617,426,o),
(588,426,cs),
(556,426,o),
(478,380,o),
(434,353,c),
(418,377,o),
(377,426,o),
(321,426,cs),
(306,426,o),
(205,366,o),
(188,354,c),
(188,381,o),
(193,407,o),
(195,427,c),
(164,427,o),
(57,407,o),
(29,392,c),
(24,362,l),
(76,365,o),
(98,355,o),
(104,289,cs),
(106,263,o),
(107,241,o),
(107,211,cs),
(107,181,o),
(106,126,o),
(104,95,cs),
(101,52,o),
(73,42,o),
(29,27,c),
(25,-3,l),
(55,0,o),
(108,0,o),
(136,0,cs),
(165,0,o),
(210,0,o),
(240,-3,c),
(246,27,l)
);
}
);
width = 789;
}
);
note = m;
unicode = 109;
},
{
glyphname = n;
layers = (
{
hints = (
{
horizontal = 1;
place = (366,29);
type = Stem;
},
{
horizontal = 1;
place = (363,63);
type = Stem;
},
{
horizontal = 1;
place = (0,27);
type = Stem;
},
{
horizontal = 1;
place = (-3,21);
target = up;
type = BottomGhost;
},
{
place = (371,79);
type = Stem;
},
{
place = (97,79);
type = Stem;
}
);
layerId = m01;
shapes = (
{
closed = 1;
nodes = (
(181,50,l),
(178,106,o),
(176,172,o),
(176,234,cs),
(176,263,o),
(176,291,o),
(177,317,c),
(212,332,o),
(301,363,o),
(310,363,cs),
(345,363,o),
(366,315,o),
(367,296,cs),
(371,247,o),
(371,203,o),
(371,153,cs),
(371,118,o),
(368,77,o),
(365,46,c),
(324,27,l),
(319,-3,l),
(355,0,o),
(389,0,o),
(418,0,cs),
(446,0,o),
(481,0,o),
(518,-3,c),
(523,27,l),
(486,36,o),
(450,47,o),
(450,95,cs),
(450,263,ls),
(450,359,o),
(436,426,o),
(327,426,cs),
(305,426,o),
(211,376,o),
(178,357,c),
(179,383,o),
(182,406,o),
(190,427,c),
(156,427,o),
(46,407,o),
(18,395,c),
(14,365,l),
(18,366,o),
(25,366,o),
(30,366,cs),
(74,366,o),
(91,352,o),
(94,303,cs),
(96,269,o),
(97,240,o),
(97,216,cs),
(97,182,o),
(97,137,o),
(93,97,cs),
(89,52,o),
(73,35,o),
(29,27,c),
(25,-3,l),
(71,0,o),
(105,0,o),
(129,0,cs),
(154,0,o),
(174,0,o),
(231,-3,c),
(236,27,l)
);
}
);
width = 549;
}
);
note = n;
unicode = 110;
},
{
glyphname = o;
layers = (
{
hints = (
{
horizontal = 1;
place = (377,49);
type = Stem;
},
{
horizontal = 1;
place = (-12,59);
type = Stem;
},
{
place = (371,90);
type = Stem;
},
{
place = (35,90);
type = Stem;
}
);
layerId = m01;
shapes = (
{
closed = 1;
nodes = (
(35,108,o),
(96,-12,o),
(236,-12,cs),
(348,-12,o),
(461,66,o),
(461,216,cs),
(461,324,o),
(402,426,o),
(260,426,cs),
(133,426,o),
(35,343,o),
(35,194,cs)
);
},
{
closed = 1;
nodes = (
(335,377,o),
(371,277,o),
(371,195,cs),
(371,128,o),
(347,47,o),
(250,47,cs),
(151,47,o),
(125,133,o),
(125,211,cs),
(125,309,o),
(166,377,o),
(243,377,cs)
);
}
);
width = 496;
}
);
note = o;
unicode = 111;
},
{
glyphname = p;
layers = (
{
hints = (
{
horizontal = 1;
place = (372,29);
type = Stem;
},
{
horizontal = 1;
place = (365,61);
type = Stem;
},
{
horizontal = 1;
place = (-9,53);
type = Stem;
},
{
place = (402,86);
type = Stem;
},
{
place = (91,80);
type = Stem;
}
);
layerId = m01;
shapes = (
{
closed = 1;
nodes = (
(172,-152,o),
(171,-115,o),
(171,-50,cs),
(171,7,l),
(192,0,o),
(219,-9,o),
(257,-9,cs),
(332,-9,o),
(488,78,o),
(488,246,cs),
(488,373,o),
(399,426,o),
(326,426,cs),
(293,426,o),
(215,381,o),
(171,353,c),
(171,370,o),
(178,419,o),
(183,437,c),
(149,437,o),
(38,414,o),
(10,401,c),
(5,372,l),
(64,372,o),
(81,350,o),
(85,291,cs),
(89,239,o),
(91,176,o),
(91,96,cs),
(91,45,ls),
(91,-170,o),
(91,-201,o),
(36,-224,c),
(25,-254,l),
(89,-254,o),
(171,-258,o),
(248,-272,c),
(256,-242,l),
(212,-227,o),
(179,-215,o),
(174,-167,cs)
);
},
{
closed = 1;
nodes = (
(243,44,o),
(210,52,o),
(171,76,c),
(171,313,l),
(181,319,o),
(261,365,o),
(282,365,cs),
(343,365,o),
(402,306,o),
(402,212,cs),
(402,137,o),
(365,44,o),
(288,44,cs)
);
}
);
width = 523;
}
);
note = p;
unicode = 112;
},
{
glyphname = q;
layers = (
{
hints = (
{
horizontal = 1;
place = (376,50);
type = Stem;
},
{
horizontal = 1;
place = (-23,66);
type = Stem;
},
{
horizontal = 1;
place = (-255,30);
type = Stem;
},
{
place = (357,80);
type = Stem;
},
{
place = (35,88);
type = Stem;
}
);
layerId = m01;
shapes = (
{
closed = 1;
nodes = (
(347,-212,o),
(320,-231,o),
(281,-249,c),
(279,-279,l),
(343,-264,o),
(436,-255,o),
(485,-255,c),
(490,-225,l),
(443,-223,o),
(437,-161,o),
(437,-46,cs),
(437,104,ls),
(437,174,o),
(439,360,o),
(452,403,c),
(401,419,o),
(349,426,o),
(306,426,cs),
(165,426,o),
(35,350,o),
(35,187,cs),
(35,48,o),
(129,-23,o),
(212,-23,cs),
(240,-23,o),
(335,17,o),
(357,30,c),
(357,-37,o),
(356,-106,o),
(350,-172,cs)
);
},
{
closed = 1;
nodes = (
(173,43,o),
(123,124,o),
(123,211,cs),
(123,300,o),
(176,376,o),
(239,376,cs),
(284,376,o),
(328,363,o),
(349,354,c),
(356,292,o),
(357,198,o),
(357,137,cs),
(357,77,l),
(330,61,o),
(277,43,o),
(244,43,cs)
);
}
);
width = 500;
}
);
note = q;
unicode = 113;
},
{
glyphname = r;
layers = (
{
hints = (
{
horizontal = 1;
place = (360,30);
type = Stem;
},
{
horizontal = 1;
place = (356,72);
type = Stem;
},
{
horizontal = 1;
place = (0,56);
type = Stem;
},
{
horizontal = 1;
place = (-3,21);
target = up;
type = BottomGhost;
},
{
place = (101,76);
type = Stem;
}
);
layerId = m01;
shapes = (
{
closed = 1;
nodes = (
(180,56,l),
(178,96,o),
(177,129,o),
(177,167,cs),
(177,205,o),
(178,251,o),
(180,291,c),
(202,322,o),
(228,353,o),
(266,356,cs),
(281,356,o),
(306,354,o),
(317,308,c),
(321,307,o),
(324,306,o),
(330,306,cs),
(336,306,o),
(339,307,o),
(343,308,c),
(356,428,l),
(263,429,o),
(229,397,o),
(182,340,c),
(179,339,o),
(176,340,o),
(175,343,c),
(182,427,l),
(147,428,o),
(46,405,o),
(18,390,c),
(13,360,l),
(26,360,ls),
(66,360,o),
(94,355,o),
(98,303,cs),
(100,279,o),
(101,256,o),
(101,226,cs),
(101,195,o),
(100,156,o),
(98,115,cs),
(96,62,o),
(89,38,o),
(33,27,c),
(25,-3,l),
(96,0,o),
(120,0,o),
(154,0,cs),
(188,0,o),
(212,0,o),
(280,-3,c),
(288,27,l)
);
}
);
width = 381;
}
);
note = r;
unicode = 114;
},
{
glyphname = s;
layers = (
{
hints = (
{
horizontal = 1;
place = (383,43);
type = Stem;
},
{
horizontal = 1;
place = (-11,50);
type = Stem;
},
{
place = (237,81);
type = Stem;
},
{
place = (35,70);
type = Stem;
},
{
place = (27,37);
type = Stem;
}
);
layerId = m01;
shapes = (
{
closed = 1;
nodes = (
(311,408,l),
(287,417,o),
(206,426,o),
(194,426,cs),
(110,426,o),
(35,388,o),
(35,297,cs),
(35,238,o),
(95,205,o),
(148,176,cs),
(220,138,o),
(237,124,o),
(237,92,cs),
(237,52,o),
(209,39,o),
(168,39,cs),
(109,39,o),
(75,66,o),
(64,137,c),
(60,137,ls),
(51,137,o),
(35,134,o),
(29,127,c),
(25,15,l),
(49,0,o),
(99,-11,o),
(146,-11,cs),
(240,-11,o),
(318,32,o),
(318,117,cs),
(318,170,o),
(288,195,o),
(211,234,cs),
(132,274,o),
(105,294,o),
(105,330,cs),
(105,368,o),
(135,383,o),
(173,383,cs),
(220,383,o),
(247,359,o),
(259,296,c),
(262,294,o),
(268,292,o),
(277,292,cs),
(285,292,o),
(291,294,o),
(295,296,c)
);
}
);
width = 343;
}
);
note = s;
unicode = 115;
},
{
glyphname = longs;
layers = (
{
hints = (
{
horizontal = 1;
place = (656,62);
type = Stem;
},
{
horizontal = 1;
place = (0,27);
type = Stem;
},
{
horizontal = 1;
place = (-3,21);
target = up;
type = BottomGhost;
},
{
place = (102,79);
type = Stem;
}
);
layerId = m01;
shapes = (
{
closed = 1;
nodes = (
(185,62,l),
(181,115,o),
(181,198,o),
(181,303,cs),
(181,472,ls),
(181,564,o),
(207,656,o),
(277,656,cs),
(304,656,o),
(349,642,o),
(393,605,c),
(415,630,o),
(427,659,o),
(427,690,c),
(396,703,o),
(349,718,o),
(302,718,c),
(176,695,o),
(102,578,o),
(102,455,cs),
(102,358,ls),
(102,248,o),
(100,156,o),
(96,118,cs),
(91,75,o),
(77,44,o),
(29,27,c),
(25,-3,l),
(75,0,o),
(107,0,o),
(140,0,cs),
(173,0,o),
(215,0,o),
(267,-3,c),
(273,27,l)
);
}
);
width = 344;
}
);
note = longs;
unicode = 383;
},
{
glyphname = t;
layers = (
{
hints = (
{
horizontal = 1;
place = (353,64);
type = Stem;
},
{
horizontal = 1;
place = (-11,71);
type = Stem;
},
{
place = (98,78);
type = Stem;
}
);
layerId = m01;
shapes = (
{
closed = 1;
nodes = (
(176,567,l),
(157,565,o),
(110,539,o),
(98,527,c),
(98,408,l),
(30,401,l),
(27,393,o),
(25,382,o),
(25,370,cs),
(25,366,o),
(25,356,o),
(26,353,c),
(98,353,l),
(98,20,l),
(112,10,o),
(172,-11,o),
(196,-11,cs),
(226,-11,o),
(292,24,o),
(310,45,c),
(311,52,o),
(300,81,o),
(294,89,c),
(270,72,o),
(239,60,o),
(214,60,cs),
(202,60,o),
(180,63,o),
(176,64,c),
(176,353,l),
(306,353,l),
(313,366,o),
(317,393,o),
(317,411,cs),
(317,414,o),
(317,418,o),
(316,421,c),
(176,413,l)
);
}
);
width = 342;
}
);
note = t;
unicode = 116;
},
{
glyphname = u;
layers = (
{
hints = (
{
horizontal = 1;
place = (430,-20);
target = down;
type = TopGhost;
},
{
horizontal = 1;
place = (429,-20);
target = down;
type = TopGhost;
},
{
horizontal = 1;
place = (370,28);
type = Stem;
},
{
horizontal = 1;
place = (16,35);
type = Stem;
},
{
horizontal = 1;
place = (-7,65);
type = Stem;
},
{
horizontal = 1;
place = (-12,21);
target = up;
type = BottomGhost;
},
{
place = (365,78);
type = Stem;
},
{
place = (100,78);
type = Stem;
}
);
layerId = m01;
shapes = (
{
closed = 1;
nodes = (
(249,-7,o),
(335,40,o),
(362,63,c),
(364,41,o),
(374,8,o),
(386,-12,c),
(421,0,o),
(479,12,o),
(516,16,c),
(521,52,l),
(514,51,o),
(505,51,o),
(504,51,cs),
(468,51,o),
(451,65,o),
(446,98,cs),
(443,117,o),
(443,158,o),
(443,215,cs),
(443,289,o),
(447,379,o),
(456,430,c),
(422,430,o),
(329,415,o),
(286,399,c),
(280,368,l),
(289,370,o),
(299,371,o),
(307,371,cs),
(346,371,o),
(365,352,o),
(365,305,cs),
(365,212,ls),
(365,182,o),
(364,143,o),
(361,102,c),
(333,83,o),
(273,58,o),
(242,58,cs),
(210,58,o),
(190,88,o),
(184,118,cs),
(180,140,o),
(178,188,o),
(178,242,cs),
(178,306,o),
(179,383,o),
(186,429,c),
(153,429,o),
(59,412,o),
(26,398,c),
(20,368,l),
(26,369,o),
(33,370,o),
(40,370,cs),
(79,370,o),
(100,345,o),
(100,296,cs),
(100,229,ls),
(100,195,o),
(95,158,o),
(95,123,cs),
(95,63,o),
(111,-7,o),
(217,-7,cs)
);
}
);
width = 526;
}
);
note = u;
unicode = 117;
},
{
glyphname = v;
layers = (
{
hints = (
{
horizontal = 1;
place = (377,53);
type = Stem;
},
{
horizontal = 1;
place = (365,32);
type = Stem;
},
{
horizontal = 1;
place = (-7,21);
target = up;
type = BottomGhost;
},
{
place = (26,460);
type = Stem;
}
);
layerId = m01;
shapes = (
{
closed = 1;
nodes = (
(165,210,o),
(201,101,o),
(237,-7,c),
(254,-7,o),
(284,-3,o),
(297,5,c),
(326,75,ls),
(371,182,o),
(454,382,o),
(486,421,c),
(486,430,l),
(429,421,o),
(359,421,o),
(312,421,c),
(306,389,l),
(386,377,l),
(356,288,o),
(314,179,o),
(288,122,cs),
(287,120,o),
(285,119,o),
(282,119,c),
(282,119,o),
(280,119,o),
(279,121,cs),
(246,175,o),
(189,362,o),
(184,429,c),
(139,429,o),
(65,415,o),
(30,397,c),
(26,364,l),
(32,365,o),
(45,365,o),
(52,365,cs),
(84,365,o),
(105,345,o),
(120,313,cs)
);
}
);
width = 511;
}
);
note = v;
unicode = 118;
},
{
glyphname = w;
layers = (
{
hints = (
{
horizontal = 1;
place = (429,-20);
target = down;
type = TopGhost;
},
{
horizontal = 1;
place = (375,46);
type = Stem;
},
{
horizontal = 1;
place = (-7,21);
target = up;
type = BottomGhost;
},
{
place = (26,673);
type = Stem;
}
);
layerId = m01;
shapes = (
{
closed = 1;
nodes = (
(218,-7,l),
(222,-7,ls),
(233,-7,o),
(265,2,o),
(267,5,cs),
(383,232,l),
(465,-7,l),
(469,-7,l),
(481,-10,o),
(515,3,o),
(516,6,cs),
(547,93,o),
(663,379,o),
(699,421,c),
(699,428,l),
(653,421,o),
(560,421,o),
(516,421,c),
(510,391,l),
(596,375,l),
(570,287,o),
(537,203,o),
(503,118,c),
(501,115,o),
(498,114,o),
(497,115,c),
(451,215,o),
(423,335,o),
(406,429,c),
(361,429,o),
(307,413,o),
(274,399,c),
(268,368,l),
(309,373,o),
(339,351,o),
(352,316,cs),
(363,291,l),
(272,120,ls),
(270,117,o),
(268,116,o),
(267,118,cs),
(230,211,o),
(180,370,o),
(173,429,c),
(129,429,o),
(55,412,o),
(29,400,c),
(26,370,l),
(38,373,o),
(53,375,o),
(63,375,cs),
(85,375,o),
(102,352,o),
(118,302,cs)
);
}
);
width = 724;
}
);
note = w;
unicode = 119;
},
{
glyphname = x;
layers = (
{
hints = (
{
horizontal = 1;
place = (388,32);
type = Stem;
},
{
horizontal = 1;
place = (367,51);
type = Stem;
},
{
horizontal = 1;
place = (20,21);
type = Stem;
},
{
horizontal = 1;
place = (-6,33);
type = Stem;
},
{
horizontal = 1;
place = (-7,48);
type = Stem;
},
{
place = (25,477);
type = Stem;
}
);
layerId = m01;
shapes = (
{
closed = 1;
nodes = (
(227,208,l),
(123,87,ls),
(96,55,o),
(78,37,o),
(35,24,c),
(25,-6,l),
(83,2,o),
(140,0,o),
(216,-2,c),
(225,27,l),
(147,40,l),
(254,164,l),
(305,89,o),
(347,16,o),
(352,-7,c),
(397,-7,o),
(458,-2,o),
(496,20,c),
(502,49,l),
(462,34,o),
(418,40,o),
(395,76,cs),
(305,220,l),
(385,316,ls),
(416,354,o),
(441,385,o),
(475,392,c),
(479,425,l),
(427,421,o),
(349,421,o),
(312,421,c),
(305,392,l),
(371,385,l),
(275,265,l),
(249,305,o),
(210,372,o),
(200,418,c),
(134,418,o),
(98,416,o),
(46,395,c),
(54,364,l),
(87,375,o),
(124,358,o),
(145,328,cs)
);
}
);
width = 527;
}
);
note = x;
unicode = 120;
},
{
glyphname = y;
layers = (
{
hints = (
{
horizontal = 1;
place = (387,42);
type = Stem;
},
{
horizontal = 1;
place = (-255,91);
type = Stem;
},
{
place = (25,478);
type = Stem;
}
);
layerId = m01;
shapes = (
{
closed = 1;
nodes = (
(165,243,o),
(206,161,o),
(249,40,c),
(253,40,o),
(220,-39,o),
(190,-88,cs),
(165,-129,o),
(133,-164,o),
(74,-164,cs),
(65,-164,o),
(55,-163,o),
(45,-161,c),
(45,-196,o),
(88,-253,o),
(128,-255,c),
(201,-191,o),
(240,-118,o),
(319,41,cs),
(374,152,o),
(445,304,o),
(503,422,c),
(503,429,l),
(440,421,o),
(387,421,o),
(324,421,c),
(317,391,l),
(399,383,l),
(384,327,o),
(329,197,o),
(294,132,c),
(257,188,o),
(190,362,o),
(185,429,c),
(140,429,o),
(65,418,o),
(29,401,c),
(25,367,l),
(32,369,o),
(42,370,o),
(49,370,cs),
(82,370,o),
(102,352,o),
(121,319,cs)
);
}
);
width = 528;
}
);
note = y;
unicode = 121;
},
{
glyphname = z;
layers = (
{
hints = (
{
horizontal = 1;
place = (377,42);
type = Stem;
},
{
horizontal = 1;
place = (0,44);
type = Stem;
},
{
horizontal = 1;
place = (-4,21);
target = up;
type = BottomGhost;
},
{
place = (26,365);
type = Stem;
}
);
layerId = m01;
shapes = (
{
closed = 1;
nodes = (
(31,19,l),
(35,8,o),
(48,-1,o),
(57,-4,c),
(100,0,o),
(182,0,o),
(219,0,cs),
(257,0,o),
(315,-1,o),
(366,-4,c),
(391,132,l),
(383,138,o),
(368,141,o),
(358,141,c),
(335,66,o),
(318,45,o),
(250,44,cs),
(141,44,l),
(371,402,l),
(369,411,o),
(353,425,o),
(342,425,c),
(308,420,o),
(287,419,o),
(209,419,cs),
(161,419,o),
(106,421,o),
(54,434,c),
(26,293,l),
(36,287,o),
(48,285,o),
(61,289,c),
(84,371,o),
(100,377,o),
(149,377,cs),
(255,377,ls),
(261,377,o),
(262,374,o),
(258,369,cs)
);
}
);
width = 416;
}
);
note = z;
unicode = 122;
},
{
glyphname = f_b;
layers = (
{
hints = (
{
horizontal = 1;
place = (656,62);
type = Stem;
},
{
horizontal = 1;
place = (357,62);
type = Stem;
},
{
horizontal = 1;
place = (0,27);
type = Stem;
},
{
horizontal = 1;
place = (-11,51);
type = Stem;
},
{
horizontal = 1;
place = (-3,21);
target = up;
type = BottomGhost;
},
{
place = (696,84);
type = Stem;
},
{
place = (393,80);
type = Stem;
},
{
place = (108,78);
type = Stem;
}
);
layerId = m01;
shapes = (
{
closed = 1;
nodes = (
(422,2,o),
(472,-11,o),
(540,-11,cs),
(645,-11,o),
(780,87,o),
(780,239,cs),
(780,366,o),
(687,421,o),
(615,421,cs),
(603,421,o),
(505,386,o),
(473,369,c),
(473,479,ls),
(473,549,o),
(475,662,o),
(488,715,c),
(471,717,o),
(433,711,o),
(396,703,c),
(381,707,o),
(337,714,o),
(306,718,c),
(181,695,o),
(108,578,o),
(108,455,cs),
(108,408,l),
(41,400,l),
(40,396,o),
(39,386,o),
(39,371,cs),
(39,370,o),
(39,363,o),
(40,357,c),
(108,357,l),
(108,247,o),
(106,156,o),
(102,118,cs),
(97,75,o),
(83,44,o),
(35,27,c),
(31,-3,l),
(81,0,o),
(110,0,o),
(144,0,cs),
(177,0,o),
(221,0,o),
(273,-3,c),
(279,27,l),
(190,62,l),
(186,115,o),
(186,198,o),
(186,302,cs),
(186,357,l),
(320,357,l),
(327,373,o),
(330,395,o),
(330,416,cs),
(330,417,o),
(330,421,o),
(329,424,c),
(186,415,l),
(186,472,ls),
(186,564,o),
(210,656,o),
(270,656,cs),
(307,656,o),
(356,646,o),
(380,636,c),
(393,596,o),
(393,364,o),
(393,341,cs),
(393,223,o),
(390,89,o),
(380,35,c)
);
},
{
closed = 1;
nodes = (
(521,40,o),
(480,61,o),
(476,101,cs),
(473,136,o),
(473,172,o),
(473,206,cs),
(473,328,l),
(505,342,o),
(543,357,o),
(576,357,cs),
(648,357,o),
(696,285,o),
(696,203,cs),
(696,125,o),
(651,40,o),
(581,40,cs)
);
}
);
width = 834;
}
);
note = f_b;
},
{
glyphname = f_f;
layers = (
{
hints = (
{
horizontal = 1;
place = (656,62);
type = Stem;
},
{
horizontal = 1;
place = (634,62);
type = Stem;
},
{
horizontal = 1;
place = (358,52);
type = Stem;
},
{
horizontal = 1;
place = (0,27);
type = Stem;
},
{
horizontal = 1;
place = (-3,21);
target = up;
type = BottomGhost;
},
{
place = (378,78);
type = Stem;
},
{
place = (109,78);
type = Stem;
}
);
layerId = m01;
shapes = (
{
closed = 1;
nodes = (
(191,56,l),
(187,109,o),
(187,198,o),
(187,303,cs),
(187,358,l),
(378,358,l),
(378,248,o),
(374,166,o),
(372,125,cs),
(369,63,o),
(357,38,o),
(326,27,c),
(321,-3,l),
(371,0,o),
(388,0,o),
(421,0,cs),
(454,0,o),
(490,0,o),
(542,-3,c),
(548,27,l),
(460,62,l),
(456,115,o),
(456,198,o),
(456,303,cs),
(456,358,l),
(591,358,l),
(598,373,o),
(601,395,o),
(601,416,cs),
(601,417,o),
(601,421,o),
(600,424,c),
(456,418,l),
(456,472,ls),
(456,564,o),
(480,656,o),
(549,656,cs),
(579,656,o),
(614,638,o),
(620,585,c),
(626,583,o),
(635,582,o),
(642,582,cs),
(649,582,o),
(659,583,o),
(665,585,c),
(671,702,l),
(660,706,o),
(623,714,o),
(577,718,c),
(532,710,o),
(494,690,o),
(464,662,c),
(429,675,o),
(357,696,o),
(344,696,cs),
(217,696,o),
(109,588,o),
(109,455,cs),
(109,403,l),
(42,400,l),
(41,396,o),
(40,386,o),
(40,371,cs),
(40,370,o),
(40,363,o),
(41,358,c),
(109,358,l),
(109,248,o),
(107,166,o),
(103,128,cs),
(98,78,o),
(83,44,o),
(35,27,c),
(31,-3,l),
(81,0,o),
(108,0,o),
(142,0,cs),
(175,0,o),
(199,0,o),
(251,-3,c),
(257,27,l)
);
},
{
closed = 1;
nodes = (
(187,407,l),
(187,472,ls),
(187,572,o),
(236,634,o),
(306,634,cs),
(341,634,o),
(382,619,o),
(418,605,c),
(392,561,o),
(378,508,o),
(378,455,cs),
(378,414,l)
);
}
);
width = 633;
}
);
note = f_f;
unicode = 64256;
},
{
glyphname = f_f_b;
layers = (
{
hints = (
{
horizontal = 1;
place = (661,-20);
target = down;
type = TopGhost;
},
{
horizontal = 1;
place = (655,63);
type = Stem;
},
{
horizontal = 1;
place = (633,63);
type = Stem;
},
{
horizontal = 1;
place = (358,52);
type = Stem;
},
{
horizontal = 1;
place = (0,27);
type = Stem;
},
{
horizontal = 1;
place = (-11,51);
type = Stem;
},
{
horizontal = 1;
place = (-3,21);
target = up;
type = BottomGhost;
},
{
place = (966,84);
type = Stem;
},
{
place = (663,80);
type = Stem;
},
{
place = (378,80);
type = Stem;
},
{
place = (109,80);
type = Stem;
}
);
layerId = m01;
shapes = (
{
closed = 1;
nodes = (
(193,56,l),
(189,109,o),
(189,198,o),
(189,303,cs),
(189,358,l),
(378,358,l),
(378,248,o),
(374,166,o),
(372,125,cs),
(369,63,o),
(357,38,o),
(326,27,c),
(321,-3,l),
(371,0,o),
(388,0,o),
(421,0,cs),
(454,0,o),
(484,0,o),
(526,-3,c),
(531,27,l),
(462,56,l),
(458,109,o),
(458,198,o),
(458,303,cs),
(458,358,l),
(592,358,l),
(599,373,o),
(602,395,o),
(602,416,cs),
(602,417,o),
(602,421,o),
(601,424,c),
(458,418,l),
(458,472,ls),
(458,563,o),
(492,654,o),
(541,655,cs),
(578,655,o),
(626,645,o),
(650,635,c),
(662,588,o),
(663,406,o),
(663,345,cs),
(663,325,o),
(663,295,o),
(663,268,cs),
(661,171,o),
(658,78,o),
(650,35,c),
(692,2,o),
(742,-11,o),
(810,-11,cs),
(915,-11,o),
(1050,87,o),
(1050,239,cs),
(1050,366,o),
(957,421,o),
(885,421,cs),
(873,421,o),
(775,386,o),
(743,369,c),
(743,405,ls),
(743,528,o),
(746,661,o),
(759,715,c),
(728,715,o),
(698,710,o),
(667,703,c),
(644,711,o),
(603,716,o),
(576,718,c),
(535,710,o),
(496,691,o),
(465,661,c),
(430,675,o),
(357,696,o),
(344,696,cs),
(219,696,o),
(109,587,o),
(109,455,cs),
(109,403,l),
(42,400,l),
(41,396,o),
(40,386,o),
(40,371,cs),
(40,370,o),
(40,363,o),
(41,358,c),
(109,358,l),
(109,248,o),
(107,166,o),
(103,128,cs),
(98,78,o),
(83,44,o),
(35,27,c),
(31,-3,l),
(81,0,o),
(118,0,o),
(152,0,cs),
(186,0,o),
(200,0,o),
(252,-3,c),
(258,27,l)
);
},
{
closed = 1;
nodes = (
(189,407,l),
(189,472,ls),
(189,571,o),
(237,633,o),
(307,633,cs),
(341,633,o),
(382,618,o),
(419,604,c),
(391,559,o),
(378,507,o),
(378,455,cs),
(378,414,l)
);
},
{
closed = 1;
nodes = (
(791,40,o),
(750,61,o),
(746,101,cs),
(741,161,o),
(743,223,o),
(743,283,cs),
(743,329,l),
(775,343,o),
(813,358,o),
(846,358,cs),
(918,358,o),
(966,286,o),
(966,204,cs),
(966,125,o),
(921,40,o),
(851,40,cs)
);
}
);
width = 1106;
}
);
note = f_f_b;
},
{
glyphname = f_f_h;
layers = (
{
hints = (
{
horizontal = 1;
place = (662,-20);
target = down;
type = TopGhost;
},
{
horizontal = 1;
place = (656,62);
type = Stem;
},
{
horizontal = 1;
place = (634,62);
type = Stem;
},
{
horizontal = 1;
place = (361,65);
type = Stem;
},
{
horizontal = 1;
place = (358,52);
type = Stem;
},
{
horizontal = 1;
place = (0,27);
type = Stem;
},
{
horizontal = 1;
place = (-3,21);
target = up;
type = BottomGhost;
},
{
place = (943,79);
type = Stem;
},
{
place = (665,79);
type = Stem;
},
{
place = (378,79);
type = Stem;
},
{
place = (109,78);
type = Stem;
}
);
layerId = m01;
shapes = (
{
closed = 1;
nodes = (
(191,56,l),
(187,109,o),
(187,198,o),
(187,303,cs),
(187,358,l),
(378,358,l),
(378,248,o),
(374,166,o),
(372,125,cs),
(369,63,o),
(357,38,o),
(326,27,c),
(321,-3,l),
(371,0,o),
(388,0,o),
(421,0,cs),
(454,0,o),
(484,0,o),
(526,-3,c),
(531,27,l),
(461,56,l),
(457,109,o),
(457,198,o),
(457,303,cs),
(457,358,l),
(592,358,l),
(599,373,o),
(602,395,o),
(602,416,cs),
(602,417,o),
(602,421,o),
(601,424,c),
(457,418,l),
(457,472,ls),
(457,564,o),
(491,656,o),
(541,656,cs),
(579,656,o),
(628,646,o),
(653,636,c),
(665,597,o),
(665,432,o),
(665,388,cs),
(665,285,o),
(662,190,o),
(661,145,cs),
(659,78,o),
(643,48,o),
(602,27,c),
(597,-3,l),
(635,0,o),
(663,0,o),
(690,0,cs),
(717,0,o),
(756,0,o),
(795,-3,c),
(799,27,l),
(741,52,l),
(744,309,l),
(772,324,o),
(849,361,o),
(868,361,cs),
(886,361,o),
(943,328,o),
(943,275,cs),
(943,46,l),
(886,27,l),
(881,-3,l),
(914,0,o),
(960,0,o),
(984,0,cs),
(1008,0,o),
(1038,0,o),
(1084,-3,c),
(1090,27,l),
(1039,36,o),
(1029,59,o),
(1025,94,cs),
(1022,125,o),
(1022,179,o),
(1022,233,cs),
(1022,315,o),
(1018,425,o),
(911,426,cs),
(851,426,o),
(800,392,o),
(744,356,c),
(744,378,ls),
(744,486,o),
(740,608,o),
(757,715,c),
(739,715,o),
(705,710,o),
(672,702,c),
(661,706,o),
(624,714,o),
(578,718,c),
(537,710,o),
(495,691,o),
(464,662,c),
(429,675,o),
(357,696,o),
(344,696,cs),
(217,696,o),
(109,588,o),
(109,455,cs),
(109,403,l),
(42,400,l),
(41,396,o),
(40,386,o),
(40,371,cs),
(40,370,o),
(40,363,o),
(41,358,c),
(109,358,l),
(109,248,o),
(107,166,o),
(103,128,cs),
(98,78,o),
(83,44,o),
(35,27,c),
(31,-3,l),
(81,0,o),
(109,0,o),
(142,0,cs),
(175,0,o),
(200,0,o),
(252,-3,c),
(257,27,l)
);
},
{
closed = 1;
nodes = (
(187,407,l),
(187,472,ls),
(187,572,o),
(236,634,o),
(306,634,cs),
(341,634,o),
(382,619,o),
(418,605,c),
(391,560,o),
(378,507,o),
(378,455,cs),
(378,414,l)
);
}
);
width = 1112;
}
);
note = f_f_h;
},
{
glyphname = f_f_i;
layers = (
{
hints = (
{
horizontal = 1;
place = (656,62);
type = Stem;
},
{
horizontal = 1;
place = (634,62);
type = Stem;
},
{
horizontal = 1;
place = (358,51);
type = Stem;
},
{
horizontal = 1;
place = (0,27);
type = Stem;
},
{
horizontal = 1;
place = (-3,21);
target = up;
type = BottomGhost;
},
{
place = (661,79);
type = Stem;
},
{
place = (378,79);
type = Stem;
},
{
place = (109,79);
type = Stem;
}
);
layerId = m01;
shapes = (
{
closed = 1;
nodes = (
(192,56,l),
(188,109,o),
(188,198,o),
(188,303,cs),
(188,358,l),
(378,358,l),
(378,248,o),
(374,166,o),
(372,125,cs),
(369,63,o),
(357,38,o),
(326,27,c),
(321,-3,l),
(371,0,o),
(388,0,o),
(421,0,cs),
(454,0,o),
(484,0,o),
(526,-3,c),
(531,27,l),
(461,56,l),
(457,109,o),
(457,198,o),
(457,303,cs),
(457,358,l),
(594,358,ls),
(633,358,o),
(661,339,o),
(661,284,cs),
(661,133,ls),
(661,90,o),
(650,38,o),
(607,29,c),
(600,-2,l),
(641,0,o),
(673,0,o),
(703,0,cs),
(734,0,o),
(769,0,o),
(819,-3,c),
(825,27,l),
(740,56,l),
(740,110,ls),
(740,212,o),
(735,326,o),
(748,427,c),
(457,416,l),
(457,472,ls),
(457,542,o),
(471,656,o),
(557,656,cs),
(600,656,o),
(656,628,o),
(665,575,c),
(671,572,o),
(683,570,o),
(693,570,cs),
(703,570,o),
(717,572,o),
(723,575,c),
(732,695,l),
(703,703,o),
(624,714,o),
(577,718,c),
(532,710,o),
(494,690,o),
(464,662,c),
(429,675,o),
(357,696,o),
(344,696,cs),
(217,696,o),
(109,588,o),
(109,455,cs),
(109,403,l),
(42,400,l),
(41,396,o),
(40,386,o),
(40,371,cs),
(40,370,o),
(40,363,o),
(41,358,c),
(109,358,l),
(109,248,o),
(107,166,o),
(103,128,cs),
(98,78,o),
(83,44,o),
(35,27,c),
(31,-3,l),
(81,0,o),
(109,0,o),
(142,0,cs),
(175,0,o),
(200,0,o),
(252,-3,c),
(258,27,l)
);
},
{
closed = 1;
nodes = (
(188,406,l),
(188,472,ls),
(188,572,o),
(237,634,o),
(307,634,cs),
(342,634,o),
(382,619,o),
(418,605,c),
(391,560,o),
(378,507,o),
(378,455,cs),
(378,413,l)
);
}
);
width = 840;
}
);
note = f_f_i;
unicode = 64259;
},
{
glyphname = f_f_j;
layers = (
{
hints = (
{
horizontal = 1;
place = (656,62);
type = Stem;
},
{
horizontal = 1;
place = (634,62);
type = Stem;
},
{
horizontal = 1;
place = (358,51);
type = Stem;
},
{
horizontal = 1;
place = (0,27);
type = Stem;
},
{
horizontal = 1;
place = (-251,44);
type = Stem;
},
{
horizontal = 1;
place = (-3,21);
target = up;
type = BottomGhost;
},
{
place = (662,78);
type = Stem;
},
{
place = (378,78);
type = Stem;
},
{
place = (109,78);
type = Stem;
}
);
layerId = m01;
shapes = (
{
closed = 1;
nodes = (
(191,56,l),
(187,109,o),
(187,198,o),
(187,303,cs),
(187,358,l),
(378,358,l),
(378,248,o),
(374,166,o),
(372,125,cs),
(369,63,o),
(357,38,o),
(326,27,c),
(321,-3,l),
(371,0,o),
(388,0,o),
(421,0,cs),
(454,0,o),
(470,0,o),
(526,-3,c),
(531,27,l),
(460,56,l),
(456,109,o),
(456,198,o),
(456,303,cs),
(456,358,l),
(595,358,ls),
(625,358,o),
(648,347,o),
(656,330,c),
(662,262,o),
(662,194,o),
(662,126,cs),
(662,9,o),
(665,-213,o),
(520,-207,c),
(521,-215,o),
(552,-251,o),
(558,-251,c),
(711,-177,o),
(740,-67,o),
(740,7,cs),
(740,249,ls),
(740,304,o),
(738,373,o),
(746,427,c),
(456,416,l),
(456,472,ls),
(456,542,o),
(471,656,o),
(558,656,cs),
(601,656,o),
(655,628,o),
(664,575,c),
(670,572,o),
(682,570,o),
(692,570,cs),
(701,570,o),
(715,572,o),
(721,575,c),
(730,695,l),
(701,703,o),
(625,714,o),
(578,718,c),
(532,710,o),
(494,690,o),
(464,662,c),
(429,675,o),
(357,696,o),
(344,696,cs),
(217,696,o),
(109,588,o),
(109,455,cs),
(109,403,l),
(42,400,l),
(41,396,o),
(40,386,o),
(40,371,cs),
(40,370,o),
(40,363,o),
(41,358,c),
(109,358,l),
(109,248,o),
(107,166,o),
(103,128,cs),
(98,78,o),
(83,44,o),
(35,27,c),
(31,-3,l),
(81,0,o),
(109,0,o),
(142,0,cs),
(175,0,o),
(200,0,o),
(252,-3,c),
(257,27,l)
);
},
{
closed = 1;
nodes = (
(187,406,l),
(187,472,ls),
(187,572,o),
(236,634,o),
(306,634,cs),
(341,634,o),
(382,619,o),
(418,605,c),
(391,560,o),
(378,507,o),
(378,455,cs),
(378,413,l)
);
}
);
width = 817;
}
);
note = f_f_j;
},
{
glyphname = f_f_k;
layers = (
{
hints = (
{
horizontal = 1;
place = (687,-20);
target = down;
type = TopGhost;
},
{
horizontal = 1;
place = (655,63);
type = Stem;
},
{
horizontal = 1;
place = (634,62);
type = Stem;
},
{
horizontal = 1;
place = (391,29);
type = Stem;
},
{
horizontal = 1;
place = (357,53);
type = Stem;
},
{
horizontal = 1;
place = (0,27);
type = Stem;
},
{
horizontal = 1;
place = (-3,21);
target = up;
type = BottomGhost;
},
{
horizontal = 1;
place = (-10,21);
target = up;
type = BottomGhost;
},
{
place = (662,81);
type = Stem;
},
{
place = (378,79);
type = Stem;
},
{
place = (109,78);
type = Stem;
}
);
layerId = m01;
shapes = (
{
closed = 1;
nodes = (
(191,56,l),
(187,109,o),
(187,198,o),
(187,303,cs),
(187,357,l),
(378,357,l),
(378,248,o),
(374,166,o),
(372,125,cs),
(369,63,o),
(357,38,o),
(326,27,c),
(321,-3,l),
(371,0,o),
(388,0,o),
(421,0,cs),
(454,0,o),
(484,0,o),
(526,-3,c),
(531,27,l),
(461,56,l),
(457,109,o),
(457,198,o),
(457,303,cs),
(457,357,l),
(592,357,l),
(599,372,o),
(602,394,o),
(602,416,cs),
(602,417,o),
(602,421,o),
(601,424,c),
(457,418,l),
(457,471,ls),
(457,524,o),
(476,655,o),
(541,655,cs),
(571,655,o),
(622,648,o),
(650,637,c),
(662,547,o),
(662,450,o),
(662,358,cs),
(662,132,ls),
(662,86,o),
(653,38,o),
(598,27,c),
(592,-3,l),
(644,0,o),
(664,0,o),
(695,0,cs),
(726,0,o),
(749,0,o),
(789,-3,c),
(795,27,l),
(743,46,l),
(743,173,l),
(798,220,l),
(810,174,o),
(875,28,o),
(946,-10,c),
(973,-3,o),
(1026,0,o),
(1060,0,c),
(1069,32,l),
(976,43,o),
(909,144,o),
(874,209,cs),
(847,259,l),
(863,274,o),
(946,384,o),
(1018,391,cs),
(1028,392,l),
(1037,424,l),
(999,421,o),
(970,421,o),
(931,421,cs),
(891,421,o),
(881,421,o),
(837,424,c),
(829,392,l),
(882,379,l),
(860,332,o),
(768,255,o),
(743,236,c),
(743,405,ls),
(743,489,o),
(739,608,o),
(760,687,c),
(701,702,o),
(638,713,o),
(577,718,c),
(532,710,o),
(494,690,o),
(464,662,c),
(429,675,o),
(357,696,o),
(344,696,cs),
(217,696,o),
(109,588,o),
(109,455,cs),
(109,403,l),
(42,400,l),
(41,396,o),
(40,386,o),
(40,371,cs),
(40,370,o),
(40,362,o),
(41,357,c),
(109,357,l),
(109,247,o),
(107,166,o),
(103,131,cs),
(98,78,o),
(83,44,o),
(35,27,c),
(31,-3,l),
(81,0,o),
(109,0,o),
(142,0,cs),
(175,0,o),
(200,0,o),
(252,-3,c),
(257,27,l)
);
},
{
closed = 1;
nodes = (
(187,407,l),
(187,472,ls),
(187,572,o),
(236,634,o),
(306,634,cs),
(341,634,o),
(382,619,o),
(418,605,c),
(391,560,o),
(378,507,o),
(378,455,cs),
(378,414,l)
);
}
);
width = 1069;
}
);
note = f_f_k;
},
{
glyphname = f_f_l;
layers = (
{
hints = (
{
horizontal = 1;
place = (656,62);
type = Stem;
},
{
horizontal = 1;
place = (634,62);
type = Stem;
},
{
horizontal = 1;
place = (358,52);
type = Stem;
},
{
horizontal = 1;
place = (0,27);
type = Stem;
},
{
horizontal = 1;
place = (-3,21);
target = up;
type = BottomGhost;
},
{
place = (664,79);
type = Stem;
},
{
place = (378,79);
type = Stem;
},
{
place = (109,79);
type = Stem;
}
);
layerId = m01;
shapes = (
{
closed = 1;
nodes = (
(192,56,l),
(188,109,o),
(188,198,o),
(188,303,cs),
(188,358,l),
(378,358,l),
(378,248,o),
(374,166,o),
(372,125,cs),
(369,63,o),
(357,38,o),
(326,27,c),
(321,-3,l),
(371,0,o),
(388,0,o),
(421,0,cs),
(453,0,o),
(484,0,o),
(526,-3,c),
(531,27,l),
(461,56,l),
(457,109,o),
(457,198,o),
(457,303,cs),
(457,358,l),
(592,358,l),
(599,373,o),
(602,395,o),
(602,416,cs),
(602,417,o),
(602,421,o),
(601,424,c),
(457,418,l),
(457,472,ls),
(457,564,o),
(491,656,o),
(541,656,cs),
(579,656,o),
(628,646,o),
(652,636,c),
(660,572,o),
(664,440,o),
(664,376,cs),
(664,277,o),
(663,175,o),
(660,132,cs),
(657,85,o),
(647,35,o),
(599,28,c),
(591,-3,l),
(639,0,o),
(668,0,o),
(700,0,cs),
(732,0,o),
(770,0,o),
(822,-3,c),
(829,27,l),
(745,56,l),
(744,103,o),
(743,191,o),
(743,283,cs),
(743,405,ls),
(743,528,o),
(746,662,o),
(759,715,c),
(742,717,o),
(705,711,o),
(669,703,c),
(645,711,o),
(603,716,o),
(577,718,c),
(532,710,o),
(494,690,o),
(464,662,c),
(429,675,o),
(357,696,o),
(344,696,cs),
(218,696,o),
(109,588,o),
(109,455,cs),
(109,403,l),
(42,400,l),
(41,396,o),
(40,386,o),
(40,371,cs),
(40,370,o),
(40,363,o),
(41,358,c),
(109,358,l),
(109,248,o),
(107,166,o),
(103,128,cs),
(98,78,o),
(83,44,o),
(35,27,c),
(31,-3,l),
(81,0,o),
(108,0,o),
(142,0,cs),
(175,0,o),
(200,0,o),
(252,-3,c),
(258,27,l)
);
},
{
closed = 1;
nodes = (
(188,407,l),
(188,472,ls),
(188,572,o),
(237,634,o),
(306,634,cs),
(341,634,o),
(382,619,o),
(418,605,c),
(391,560,o),
(378,507,o),
(378,455,cs),
(378,414,l)
);
}
);
width = 841;
}
);
note = f_f_l;
unicode = 64260;
},
{
glyphname = f_h;
layers = (
{
hints = (
{
horizontal = 1;
place = (656,62);
type = Stem;
},
{
horizontal = 1;
place = (361,65);
type = Stem;
},
{
horizontal = 1;
place = (358,61);
type = Stem;
},
{
horizontal = 1;
place = (0,27);
type = Stem;
},
{
horizontal = 1;
place = (-3,21);
target = up;
type = BottomGhost;
},
{
place = (672,79);
type = Stem;
},
{
place = (394,79);
type = Stem;
},
{
place = (108,78);
type = Stem;
}
);
layerId = m01;
shapes = (
{
closed = 1;
nodes = (
(190,56,l),
(186,109,o),
(186,198,o),
(186,303,cs),
(186,358,l),
(321,358,l),
(328,373,o),
(331,395,o),
(331,416,cs),
(331,417,o),
(331,421,o),
(330,424,c),
(186,415,l),
(186,472,ls),
(186,564,o),
(210,656,o),
(270,656,cs),
(308,656,o),
(357,646,o),
(382,636,c),
(394,597,o),
(394,432,o),
(394,388,cs),
(394,285,o),
(391,190,o),
(390,145,cs),
(388,78,o),
(379,38,o),
(336,27,c),
(331,-3,l),
(377,0,o),
(402,0,o),
(431,0,cs),
(460,0,o),
(475,0,o),
(524,-3,c),
(528,27,l),
(470,52,l),
(473,309,l),
(501,324,o),
(578,361,o),
(597,361,cs),
(636,361,o),
(672,318,o),
(672,265,cs),
(672,46,l),
(615,27,l),
(610,-3,l),
(643,0,o),
(678,0,o),
(712,0,cs),
(746,0,o),
(768,0,o),
(813,-3,c),
(819,27,l),
(768,36,o),
(758,59,o),
(755,91,cs),
(751,125,o),
(751,179,o),
(751,233,cs),
(751,333,o),
(735,426,o),
(635,426,cs),
(573,426,o),
(529,392,o),
(473,356,c),
(473,378,ls),
(473,486,o),
(469,608,o),
(486,715,c),
(468,715,o),
(434,710,o),
(401,702,c),
(390,706,o),
(353,714,o),
(307,718,c),
(181,695,o),
(108,578,o),
(108,455,cs),
(108,408,l),
(41,400,l),
(40,396,o),
(39,386,o),
(39,371,cs),
(39,370,o),
(39,363,o),
(40,358,c),
(108,358,l),
(108,248,o),
(107,166,o),
(103,128,cs),
(98,78,o),
(83,44,o),
(35,27,c),
(31,-3,l),
(81,0,o),
(111,0,o),
(144,0,cs),
(177,0,o),
(200,0,o),
(252,-3,c),
(258,27,l)
);
}
);
width = 839;
}
);
note = f_h;
},
{
glyphname = f_j;
layers = (
{
hints = (
{
horizontal = 1;
place = (656,62);
type = Stem;
},
{
horizontal = 1;
place = (358,47);
type = Stem;
},
{
horizontal = 1;
place = (0,27);
type = Stem;
},
{
horizontal = 1;
place = (-251,44);
type = Stem;
},
{
horizontal = 1;
place = (-3,21);
target = up;
type = BottomGhost;
},
{
place = (393,79);
type = Stem;
},
{
place = (108,78);
type = Stem;
}
);
layerId = m01;
shapes = (
{
closed = 1;
nodes = (
(190,62,l),
(186,115,o),
(186,198,o),
(186,303,cs),
(186,358,l),
(325,358,ls),
(355,358,o),
(378,347,o),
(386,330,c),
(396,254,o),
(393,187,o),
(393,131,cs),
(393,28,o),
(403,-214,o),
(252,-207,c),
(253,-215,o),
(284,-251,o),
(290,-251,c),
(443,-177,o),
(472,-67,o),
(472,7,cs),
(472,249,ls),
(472,302,o),
(472,354,o),
(474,392,cs),
(475,405,o),
(476,417,o),
(477,427,c),
(455,427,o),
(304,418,o),
(185,410,c),
(186,472,ls),
(187,564,o),
(212,656,o),
(289,656,cs),
(331,656,o),
(385,628,o),
(394,575,c),
(400,572,o),
(412,570,o),
(422,570,cs),
(432,570,o),
(446,572,o),
(452,575,c),
(461,695,l),
(432,703,o),
(355,714,o),
(309,718,c),
(183,695,o),
(108,578,o),
(108,455,cs),
(108,405,l),
(73,403,o),
(49,401,o),
(41,400,c),
(40,396,o),
(39,386,o),
(39,371,cs),
(39,370,o),
(39,363,o),
(40,358,c),
(108,358,l),
(108,248,o),
(107,166,o),
(103,128,cs),
(98,78,o),
(83,44,o),
(35,27,c),
(31,-3,l),
(81,0,o),
(111,0,o),
(144,0,cs),
(177,0,o),
(211,0,o),
(273,-3,c),
(279,27,l)
);
}
);
width = 545;
}
);
note = f_j;
},
{
glyphname = f_k;
layers = (
{
hints = (
{
horizontal = 1;
place = (656,62);
type = Stem;
},
{
horizontal = 1;
place = (391,29);
type = Stem;
},
{
horizontal = 1;
place = (358,61);
type = Stem;
},
{
horizontal = 1;
place = (0,27);
type = Stem;
},
{
horizontal = 1;
place = (-3,21);
target = up;
type = BottomGhost;
},
{
horizontal = 1;
place = (-10,21);
target = up;
type = BottomGhost;
},
{
place = (395,80);
type = Stem;
},
{
place = (112,78);
type = Stem;
}
);
layerId = m01;
shapes = (
{
closed = 1;
nodes = (
(527,27,l),
(475,46,l),
(475,174,l),
(530,220,l),
(542,174,o),
(607,28,o),
(678,-10,c),
(705,-3,o),
(758,0,o),
(792,0,c),
(801,32,l),
(708,43,o),
(640,145,o),
(606,209,cs),
(579,259,l),
(595,274,o),
(678,384,o),
(750,391,cs),
(760,392,l),
(769,424,l),
(751,421,o),
(702,421,o),
(663,421,cs),
(623,421,o),
(613,421,o),
(569,424,c),
(561,392,l),
(614,379,l),
(592,332,o),
(499,255,o),
(475,236,c),
(475,398,ls),
(475,506,o),
(477,628,o),
(493,688,c),
(437,702,o),
(364,713,o),
(311,718,c),
(185,695,o),
(112,578,o),
(112,455,cs),
(112,408,l),
(45,400,l),
(44,396,o),
(43,386,o),
(43,371,cs),
(43,370,o),
(43,363,o),
(44,358,c),
(112,358,l),
(112,248,o),
(111,166,o),
(107,128,cs),
(102,78,o),
(87,44,o),
(39,27,c),
(35,-3,l),
(85,0,o),
(115,0,o),
(148,0,cs),
(181,0,o),
(204,0,o),
(256,-3,c),
(262,27,l),
(194,56,l),
(190,109,o),
(190,198,o),
(190,303,cs),
(190,358,l),
(325,358,l),
(332,373,o),
(335,395,o),
(335,416,cs),
(335,417,o),
(335,421,o),
(334,424,c),
(190,415,l),
(190,472,ls),
(190,564,o),
(222,656,o),
(274,656,cs),
(315,656,o),
(360,645,o),
(383,639,c),
(394,574,o),
(395,452,o),
(395,361,cs),
(395,270,o),
(395,190,o),
(394,145,cs),
(392,78,o),
(384,38,o),
(340,27,c),
(335,-3,l),
(381,0,o),
(403,0,o),
(434,0,cs),
(466,0,o),
(481,0,o),
(521,-3,c)
);
}
);
width = 801;
}
);
note = f_k;
},
{
glyphname = f_y;
layers = (
{
hints = (
{
horizontal = 1;
place = (656,62);
type = Stem;
},
{
horizontal = 1;
place = (374,45);
type = Stem;
},
{
horizontal = 1;
place = (364,56);
type = Stem;
},
{
horizontal = 1;
place = (359,49);
type = Stem;
},
{
horizontal = 1;
place = (0,27);
type = Stem;
},
{
horizontal = 1;
place = (-3,21);
target = up;
type = BottomGhost;
},
{
place = (108,79);
type = Stem;
}
);
layerId = m01;
shapes = (
{
closed = 1;
nodes = (
(191,62,l),
(187,115,o),
(187,198,o),
(187,303,cs),
(187,363,l),
(359,366,ls),
(390,367,o),
(403,351,o),
(416,320,cs),
(447,246,o),
(509,124,o),
(543,15,c),
(547,15,o),
(502,-89,o),
(466,-141,cs),
(438,-181,o),
(407,-202,o),
(356,-221,c),
(367,-255,o),
(401,-280,o),
(435,-287,c),
(512,-200,o),
(614,12,o),
(653,104,cs),
(702,220,o),
(754,328,o),
(799,420,c),
(799,427,l),
(736,419,o),
(673,416,o),
(610,412,c),
(610,405,o),
(612,383,o),
(615,377,c),
(693,371,l),
(678,315,o),
(628,187,o),
(593,122,c),
(556,178,o),
(489,360,o),
(484,427,c),
(187,415,l),
(187,472,ls),
(187,564,o),
(211,656,o),
(280,656,cs),
(310,656,o),
(345,638,o),
(351,585,c),
(357,583,o),
(366,582,o),
(373,582,cs),
(380,582,o),
(390,583,o),
(396,585,c),
(402,702,l),
(391,706,o),
(354,714,o),
(308,718,c),
(182,695,o),
(108,578,o),
(108,455,cs),
(108,410,l),
(41,406,l),
(40,402,o),
(39,392,o),
(39,377,cs),
(39,376,o),
(39,363,o),
(40,358,c),
(108,360,l),
(108,250,o),
(106,156,o),
(102,118,cs),
(97,75,o),
(83,44,o),
(35,27,c),
(31,-3,l),
(81,0,o),
(113,0,o),
(146,0,cs),
(179,0,o),
(221,0,o),
(273,-3,c),
(279,27,l)
);
}
);
width = 805;
}
);
note = f_y;
},
{
glyphname = fi;
layers = (
{
hints = (
{
horizontal = 1;
place = (656,62);
type = Stem;
},
{
horizontal = 1;
place = (358,47);
type = Stem;
},
{
horizontal = 1;
place = (0,27);
type = Stem;
},
{
horizontal = 1;
place = (-3,21);
target = up;
type = BottomGhost;
},
{
place = (392,79);
type = Stem;
},
{
place = (108,78);
type = Stem;
}
);
layerId = m01;
shapes = (
{
closed = 1;
nodes = (
(190,56,l),
(186,109,o),
(186,198,o),
(186,303,cs),
(186,358,l),
(325,358,ls),
(364,358,o),
(392,339,o),
(392,284,cs),
(392,133,ls),
(392,90,o),
(385,42,o),
(336,27,c),
(331,-3,l),
(377,0,o),
(402,0,o),
(432,0,cs),
(463,0,o),
(498,0,o),
(548,-3,c),
(554,27,l),
(471,56,l),
(471,110,ls),
(471,212,o),
(466,326,o),
(479,427,c),
(457,427,o),
(304,418,o),
(185,410,c),
(186,472,ls),
(187,564,o),
(212,656,o),
(289,656,cs),
(331,656,o),
(385,628,o),
(394,575,c),
(400,572,o),
(414,570,o),
(424,570,cs),
(434,570,o),
(448,572,o),
(454,575,c),
(463,695,l),
(434,703,o),
(355,714,o),
(309,718,c),
(183,695,o),
(108,578,o),
(108,455,cs),
(108,405,l),
(73,403,o),
(49,401,o),
(41,400,c),
(40,396,o),
(39,386,o),
(39,371,cs),
(39,370,o),
(39,363,o),
(40,358,c),
(108,358,l),
(108,248,o),
(107,166,o),
(103,128,cs),
(98,78,o),
(83,44,o),
(35,27,c),
(31,-3,l),
(81,0,o),
(111,0,o),
(144,0,cs),
(177,0,o),
(193,0,o),
(252,-3,c),
(258,27,l)
);
}
);
width = 565;
}
);
note = fi;
unicode = 64257;
},
{
glyphname = fl;
layers = (
{
hints = (
{
horizontal = 1;
place = (656,62);
type = Stem;
},
{
horizontal = 1;
place = (358,61);
type = Stem;
},
{
horizontal = 1;
place = (0,27);
type = Stem;
},
{
horizontal = 1;
place = (-3,21);
target = up;
type = BottomGhost;
},
{
place = (391,79);
type = Stem;
},
{
place = (108,78);
type = Stem;
}
);
layerId = m01;
shapes = (
{
closed = 1;
nodes = (
(190,56,l),
(186,109,o),
(186,198,o),
(186,303,cs),
(186,358,l),
(321,358,l),
(328,373,o),
(331,395,o),
(331,416,cs),
(331,417,o),
(331,421,o),
(330,424,c),
(186,415,l),
(186,472,ls),
(186,564,o),
(220,656,o),
(270,656,cs),
(308,656,o),
(357,646,o),
(381,636,c),
(389,572,o),
(391,440,o),
(391,376,cs),
(391,277,o),
(387,166,o),
(385,125,cs),
(382,63,o),
(370,38,o),
(339,27,c),
(334,-3,l),
(377,0,o),
(398,0,o),
(430,0,cs),
(462,0,o),
(506,-1,o),
(550,-3,c),
(557,27,l),
(473,56,l),
(472,103,o),
(470,191,o),
(470,283,cs),
(470,405,ls),
(470,528,o),
(473,662,o),
(486,715,c),
(469,717,o),
(434,711,o),
(396,703,c),
(383,708,o),
(348,714,o),
(307,718,c),
(181,695,o),
(108,578,o),
(108,455,cs),
(108,408,l),
(41,400,l),
(40,396,o),
(39,386,o),
(39,371,cs),
(39,370,o),
(39,363,o),
(40,358,c),
(108,358,l),
(108,248,o),
(107,166,o),
(103,128,cs),
(98,78,o),
(83,44,o),
(35,27,c),
(31,-3,l),
(81,0,o),
(108,0,o),
(141,0,cs),
(174,0,o),
(198,0,o),
(250,-3,c),
(256,27,l)
);
}
);
width = 580;
}
);
note = fl;
unicode = 64258;
},
{
glyphname = ordfeminine.onum;
layers = (
{
hints = (
{
horizontal = 1;
place = (430,-20);
target = down;
type = TopGhost;
},
{
horizontal = 1;
place = (522,42);
type = Stem;
},
{
horizontal = 1;
place = (282,28);
type = Stem;
},
{
place = (185,63);
type = Stem;
},
{
place = (36,37);
type = Stem;
},
{
place = (18,63);
type = Stem;
}
);
layerId = m01;
shapes = (
{
closed = 1;
nodes = (
(185,340,l),
(162,321,o),
(131,316,o),
(104,316,c),
(84,328,o),
(81,333,o),
(81,344,cs),
(81,351,o),
(82,365,o),
(85,371,c),
(102,380,o),
(151,393,o),
(185,400,c)
);
},
{
closed = 1;
nodes = (
(166,522,o),
(185,492,o),
(185,430,c),
(156,426,o),
(58,400,o),
(31,383,c),
(20,365,o),
(18,350,o),
(18,338,cs),
(18,293,o),
(44,272,o),
(82,263,c),
(186,302,l),
(187,289,o),
(190,277,o),
(199,264,c),
(223,273,o),
(277,280,o),
(303,282,c),
(304,285,o),
(305,292,o),
(305,296,cs),
(305,301,o),
(304,307,o),
(303,310,c),
(280,310,o),
(248,325,o),
(248,354,cs),
(248,459,ls),
(248,516,o),
(218,564,o),
(156,564,cs),
(125,564,o),
(72,551,o),
(36,531,c),
(36,459,l),
(41,457,o),
(48,456,o),
(55,456,cs),
(62,456,o),
(69,457,o),
(73,459,c),
(88,512,l),
(96,515,o),
(118,522,o),
(134,522,cs)
);
}
);
width = 327;
}
);
note = ordfeminine.onum;
},
{
glyphname = ordmasculine.onum;
layers = (
{
layerId = m01;
shapes = (
{
closed = 1;
nodes = (
(26,342,o),
(70,261,o),
(164,261,cs),
(240,261,o),
(325,314,o),
(325,414,cs),
(325,490,o),
(277,560,o),
(181,560,cs),
(95,560,o),
(26,502,o),
(26,402,cs)
);
},
{
closed = 1;
nodes = (
(235,517,o),
(257,458,o),
(257,402,cs),
(257,356,o),
(243,307,o),
(177,307,cs),
(110,307,o),
(94,359,o),
(94,412,cs),
(94,480,o),
(121,517,o),
(172,517,cs)
);
}
);
width = 354;
}
);
note = ordmasculine.onum;
},
{
glyphname = zero;
layers = (
{
hints = (
{
horizontal = 1;
place = (599,61);
type = Stem;
},
{
horizontal = 1;
place = (-11,61);
type = Stem;
},
{
place = (401,93);
type = Stem;
},
{
place = (56,88);
type = Stem;
}
);
layerId = m01;
shapes = (
{
closed = 1;
nodes = (
(56,166,o),
(95,-11,o),
(264,-11,cs),
(407,-11,o),
(494,115,o),
(494,353,cs),
(494,512,o),
(442,660,o),
(281,660,cs),
(150,660,o),
(56,510,o),
(56,335,cs)
);
},
{
closed = 1;
nodes = (
(369,599,o),
(401,453,o),
(401,317,cs),
(401,196,o),
(388,50,o),
(290,50,cs),
(191,50,o),
(144,200,o),
(144,338,cs),
(144,455,o),
(178,599,o),
(273,599,cs)
);
}
);
width = 539;
}
);
note = zero;
unicode = 48;
},
{
glyphname = one;
layers = (
{
hints = (
{
horizontal = 1;
place = (661,-20);
target = down;
type = TopGhost;
},
{
horizontal = 1;
place = (0,37);
type = Stem;
},
{
horizontal = 1;
place = (-3,21);
target = up;
type = BottomGhost;
},
{
place = (191,84);
type = Stem;
}
);
layerId = m01;
shapes = (
{
closed = 1;
nodes = (
(407,37,l),
(279,60,l),
(276,146,o),
(275,249,o),
(275,341,cs),
(275,470,o),
(277,587,o),
(285,661,c),
(242,638,o),
(73,568,o),
(31,559,c),
(29,553,o),
(28,508,o),
(28,498,c),
(191,546,l),
(191,131,ls),
(191,68,o),
(94,48,o),
(37,37,c),
(30,-3,l),
(96,0,o),
(154,0,o),
(220,0,cs),
(286,0,o),
(332,0,o),
(400,-3,c)
);
}
);
width = 430;
}
);
note = one;
unicode = 49;
},
{
glyphname = two;
layers = (
{
hints = (
{
horizontal = 1;
place = (600,67);
type = Stem;
},
{
horizontal = 1;
place = (0,58);
type = Stem;
},
{
horizontal = 1;
place = (-3,21);
target = up;
type = BottomGhost;
},
{
place = (330,96);
type = Stem;
}
);
layerId = m01;
shapes = (
{
closed = 1;
nodes = (
(25,30,l),
(30,16,o),
(48,-1,o),
(60,-3,c),
(117,0,o),
(191,0,o),
(239,0,cs),
(287,0,o),
(363,-2,o),
(427,-5,c),
(459,156,l),
(453,161,o),
(432,165,o),
(422,165,c),
(402,96,o),
(377,65,o),
(297,62,cs),
(130,54,l),
(224,153,o),
(426,363,o),
(426,505,cs),
(426,615,o),
(357,667,o),
(231,667,cs),
(202,667,o),
(69,606,o),
(39,582,c),
(57,451,l),
(61,450,o),
(69,448,o),
(77,448,cs),
(85,448,o),
(94,450,o),
(97,451,c),
(130,564,l),
(157,582,o),
(200,600,o),
(229,600,cs),
(273,600,o),
(330,559,o),
(330,475,cs),
(330,410,o),
(247,295,o),
(67,81,cs)
);
}
);
width = 484;
}
);
note = two;
unicode = 50;
},
{
glyphname = three;
layers = (
{
hints = (
{
horizontal = 1;
place = (601,66);
type = Stem;
},
{
horizontal = 1;
place = (309,50);
type = Stem;
},
{
horizontal = 1;
place = (-11,59);
type = Stem;
},
{
place = (350,90);
type = Stem;
},
{
place = (328,85);
type = Stem;
}
);
layerId = m01;
shapes = (
{
closed = 1;
nodes = (
(151,353,o),
(141,319,o),
(140,309,c),
(191,309,ls),
(268,309,o),
(350,286,o),
(350,184,cs),
(350,119,o),
(316,48,o),
(231,48,cs),
(159,48,o),
(117,73,o),
(87,145,c),
(79,145,o),
(39,135,o),
(38,133,c),
(74,3,l),
(92,-3,o),
(133,-11,o),
(164,-11,cs),
(312,-11,o),
(440,40,o),
(440,212,cs),
(440,334,o),
(343,353,o),
(297,359,c),
(323,370,o),
(413,428,o),
(413,513,cs),
(413,616,o),
(355,667,o),
(221,667,cs),
(193,667,o),
(92,619,o),
(62,595,c),
(82,499,l),
(86,498,o),
(94,496,o),
(102,496,cs),
(110,496,o),
(119,498,o),
(122,499,c),
(141,574,l),
(163,591,o),
(200,601,o),
(228,601,cs),
(279,601,o),
(328,566,o),
(328,495,cs),
(328,396,o),
(231,366,o),
(156,361,c)
);
}
);
width = 490;
}
);
note = three;
unicode = 51;
},
{
glyphname = four;
layers = (
{
hints = (
{
horizontal = 1;
place = (177,77);
type = Stem;
},
{
horizontal = 1;
place = (0,35);
type = Stem;
},
{
horizontal = 1;
place = (-3,21);
target = up;
type = BottomGhost;
},
{
place = (284,79);
type = Stem;
}
);
layerId = m01;
shapes = (
{
closed = 1;
nodes = (
(363,61,l),
(363,177,l),
(470,177,l),
(475,196,o),
(484,237,o),
(484,260,c),
(363,248,l),
(363,348,ls),
(363,456,o),
(364,603,o),
(369,652,c),
(349,652,o),
(334,646,o),
(317,639,c),
(223,584,o),
(49,296,o),
(16,203,c),
(17,196,o),
(27,182,o),
(32,177,c),
(284,177,l),
(284,102,ls),
(284,68,o),
(266,45,o),
(230,38,cs),
(200,32,l),
(193,-3,l),
(239,0,o),
(286,0,o),
(323,0,cs),
(360,0,o),
(394,0,o),
(442,-3,c),
(449,32,l)
);
},
{
closed = 1;
nodes = (
(99,223,l),
(140,331,o),
(207,434,o),
(284,522,c),
(284,241,l)
);
}
);
width = 492;
}
);
note = four;
unicode = 52;
},
{
glyphname = five;
lastChange = "2025-04-22 17:18:17 +0000";
layers = (
{
hints = (
{
horizontal = 1;
place = (582,79);
type = Stem;
},
{
horizontal = 1;
place = (335,63);
type = Stem;
},
{
horizontal = 1;
place = (-11,56);
type = Stem;
},
{
place = (340,86);
type = Stem;
},
{
place = (75,75);
type = Stem;
}
);
layerId = m01;
shapes = (
{
closed = 1;
nodes = (
(65,362,l),
(68,357,o),
(88,338,o),
(94,335,c),
(173,335,ls),
(258,335,o),
(340,287,o),
(340,190,cs),
(340,130,o),
(308,45,o),
(211,45,cs),
(142,45,o),
(113,88,o),
(95,166,c),
(77,168,o),
(54,164,o),
(43,155,c),
(43,114,o),
(52,55,o),
(67,19,c),
(109,-3,o),
(152,-11,o),
(193,-11,cs),
(329,-11,o),
(426,84,o),
(426,217,cs),
(426,329,o),
(354,397,o),
(243,398,cs),
(144,399,l),
(156,588,l),
(381,576,l),
(391,587,o),
(405,636,o),
(407,661,c),
(364,654,o),
(299,654,o),
(244,654,cs),
(184,654,o),
(136,656,o),
(85,659,c)
);
}
);
width = 480;
}
);
note = five;
unicode = 53;
},
{
glyphname = six;
layers = (
{
hints = (
{
horizontal = 1;
place = (666,-20);
target = down;
type = TopGhost;
},
{
horizontal = 1;
place = (326,70);
type = Stem;
},
{
horizontal = 1;
place = (-11,65);
type = Stem;
},
{
place = (390,91);
type = Stem;
},
{
place = (48,91);
type = Stem;
}
);
layerId = m01;
shapes = (
{
closed = 1;
nodes = (
(199,643,o),
(48,451,o),
(48,255,cs),
(48,92,o),
(124,-11,o),
(261,-11,cs),
(406,-11,o),
(481,103,o),
(481,219,cs),
(481,359,o),
(372,396,o),
(327,396,cs),
(280,396,o),
(179,354,o),
(146,328,c),
(173,450,o),
(223,599,o),
(450,585,c),
(450,609,o),
(447,649,o),
(438,666,c)
);
},
{
closed = 1;
nodes = (
(178,54,o),
(139,142,o),
(139,214,cs),
(139,251,o),
(140,260,o),
(142,278,c),
(175,303,o),
(233,326,o),
(279,326,cs),
(337,326,o),
(390,288,o),
(390,198,cs),
(390,105,o),
(354,54,o),
(278,54,cs)
);
}
);
width = 539;
}
);
note = six;
unicode = 54;
},
{
glyphname = seven;
layers = (
{
hints = (
{
horizontal = 1;
place = (592,60);
type = Stem;
},
{
horizontal = 1;
place = (-9,21);
target = up;
type = BottomGhost;
},
{
place = (36,45);
type = Stem;
}
);
layerId = m01;
shapes = (
{
closed = 1;
nodes = (
(398,655,o),
(318,652,o),
(254,652,cs),
(201,652,o),
(101,654,o),
(36,665,c),
(36,487,l),
(43,485,o),
(52,484,o),
(58,484,cs),
(65,484,o),
(75,485,o),
(81,487,c),
(120,592,l),
(373,592,l),
(207,286,o),
(144,156,o),
(110,5,c),
(121,0,o),
(181,-9,o),
(197,-9,c),
(248,220,o),
(358,426,o),
(475,625,c),
(473,635,o),
(462,657,o),
(451,659,c)
);
}
);
width = 480;
}
);
note = seven;
unicode = 55;
},
{
glyphname = eight;
layers = (
{
hints = (
{
horizontal = 1;
place = (605,55);
type = Stem;
},
{
horizontal = 1;
place = (-12,60);
type = Stem;
},
{
place = (381,86);
type = Stem;
},
{
place = (357,77);
type = Stem;
},
{
place = (85,81);
type = Stem;
},
{
place = (53,81);
type = Stem;
}
);
layerId = m01;
shapes = (
{
closed = 1;
nodes = (
(164,327,o),
(53,253,o),
(53,144,cs),
(53,55,o),
(126,-12,o),
(247,-12,cs),
(321,-12,o),
(467,49,o),
(467,178,cs),
(467,254,o),
(439,294,o),
(327,369,c),
(403,421,o),
(434,462,o),
(434,520,cs),
(434,612,o),
(358,660,o),
(276,660,cs),
(169,660,o),
(85,580,o),
(85,496,cs),
(85,428,o),
(139,383,o),
(199,347,c)
);
},
{
closed = 1;
nodes = (
(323,605,o),
(357,572,o),
(357,518,cs),
(357,464,o),
(322,429,o),
(278,398,c),
(191,446,o),
(166,478,o),
(166,521,cs),
(166,579,o),
(210,605,o),
(263,605,cs)
);
},
{
closed = 1;
nodes = (
(347,259,o),
(381,216,o),
(381,158,cs),
(381,87,o),
(329,48,o),
(270,48,cs),
(163,48,o),
(134,106,o),
(134,166,cs),
(134,224,o),
(161,259,o),
(244,316,c)
);
}
);
width = 519;
}
);
note = eight;
unicode = 56;
},
{
glyphname = nine;
layers = (
{
hints = (
{
horizontal = 1;
place = (599,64);
type = Stem;
},
{
horizontal = 1;
place = (253,69);
type = Stem;
},
{
horizontal = 1;
place = (-14,86);
type = Stem;
},
{
horizontal = 1;
place = (-14,21);
target = up;
type = BottomGhost;
},
{
place = (384,90);
type = Stem;
},
{
place = (57,90);
type = Stem;
}
);
layerId = m01;
shapes = (
{
closed = 1;
nodes = (
(425,48,o),
(474,219,o),
(474,417,cs),
(474,526,o),
(425,663,o),
(280,663,cs),
(162,663,o),
(57,570,o),
(57,446,cs),
(57,323,o),
(159,253,o),
(216,253,cs),
(283,253,o),
(347,286,o),
(382,315,c),
(365,148,o),
(278,72,o),
(123,72,cs),
(111,72,o),
(100,72,o),
(87,73,c),
(92,48,o),
(105,5,o),
(121,-14,c)
);
},
{
closed = 1;
nodes = (
(315,599,o),
(384,551,o),
(384,441,cs),
(384,428,o),
(383,398,o),
(380,385,c),
(358,350,o),
(319,322,o),
(256,322,cs),
(187,322,o),
(147,356,o),
(147,475,cs),
(147,549,o),
(189,599,o),
(252,599,cs)
);
}
);
width = 525;
}
);
note = nine;
unicode = 57;
},
{
glyphname = zero.lf;
lastChange = "2025-04-22 15:48:56 +0000";
layers = (
{
hints = (
{
horizontal = 1;
place = (599,61);
type = Stem;
},
{
horizontal = 1;
place = (-11,61);
type = Stem;
},
{
place = (401,93);
type = Stem;
},
{
place = (56,88);
type = Stem;
}
);
layerId = m01;
shapes = (
{
closed = 1;
nodes = (
(56,166,o),
(95,-11,o),
(264,-11,cs),
(407,-11,o),
(494,115,o),
(494,353,cs),
(494,512,o),
(442,660,o),
(281,660,cs),
(150,660,o),
(56,510,o),
(56,335,cs)
);
},
{
closed = 1;
nodes = (
(369,599,o),
(401,453,o),
(401,317,cs),
(401,196,o),
(388,50,o),
(290,50,cs),
(191,50,o),
(144,200,o),
(144,338,cs),
(144,455,o),
(178,599,o),
(273,599,cs)
);
}
);
width = 539;
}
);
note = zero;
},
{
glyphname = one.lf;
lastChange = "2025-04-22 15:48:58 +0000";
layers = (
{
hints = (
{
horizontal = 1;
place = (661,-20);
target = down;
type = TopGhost;
},
{
horizontal = 1;
place = (0,37);
type = Stem;
},
{
horizontal = 1;
place = (-3,21);
target = up;
type = BottomGhost;
},
{
place = (191,84);
type = Stem;
}
);
layerId = m01;
shapes = (
{
closed = 1;
nodes = (
(407,37,l),
(279,60,l),
(276,146,o),
(275,249,o),
(275,341,cs),
(275,470,o),
(277,587,o),
(285,661,c),
(242,638,o),
(73,568,o),
(31,559,c),
(29,553,o),
(28,508,o),
(28,498,c),
(191,546,l),
(191,131,ls),
(191,68,o),
(94,48,o),
(37,37,c),
(30,-3,l),
(96,0,o),
(154,0,o),
(220,0,cs),
(286,0,o),
(332,0,o),
(400,-3,c)
);
}
);
width = 430;
}
);
note = one;
},
{
glyphname = two.lf;
lastChange = "2025-04-22 15:49:01 +0000";
layers = (
{
hints = (
{
horizontal = 1;
place = (600,67);
type = Stem;
},
{
horizontal = 1;
place = (0,58);
type = Stem;
},
{
horizontal = 1;
place = (-3,21);
target = up;
type = BottomGhost;
},
{
place = (330,96);
type = Stem;
}
);
layerId = m01;
shapes = (
{
closed = 1;
nodes = (
(25,30,l),
(30,16,o),
(48,-1,o),
(60,-3,c),
(117,0,o),
(191,0,o),
(239,0,cs),
(287,0,o),
(363,-2,o),
(427,-5,c),
(459,156,l),
(453,161,o),
(432,165,o),
(422,165,c),
(402,96,o),
(377,65,o),
(297,62,cs),
(130,54,l),
(224,153,o),
(426,363,o),
(426,505,cs),
(426,615,o),
(357,667,o),
(231,667,cs),
(202,667,o),
(69,606,o),
(39,582,c),
(57,451,l),
(61,450,o),
(69,448,o),
(77,448,cs),
(85,448,o),
(94,450,o),
(97,451,c),
(130,564,l),
(157,582,o),
(200,600,o),
(229,600,cs),
(273,600,o),
(330,559,o),
(330,475,cs),
(330,410,o),
(247,295,o),
(67,81,cs)
);
}
);
width = 484;
}
);
note = two;
},
{
glyphname = three.lf;
lastChange = "2025-04-22 15:49:02 +0000";
layers = (
{
hints = (
{
horizontal = 1;
place = (601,66);
type = Stem;
},
{
horizontal = 1;
place = (309,50);
type = Stem;
},
{
horizontal = 1;
place = (-11,59);
type = Stem;
},
{
place = (350,90);
type = Stem;
},
{
place = (328,85);
type = Stem;
}
);
layerId = m01;
shapes = (
{
closed = 1;
nodes = (
(151,353,o),
(141,319,o),
(140,309,c),
(191,309,ls),
(268,309,o),
(350,286,o),
(350,184,cs),
(350,119,o),
(316,48,o),
(231,48,cs),
(159,48,o),
(117,73,o),
(87,145,c),
(79,145,o),
(39,135,o),
(38,133,c),
(74,3,l),
(92,-3,o),
(133,-11,o),
(164,-11,cs),
(312,-11,o),
(440,40,o),
(440,212,cs),
(440,334,o),
(343,353,o),
(297,359,c),
(323,370,o),
(413,428,o),
(413,513,cs),
(413,616,o),
(355,667,o),
(221,667,cs),
(193,667,o),
(92,619,o),
(62,595,c),
(82,499,l),
(86,498,o),
(94,496,o),
(102,496,cs),
(110,496,o),
(119,498,o),
(122,499,c),
(141,574,l),
(163,591,o),
(200,601,o),
(228,601,cs),
(279,601,o),
(328,566,o),
(328,495,cs),
(328,396,o),
(231,366,o),
(156,361,c)
);
}
);
width = 490;
}
);
note = three;
},
{
glyphname = four.lf;
lastChange = "2025-04-22 15:49:03 +0000";
layers = (
{
hints = (
{
horizontal = 1;
place = (177,77);
type = Stem;
},
{
horizontal = 1;
place = (0,35);
type = Stem;
},
{
horizontal = 1;
place = (-3,21);
target = up;
type = BottomGhost;
},
{
place = (284,79);
type = Stem;
}
);
layerId = m01;
shapes = (
{
closed = 1;
nodes = (
(363,61,l),
(363,177,l),
(470,177,l),
(475,196,o),
(484,237,o),
(484,260,c),
(363,248,l),
(363,348,ls),
(363,456,o),
(364,603,o),
(369,652,c),
(349,652,o),
(334,646,o),
(317,639,c),
(223,584,o),
(49,296,o),
(16,203,c),
(17,196,o),
(27,182,o),
(32,177,c),
(284,177,l),
(284,102,ls),
(284,68,o),
(266,45,o),
(230,38,cs),
(200,32,l),
(193,-3,l),
(239,0,o),
(286,0,o),
(323,0,cs),
(360,0,o),
(394,0,o),
(442,-3,c),
(449,32,l)
);
},
{
closed = 1;
nodes = (
(99,223,l),
(140,331,o),
(207,434,o),
(284,522,c),
(284,241,l)
);
}
);
width = 492;
}
);
note = four;
},
{
glyphname = five.lf;
lastChange = "2025-04-22 15:49:04 +0000";
layers = (
{
hints = (
{
horizontal = 1;
place = (582,79);
type = Stem;
},
{
horizontal = 1;
place = (335,63);
type = Stem;
},
{
horizontal = 1;
place = (-11,56);
type = Stem;
},
{
place = (340,86);
type = Stem;
},
{
place = (75,75);
type = Stem;
}
);
layerId = m01;
shapes = (
{
closed = 1;
nodes = (
(65,362,l),
(68,357,o),
(88,338,o),
(94,335,c),
(173,335,ls),
(258,335,o),
(340,287,o),
(340,190,cs),
(340,130,o),
(308,45,o),
(211,45,cs),
(142,45,o),
(113,88,o),
(95,166,c),
(77,168,o),
(54,164,o),
(43,155,c),
(43,114,o),
(52,55,o),
(67,19,c),
(109,-3,o),
(152,-11,o),
(193,-11,cs),
(329,-11,o),
(426,81,o),
(426,224,cs),
(426,325,o),
(354,397,o),
(243,398,cs),
(144,399,l),
(156,588,l),
(381,576,l),
(391,587,o),
(405,636,o),
(407,661,c),
(364,654,o),
(299,654,o),
(244,654,cs),
(184,654,o),
(136,656,o),
(85,659,c)
);
}
);
width = 480;
}
);
note = five;
},
{
glyphname = six.lf;
lastChange = "2025-04-22 15:49:05 +0000";
layers = (
{
hints = (
{
horizontal = 1;
place = (666,-20);
target = down;
type = TopGhost;
},
{
horizontal = 1;
place = (326,70);
type = Stem;
},
{
horizontal = 1;
place = (-11,65);
type = Stem;
},
{
place = (390,91);
type = Stem;
},
{
place = (48,91);
type = Stem;
}
);
layerId = m01;
shapes = (
{
closed = 1;
nodes = (
(199,643,o),
(48,451,o),
(48,255,cs),
(48,92,o),
(124,-11,o),
(261,-11,cs),
(406,-11,o),
(481,103,o),
(481,219,cs),
(481,359,o),
(372,396,o),
(327,396,cs),
(280,396,o),
(179,354,o),
(146,328,c),
(173,450,o),
(223,599,o),
(450,585,c),
(450,609,o),
(447,649,o),
(438,666,c)
);
},
{
closed = 1;
nodes = (
(178,54,o),
(139,142,o),
(139,214,cs),
(139,251,o),
(140,260,o),
(142,278,c),
(175,303,o),
(233,326,o),
(279,326,cs),
(337,326,o),
(390,288,o),
(390,198,cs),
(390,105,o),
(354,54,o),
(278,54,cs)
);
}
);
width = 539;
}
);
note = six;
},
{
glyphname = seven.lf;
lastChange = "2025-04-22 15:49:05 +0000";
layers = (
{
hints = (
{
horizontal = 1;
place = (592,60);
type = Stem;
},
{
horizontal = 1;
place = (-9,21);
target = up;
type = BottomGhost;
},
{
place = (36,45);
type = Stem;
}
);
layerId = m01;
shapes = (
{
closed = 1;
nodes = (
(398,655,o),
(318,652,o),
(254,652,cs),
(201,652,o),
(101,654,o),
(36,665,c),
(36,487,l),
(43,485,o),
(52,484,o),
(58,484,cs),
(65,484,o),
(75,485,o),
(81,487,c),
(120,592,l),
(373,592,l),
(207,286,o),
(144,156,o),
(110,5,c),
(121,0,o),
(181,-9,o),
(197,-9,c),
(248,220,o),
(358,426,o),
(475,625,c),
(473,635,o),
(462,657,o),
(451,659,c)
);
}
);
width = 480;
}
);
note = seven;
},
{
glyphname = eight.lf;
lastChange = "2025-04-22 15:49:16 +0000";
layers = (
{
hints = (
{
horizontal = 1;
place = (605,55);
type = Stem;
},
{
horizontal = 1;
place = (-12,60);
type = Stem;
},
{
place = (381,86);
type = Stem;
},
{
place = (357,77);
type = Stem;
},
{
place = (85,81);
type = Stem;
},
{
place = (53,81);
type = Stem;
}
);
layerId = m01;
shapes = (
{
closed = 1;
nodes = (
(164,327,o),
(53,253,o),
(53,144,cs),
(53,55,o),
(126,-12,o),
(247,-12,cs),
(321,-12,o),
(467,49,o),
(467,178,cs),
(467,254,o),
(439,294,o),
(327,369,c),
(403,421,o),
(434,462,o),
(434,520,cs),
(434,612,o),
(358,660,o),
(276,660,cs),
(169,660,o),
(85,580,o),
(85,496,cs),
(85,428,o),
(139,383,o),
(199,347,c)
);
},
{
closed = 1;
nodes = (
(323,605,o),
(357,572,o),
(357,518,cs),
(357,464,o),
(322,429,o),
(278,398,c),
(191,446,o),
(166,478,o),
(166,521,cs),
(166,579,o),
(210,605,o),
(263,605,cs)
);
},
{
closed = 1;
nodes = (
(347,259,o),
(381,216,o),
(381,158,cs),
(381,87,o),
(329,48,o),
(270,48,cs),
(163,48,o),
(134,106,o),
(134,166,cs),
(134,224,o),
(161,259,o),
(244,316,c)
);
}
);
width = 519;
}
);
note = eight;
},
{
glyphname = nine.lf;
lastChange = "2025-04-22 15:49:15 +0000";
layers = (
{
hints = (
{
horizontal = 1;
place = (599,64);
type = Stem;
},
{
horizontal = 1;
place = (253,69);
type = Stem;
},
{
horizontal = 1;
place = (-14,86);
type = Stem;
},
{
horizontal = 1;
place = (-14,21);
target = up;
type = BottomGhost;
},
{
place = (384,90);
type = Stem;
},
{
place = (57,90);
type = Stem;
}
);
layerId = m01;
shapes = (
{
closed = 1;
nodes = (
(425,48,o),
(474,219,o),
(474,417,cs),
(474,526,o),
(425,663,o),
(280,663,cs),
(162,663,o),
(57,570,o),
(57,446,cs),
(57,323,o),
(159,253,o),
(216,253,cs),
(283,253,o),
(347,286,o),
(382,315,c),
(365,148,o),
(278,72,o),
(123,72,cs),
(111,72,o),
(100,72,o),
(87,73,c),
(92,48,o),
(105,5,o),
(121,-14,c)
);
},
{
closed = 1;
nodes = (
(315,599,o),
(384,551,o),
(384,441,cs),
(384,428,o),
(383,398,o),
(380,385,c),
(358,350,o),
(319,322,o),
(256,322,cs),
(187,322,o),
(147,356,o),
(147,475,cs),
(147,549,o),
(189,599,o),
(252,599,cs)
);
}
);
width = 525;
}
);
note = nine;
},
{
glyphname = zero.osf;
lastChange = "2025-04-22 15:36:38 +0000";
layers = (
{
hints = (
{
horizontal = 1;
place = (438,65);
type = Stem;
},
{
horizontal = 1;
place = (-12,63);
type = Stem;
},
{
place = (428,85);
type = Stem;
},
{
place = (21,84);
type = Stem;
}
);
layerId = m01;
shapes = (
{
closed = 1;
nodes = (
(21,128,o),
(93,-12,o),
(258,-12,cs),
(388,-12,o),
(513,83,o),
(513,259,cs),
(513,384,o),
(428,503,o),
(286,503,cs),
(137,503,o),
(21,404,o),
(21,229,cs)
);
},
{
closed = 1;
nodes = (
(368,438,o),
(428,327,o),
(428,231,cs),
(428,151,o),
(390,51,o),
(277,51,cs),
(160,51,o),
(105,161,o),
(105,252,cs),
(105,366,o),
(169,438,o),
(260,438,cs)
);
}
);
width = 534;
}
);
note = zero.onum;
},
{
glyphname = one.osf;
layers = (
{
hints = (
{
horizontal = 1;
place = (429,-20);
target = down;
type = TopGhost;
},
{
horizontal = 1;
place = (0,32);
type = Stem;
},
{
horizontal = 1;
place = (-3,21);
target = up;
type = BottomGhost;
},
{
place = (176,83);
type = Stem;
}
);
layerId = m01;
shapes = (
{
closed = 1;
nodes = (
(376,34,l),
(262,62,l),
(260,127,o),
(259,191,o),
(259,261,cs),
(259,361,o),
(261,451,o),
(266,507,c),
(233,491,o),
(84,436,o),
(52,429,c),
(51,425,o),
(50,384,o),
(50,377,c),
(176,413,l),
(176,103,ls),
(176,51,o),
(86,38,o),
(57,32,c),
(52,-3,l),
(118,0,o),
(159,0,o),
(210,0,cs),
(260,0,o),
(303,0,o),
(370,-3,c)
);
}
);
width = 417;
}
);
note = one.onum;
},
{
glyphname = two.osf;
layers = (
{
hints = (
{
horizontal = 1;
place = (441,62);
type = Stem;
},
{
horizontal = 1;
place = (-1,55);
type = Stem;
},
{
horizontal = 1;
place = (-4,21);
target = up;
type = BottomGhost;
},
{
place = (303,89);
type = Stem;
}
);
layerId = m01;
shapes = (
{
closed = 1;
nodes = (
(38,23,l),
(42,13,o),
(54,-1,o),
(62,-4,c),
(104,-3,o),
(176,-1,o),
(211,-1,cs),
(248,-1,o),
(341,-3,o),
(391,-5,c),
(425,118,l),
(421,122,o),
(394,125,o),
(387,125,c),
(359,64,o),
(326,58,o),
(253,56,cs),
(152,53,l),
(321,204,o),
(392,291,o),
(392,368,cs),
(392,465,o),
(301,503,o),
(206,503,cs),
(184,503,o),
(89,460,o),
(46,430,c),
(59,333,l),
(62,332,o),
(72,329,o),
(81,329,cs),
(89,329,o),
(99,332,o),
(101,333,c),
(126,403,l),
(141,422,o),
(178,441,o),
(207,441,cs),
(240,441,o),
(303,407,o),
(303,350,cs),
(303,294,o),
(242,227,o),
(92,77,cs)
);
}
);
width = 457;
}
);
note = two.onum;
},
{
glyphname = three.osf;
lastChange = "2025-04-22 15:36:42 +0000";
layers = (
{
hints = (
{
horizontal = 1;
place = (441,62);
type = Stem;
},
{
horizontal = 1;
place = (162,46);
type = Stem;
},
{
horizontal = 1;
place = (-166,61);
type = Stem;
},
{
place = (342,91);
type = Stem;
},
{
place = (316,87);
type = Stem;
}
);
layerId = m01;
shapes = (
{
closed = 1;
nodes = (
(136,199,o),
(127,167,o),
(126,155,c),
(147,159,o),
(174,162,o),
(193,162,cs),
(264,162,o),
(342,115,o),
(342,32,cs),
(342,-37,o),
(294,-105,o),
(221,-105,cs),
(164,-105,o),
(110,-96,o),
(81,-39,c),
(73,-39,o),
(34,-51,o),
(33,-53,c),
(81,-153,l),
(98,-157,o),
(137,-166,o),
(177,-166,cs),
(309,-166,o),
(433,-65,o),
(433,55,cs),
(433,170,o),
(318,203,o),
(276,208,c),
(301,217,o),
(403,275,o),
(403,367,cs),
(403,467,o),
(331,503,o),
(229,503,cs),
(203,503,o),
(106,457,o),
(77,432,c),
(89,346,l),
(93,345,o),
(101,342,o),
(108,342,cs),
(116,342,o),
(125,345,o),
(127,346,c),
(142,406,l),
(163,422,o),
(188,441,o),
(227,441,cs),
(262,441,o),
(316,422,o),
(316,354,cs),
(316,259,o),
(215,218,o),
(140,205,c)
);
}
);
width = 481;
}
);
note = three.onum;
},
{
glyphname = four.osf;
lastChange = "2025-04-22 15:36:44 +0000";
layers = (
{
hints = (
{
horizontal = 1;
place = (17,79);
type = Stem;
},
{
horizontal = 1;
place = (17,57);
type = Stem;
},
{
place = (324,75);
type = Stem;
}
);
layerId = m01;
shapes = (
{
closed = 1;
nodes = (
(348,-172,o),
(381,-169,o),
(407,-157,c),
(403,-115,o),
(401,-51,o),
(400,17,c),
(495,17,l),
(503,34,o),
(515,78,o),
(515,102,c),
(401,90,l),
(400,194,ls),
(399,305,o),
(400,457,o),
(404,508,c),
(384,508,o),
(370,504,o),
(354,497,c),
(259,436,o),
(58,142,o),
(25,44,c),
(26,36,o),
(36,23,o),
(41,17,c),
(324,17,l),
(323,-51,o),
(321,-110,o),
(317,-170,c)
);
},
{
closed = 1;
nodes = (
(108,67,l),
(151,178,o),
(246,292,o),
(324,385,c),
(325,82,l)
);
}
);
width = 534;
}
);
note = four.onum;
},
{
glyphname = five.osf;
lastChange = "2025-04-22 15:36:50 +0000";
layers = (
{
hints = (
{
horizontal = 1;
place = (428,69);
type = Stem;
},
{
horizontal = 1;
place = (183,68);
type = Stem;
},
{
horizontal = 1;
place = (-166,63);
type = Stem;
},
{
place = (347,95);
type = Stem;
},
{
place = (88,75);
type = Stem;
}
);
layerId = m01;
shapes = (
{
closed = 1;
nodes = (
(79,209,l),
(82,204,o),
(101,186,o),
(109,183,c),
(187,183,ls),
(269,183,o),
(347,133,o),
(347,36,cs),
(347,-21,o),
(290,-103,o),
(215,-103,cs),
(160,-103,o),
(112,-95,o),
(80,-39,c),
(70,-39,o),
(34,-51,o),
(33,-52,c),
(78,-153,l),
(110,-160,o),
(144,-166,o),
(177,-166,cs),
(316,-166,o),
(442,-57,o),
(442,66,cs),
(442,162,o),
(364,251,o),
(254,251,cs),
(158,251,l),
(169,434,l),
(393,422,l),
(402,433,o),
(416,480,o),
(418,503,c),
(374,497,o),
(310,497,o),
(255,497,cs),
(198,497,o),
(151,499,o),
(98,501,c)
);
}
);
width = 490;
}
);
note = five.onum;
},
{
glyphname = six.osf;
lastChange = "2025-04-22 15:36:46 +0000";
layers = (
{
hints = (
{
horizontal = 1;
place = (301,66);
type = Stem;
},
{
horizontal = 1;
place = (-11,66);
type = Stem;
},
{
place = (371,87);
type = Stem;
},
{
place = (50,83);
type = Stem;
}
);
layerId = m01;
shapes = (
{
closed = 1;
nodes = (
(202,607,o),
(50,412,o),
(50,234,cs),
(50,85,o),
(124,-11,o),
(244,-11,cs),
(382,-11,o),
(458,117,o),
(458,204,cs),
(458,331,o),
(366,367,o),
(318,367,cs),
(272,367,o),
(182,334,o),
(140,299,c),
(164,411,o),
(224,567,o),
(432,554,c),
(432,576,o),
(429,612,o),
(421,628,c)
);
},
{
closed = 1;
nodes = (
(174,55,o),
(133,130,o),
(133,203,cs),
(133,216,o),
(134,235,o),
(136,254,c),
(178,287,o),
(246,301,o),
(278,301,cs),
(332,301,o),
(371,263,o),
(371,187,cs),
(371,106,o),
(326,55,o),
(276,55,cs)
);
}
);
width = 510;
}
);
note = six.onum;
},
{
glyphname = seven.osf;
lastChange = "2025-04-22 15:36:55 +0000";
layers = (
{
hints = (
{
horizontal = 1;
place = (436,60);
type = Stem;
},
{
place = (29,50);
type = Stem;
}
);
layerId = m01;
shapes = (
{
closed = 1;
nodes = (
(379,499,o),
(306,496,o),
(233,496,cs),
(174,496,o),
(102,498,o),
(29,510,c),
(29,354,l),
(37,352,o),
(47,351,o),
(53,351,cs),
(61,351,o),
(72,352,o),
(79,354,c),
(123,436,l),
(367,436,l),
(233,205,o),
(144,-16,o),
(114,-156,c),
(126,-162,o),
(179,-172,o),
(197,-172,c),
(255,60,o),
(334,240,o),
(466,466,c),
(464,477,o),
(452,501,o),
(440,503,c)
);
}
);
width = 488;
}
);
note = seven.onum;
},
{
glyphname = eight.osf;
lastChange = "2025-04-22 15:36:53 +0000";
layers = (
{
hints = (
{
horizontal = 1;
place = (576,57);
type = Stem;
},
{
horizontal = 1;
place = (-12,61);
type = Stem;
},
{
place = (356,86);
type = Stem;
},
{
place = (337,74);
type = Stem;
},
{
place = (82,77);
type = Stem;
},
{
place = (51,81);
type = Stem;
}
);
layerId = m01;
shapes = (
{
closed = 1;
nodes = (
(158,309,o),
(51,242,o),
(51,138,cs),
(51,52,o),
(122,-12,o),
(227,-12,cs),
(298,-12,o),
(442,47,o),
(442,170,cs),
(442,243,o),
(406,277,o),
(298,349,c),
(371,399,o),
(411,438,o),
(411,494,cs),
(411,582,o),
(334,633,o),
(255,633,cs),
(152,633,o),
(82,551,o),
(82,471,cs),
(82,405,o),
(134,362,o),
(191,328,c)
);
},
{
closed = 1;
nodes = (
(300,576,o),
(337,544,o),
(337,492,cs),
(337,440,o),
(299,407,o),
(257,377,c),
(173,423,o),
(159,453,o),
(159,495,cs),
(159,550,o),
(192,576,o),
(243,576,cs)
);
},
{
closed = 1;
nodes = (
(323,243,o),
(356,207,o),
(356,151,cs),
(356,83,o),
(310,49,o),
(253,49,cs),
(162,49,o),
(132,101,o),
(132,159,cs),
(132,215,o),
(145,243,o),
(224,298,c)
);
}
);
width = 483;
}
);
note = eight.onum;
},
{
glyphname = nine.osf;
lastChange = "2025-04-22 15:36:57 +0000";
layers = (
{
hints = (
{
horizontal = 1;
place = (444,59);
type = Stem;
},
{
horizontal = 1;
place = (95,64);
type = Stem;
},
{
place = (392,87);
type = Stem;
},
{
place = (58,87);
type = Stem;
}
);
layerId = m01;
shapes = (
{
closed = 1;
nodes = (
(401,-101,o),
(479,66,o),
(479,259,cs),
(479,368,o),
(420,503,o),
(280,503,cs),
(162,503,o),
(58,411,o),
(58,289,cs),
(58,167,o),
(160,95,o),
(217,95,cs),
(283,95,o),
(351,124,o),
(388,154,c),
(369,-20,o),
(245,-89,o),
(68,-78,c),
(73,-101,o),
(85,-146,o),
(103,-164,c)
);
},
{
closed = 1;
nodes = (
(316,444,o),
(392,400,o),
(392,292,cs),
(392,279,o),
(392,246,o),
(389,226,c),
(363,177,o),
(301,159,o),
(267,159,cs),
(164,159,o),
(145,214,o),
(145,312,cs),
(145,382,o),
(192,444,o),
(255,444,cs)
);
}
);
width = 533;
}
);
note = nine.onum;
},
{
glyphname = zero.tf;
lastChange = "2025-04-22 15:43:32 +0000";
layers = (
{
hints = (
{
horizontal = 1;
place = (599,61);
type = Stem;
},
{
horizontal = 1;
place = (-11,61);
type = Stem;
},
{
place = (376,93);
type = Stem;
},
{
place = (31,88);
type = Stem;
}
);
layerId = m01;
shapes = (
{
closed = 1;
nodes = (
(31,166,o),
(70,-11,o),
(239,-11,cs),
(382,-11,o),
(469,115,o),
(469,353,cs),
(469,512,o),
(417,660,o),
(256,660,cs),
(125,660,o),
(31,510,o),
(31,335,cs)
);
},
{
closed = 1;
nodes = (
(344,599,o),
(376,453,o),
(376,317,cs),
(376,196,o),
(363,50,o),
(265,50,cs),
(166,50,o),
(119,200,o),
(119,338,cs),
(119,455,o),
(153,599,o),
(248,599,cs)
);
}
);
width = 500;
}
);
note = zero.LT;
},
{
glyphname = one.tf;
lastChange = "2025-04-22 15:43:34 +0000";
layers = (
{
hints = (
{
horizontal = 1;
place = (661,-20);
target = down;
type = TopGhost;
},
{
horizontal = 1;
place = (0,37);
type = Stem;
},
{
horizontal = 1;
place = (-3,21);
target = up;
type = BottomGhost;
},
{
place = (237,84);
type = Stem;
}
);
layerId = m01;
shapes = (
{
closed = 1;
nodes = (
(453,37,l),
(325,60,l),
(322,146,o),
(321,249,o),
(321,341,cs),
(321,470,o),
(323,587,o),
(331,661,c),
(288,638,o),
(119,568,o),
(77,559,c),
(75,553,o),
(74,508,o),
(74,498,c),
(237,546,l),
(237,131,ls),
(237,68,o),
(140,48,o),
(83,37,c),
(76,-3,l),
(142,0,o),
(200,0,o),
(266,0,cs),
(332,0,o),
(378,0,o),
(446,-3,c)
);
}
);
width = 500;
}
);
note = one.LT;
},
{
glyphname = two.tf;
lastChange = "2025-04-22 15:43:37 +0000";
layers = (
{
hints = (
{
horizontal = 1;
place = (600,67);
type = Stem;
},
{
horizontal = 1;
place = (0,58);
type = Stem;
},
{
horizontal = 1;
place = (-3,21);
target = up;
type = BottomGhost;
},
{
place = (348,96);
type = Stem;
}
);
layerId = m01;
shapes = (
{
closed = 1;
nodes = (
(43,30,l),
(48,16,o),
(66,-1,o),
(78,-3,c),
(135,0,o),
(209,0,o),
(257,0,cs),
(305,0,o),
(381,-2,o),
(445,-5,c),
(477,156,l),
(471,161,o),
(450,165,o),
(440,165,c),
(420,96,o),
(395,65,o),
(315,62,cs),
(148,54,l),
(242,153,o),
(444,363,o),
(444,505,cs),
(444,615,o),
(375,667,o),
(249,667,cs),
(220,667,o),
(87,606,o),
(57,582,c),
(75,451,l),
(79,450,o),
(87,448,o),
(95,448,cs),
(103,448,o),
(112,450,o),
(115,451,c),
(148,564,l),
(175,582,o),
(218,600,o),
(247,600,cs),
(291,600,o),
(348,559,o),
(348,475,cs),
(348,410,o),
(265,295,o),
(85,81,cs)
);
}
);
width = 500;
}
);
note = two.LT;
},
{
glyphname = three.tf;
lastChange = "2025-04-22 15:43:38 +0000";
layers = (
{
hints = (
{
horizontal = 1;
place = (601,66);
type = Stem;
},
{
horizontal = 1;
place = (309,50);
type = Stem;
},
{
horizontal = 1;
place = (-11,59);
type = Stem;
},
{
place = (369,90);
type = Stem;
},
{
place = (347,85);
type = Stem;
}
);
layerId = m01;
shapes = (
{
closed = 1;
nodes = (
(170,353,o),
(160,319,o),
(159,309,c),
(210,309,ls),
(287,309,o),
(369,286,o),
(369,184,cs),
(369,119,o),
(335,48,o),
(250,48,cs),
(178,48,o),
(136,73,o),
(106,145,c),
(98,145,o),
(58,135,o),
(57,133,c),
(93,3,l),
(111,-3,o),
(152,-11,o),
(183,-11,cs),
(331,-11,o),
(459,40,o),
(459,212,cs),
(459,334,o),
(362,353,o),
(316,359,c),
(342,370,o),
(432,428,o),
(432,513,cs),
(432,616,o),
(374,667,o),
(240,667,cs),
(212,667,o),
(111,619,o),
(81,595,c),
(101,499,l),
(105,498,o),
(113,496,o),
(121,496,cs),
(129,496,o),
(138,498,o),
(141,499,c),
(160,574,l),
(182,591,o),
(219,601,o),
(247,601,cs),
(298,601,o),
(347,566,o),
(347,495,cs),
(347,396,o),
(250,366,o),
(175,361,c)
);
}
);
width = 500;
}
);
note = three.LT;
},
{
glyphname = four.tf;
lastChange = "2025-04-22 15:43:51 +0000";
layers = (
{
hints = (
{
horizontal = 1;
place = (177,77);
type = Stem;
},
{
horizontal = 1;
place = (0,35);
type = Stem;
},
{
horizontal = 1;
place = (-3,21);
target = up;
type = BottomGhost;
},
{
place = (292,79);
type = Stem;
}
);
layerId = m01;
shapes = (
{
closed = 1;
nodes = (
(371,61,l),
(371,177,l),
(478,177,l),
(483,196,o),
(492,237,o),
(492,260,c),
(371,248,l),
(371,348,ls),
(371,456,o),
(372,603,o),
(377,652,c),
(357,652,o),
(342,646,o),
(325,639,c),
(231,584,o),
(57,296,o),
(24,203,c),
(25,196,o),
(35,182,o),
(40,177,c),
(292,177,l),
(292,102,ls),
(292,68,o),
(274,45,o),
(238,38,cs),
(208,32,l),
(201,-3,l),
(247,0,o),
(294,0,o),
(331,0,cs),
(368,0,o),
(402,0,o),
(450,-3,c),
(457,32,l)
);
},
{
closed = 1;
nodes = (
(107,223,l),
(148,331,o),
(215,434,o),
(292,522,c),
(292,241,l)
);
}
);
width = 500;
}
);
note = four.LT;
},
{
glyphname = five.tf;
lastChange = "2025-04-22 15:43:42 +0000";
layers = (
{
hints = (
{
horizontal = 1;
place = (582,79);
type = Stem;
},
{
horizontal = 1;
place = (335,63);
type = Stem;
},
{
horizontal = 1;
place = (-11,56);
type = Stem;
},
{
place = (367,86);
type = Stem;
},
{
place = (102,75);
type = Stem;
}
);
layerId = m01;
shapes = (
{
closed = 1;
nodes = (
(92,362,l),
(95,357,o),
(115,338,o),
(121,335,c),
(200,335,ls),
(285,335,o),
(367,287,o),
(367,190,cs),
(367,130,o),
(335,45,o),
(238,45,cs),
(169,45,o),
(140,88,o),
(122,166,c),
(104,168,o),
(81,164,o),
(70,155,c),
(70,114,o),
(79,55,o),
(94,19,c),
(136,-3,o),
(179,-11,o),
(220,-11,cs),
(356,-11,o),
(453,81,o),
(453,224,cs),
(453,325,o),
(381,397,o),
(270,398,cs),
(171,399,l),
(183,588,l),
(408,576,l),
(418,587,o),
(432,636,o),
(434,661,c),
(391,654,o),
(326,654,o),
(271,654,cs),
(211,654,o),
(163,656,o),
(112,659,c)
);
}
);
width = 500;
}
);
note = five.LT;
},
{
glyphname = six.tf;
lastChange = "2025-04-22 15:43:45 +0000";
layers = (
{
hints = (
{
horizontal = 1;
place = (666,-20);
target = down;
type = TopGhost;
},
{
horizontal = 1;
place = (326,70);
type = Stem;
},
{
horizontal = 1;
place = (-11,65);
type = Stem;
},
{
place = (386,91);
type = Stem;
},
{
place = (44,91);
type = Stem;
}
);
layerId = m01;
shapes = (
{
closed = 1;
nodes = (
(195,643,o),
(44,451,o),
(44,255,cs),
(44,92,o),
(120,-11,o),
(257,-11,cs),
(402,-11,o),
(477,103,o),
(477,219,cs),
(477,359,o),
(368,396,o),
(323,396,cs),
(276,396,o),
(175,354,o),
(142,328,c),
(169,450,o),
(219,599,o),
(446,585,c),
(446,609,o),
(443,649,o),
(434,666,c)
);
},
{
closed = 1;
nodes = (
(174,54,o),
(135,142,o),
(135,214,cs),
(135,251,o),
(136,260,o),
(138,278,c),
(171,303,o),
(229,326,o),
(275,326,cs),
(333,326,o),
(386,288,o),
(386,198,cs),
(386,105,o),
(350,54,o),
(274,54,cs)
);
}
);
width = 500;
}
);
note = six.LT;
},
{
glyphname = seven.tf;
lastChange = "2025-04-22 15:43:23 +0000";
layers = (
{
hints = (
{
horizontal = 1;
place = (592,60);
type = Stem;
},
{
horizontal = 1;
place = (-9,21);
target = up;
type = BottomGhost;
},
{
place = (54,45);
type = Stem;
}
);
layerId = m01;
shapes = (
{
closed = 1;
nodes = (
(416,655,o),
(336,652,o),
(272,652,cs),
(219,652,o),
(119,654,o),
(54,665,c),
(54,487,l),
(61,485,o),
(70,484,o),
(76,484,cs),
(83,484,o),
(93,485,o),
(99,487,c),
(138,592,l),
(391,592,l),
(225,286,o),
(162,156,o),
(128,5,c),
(139,0,o),
(199,-9,o),
(215,-9,c),
(266,220,o),
(376,426,o),
(493,625,c),
(491,635,o),
(480,657,o),
(469,659,c)
);
}
);
width = 500;
}
);
note = seven.LT;
},
{
glyphname = eight.tf;
lastChange = "2025-04-22 15:43:30 +0000";
layers = (
{
hints = (
{
horizontal = 1;
place = (605,55);
type = Stem;
},
{
horizontal = 1;
place = (-12,60);
type = Stem;
},
{
place = (367,86);
type = Stem;
},
{
place = (343,77);
type = Stem;
},
{
place = (71,81);
type = Stem;
},
{
place = (39,81);
type = Stem;
}
);
layerId = m01;
shapes = (
{
closed = 1;
nodes = (
(150,327,o),
(39,253,o),
(39,144,cs),
(39,55,o),
(112,-12,o),
(233,-12,cs),
(307,-12,o),
(453,49,o),
(453,178,cs),
(453,254,o),
(425,294,o),
(313,369,c),
(389,421,o),
(420,462,o),
(420,520,cs),
(420,612,o),
(344,660,o),
(262,660,cs),
(155,660,o),
(71,580,o),
(71,496,cs),
(71,428,o),
(125,383,o),
(185,347,c)
);
},
{
closed = 1;
nodes = (
(309,605,o),
(343,572,o),
(343,518,cs),
(343,464,o),
(308,429,o),
(264,398,c),
(177,446,o),
(152,478,o),
(152,521,cs),
(152,579,o),
(196,605,o),
(249,605,cs)
);
},
{
closed = 1;
nodes = (
(333,259,o),
(367,216,o),
(367,158,cs),
(367,87,o),
(315,48,o),
(256,48,cs),
(149,48,o),
(120,106,o),
(120,166,cs),
(120,224,o),
(147,259,o),
(230,316,c)
);
}
);
width = 500;
}
);
note = eight.LT;
},
{
glyphname = nine.tf;
lastChange = "2025-04-22 15:43:48 +0000";
layers = (
{
hints = (
{
horizontal = 1;
place = (599,64);
type = Stem;
},
{
horizontal = 1;
place = (253,69);
type = Stem;
},
{
horizontal = 1;
place = (-14,86);
type = Stem;
},
{
horizontal = 1;
place = (-14,21);
target = up;
type = BottomGhost;
},
{
place = (372,90);
type = Stem;
},
{
place = (45,90);
type = Stem;
}
);
layerId = m01;
shapes = (
{
closed = 1;
nodes = (
(413,48,o),
(462,219,o),
(462,417,cs),
(462,526,o),
(413,663,o),
(268,663,cs),
(150,663,o),
(45,570,o),
(45,446,cs),
(45,323,o),
(147,253,o),
(204,253,cs),
(271,253,o),
(335,286,o),
(370,315,c),
(353,148,o),
(266,72,o),
(111,72,cs),
(99,72,o),
(88,72,o),
(75,73,c),
(80,48,o),
(93,5,o),
(109,-14,c)
);
},
{
closed = 1;
nodes = (
(303,599,o),
(372,551,o),
(372,441,cs),
(372,428,o),
(371,398,o),
(368,385,c),
(346,350,o),
(307,322,o),
(244,322,cs),
(175,322,o),
(135,356,o),
(135,475,cs),
(135,549,o),
(177,599,o),
(240,599,cs)
);
}
);
width = 500;
}
);
note = nine.LT;
},
{
glyphname = zero.tosf;
layers = (
{
hints = (
{
horizontal = 1;
place = (438,65);
type = Stem;
},
{
horizontal = 1;
place = (-12,63);
type = Stem;
},
{
place = (428,85);
type = Stem;
},
{
place = (21,84);
type = Stem;
}
);
layerId = m01;
shapes = (
{
closed = 1;
nodes = (
(21,128,o),
(93,-12,o),
(258,-12,cs),
(388,-12,o),
(513,83,o),
(513,259,cs),
(513,384,o),
(428,503,o),
(286,503,cs),
(137,503,o),
(21,404,o),
(21,229,cs)
);
},
{
closed = 1;
nodes = (
(368,438,o),
(428,327,o),
(428,231,cs),
(428,151,o),
(390,51,o),
(277,51,cs),
(160,51,o),
(105,161,o),
(105,252,cs),
(105,366,o),
(169,438,o),
(260,438,cs)
);
}
);
width = 534;
}
);
note = zero.tosf;
},
{
glyphname = one.tosf;
layers = (
{
hints = (
{
horizontal = 1;
place = (429,-20);
target = down;
type = TopGhost;
},
{
horizontal = 1;
place = (0,32);
type = Stem;
},
{
horizontal = 1;
place = (-3,21);
target = up;
type = BottomGhost;
},
{
place = (232,83);
type = Stem;
}
);
layerId = m01;
shapes = (
{
closed = 1;
nodes = (
(432,34,l),
(318,62,l),
(316,127,o),
(315,191,o),
(315,261,cs),
(315,361,o),
(317,451,o),
(322,507,c),
(289,491,o),
(140,436,o),
(108,429,c),
(107,425,o),
(106,384,o),
(106,377,c),
(232,413,l),
(232,103,ls),
(232,51,o),
(142,38,o),
(113,32,c),
(108,-3,l),
(174,0,o),
(215,0,o),
(266,0,cs),
(316,0,o),
(359,0,o),
(426,-3,c)
);
}
);
width = 534;
}
);
note = one.tosf;
},
{
glyphname = two.tosf;
layers = (
{
hints = (
{
horizontal = 1;
place = (441,62);
type = Stem;
},
{
horizontal = 1;
place = (-1,55);
type = Stem;
},
{
horizontal = 1;
place = (-4,21);
target = up;
type = BottomGhost;
},
{
place = (339,89);
type = Stem;
}
);
layerId = m01;
shapes = (
{
closed = 1;
nodes = (
(74,23,l),
(78,13,o),
(90,-1,o),
(98,-4,c),
(140,-3,o),
(202,-1,o),
(237,-1,cs),
(274,-1,o),
(377,-3,o),
(427,-5,c),
(461,118,l),
(457,122,o),
(430,125,o),
(423,125,c),
(395,64,o),
(362,58,o),
(289,56,cs),
(188,53,l),
(357,204,o),
(428,291,o),
(428,368,cs),
(428,465,o),
(337,503,o),
(242,503,cs),
(220,503,o),
(125,460,o),
(82,430,c),
(95,333,l),
(98,332,o),
(108,329,o),
(117,329,cs),
(125,329,o),
(135,332,o),
(137,333,c),
(162,403,l),
(177,422,o),
(214,441,o),
(243,441,cs),
(276,441,o),
(339,407,o),
(339,350,cs),
(339,294,o),
(278,227,o),
(128,77,cs)
);
}
);
width = 534;
}
);
note = two.tosf;
},
{
glyphname = three.tosf;
layers = (
{
hints = (
{
horizontal = 1;
place = (441,62);
type = Stem;
},
{
horizontal = 1;
place = (162,46);
type = Stem;
},
{
horizontal = 1;
place = (-166,61);
type = Stem;
},
{
place = (377,91);
type = Stem;
},
{
place = (351,87);
type = Stem;
}
);
layerId = m01;
shapes = (
{
closed = 1;
nodes = (
(171,199,o),
(162,167,o),
(161,155,c),
(182,159,o),
(209,162,o),
(228,162,cs),
(299,162,o),
(377,115,o),
(377,32,cs),
(377,-37,o),
(329,-105,o),
(256,-105,cs),
(199,-105,o),
(145,-96,o),
(116,-39,c),
(108,-39,o),
(69,-51,o),
(68,-53,c),
(116,-153,l),
(133,-157,o),
(172,-166,o),
(212,-166,cs),
(344,-166,o),
(468,-65,o),
(468,55,cs),
(468,170,o),
(353,203,o),
(311,208,c),
(336,217,o),
(438,275,o),
(438,367,cs),
(438,467,o),
(366,503,o),
(264,503,cs),
(238,503,o),
(141,457,o),
(112,432,c),
(124,346,l),
(128,345,o),
(136,342,o),
(143,342,cs),
(151,342,o),
(160,345,o),
(162,346,c),
(177,406,l),
(198,422,o),
(223,441,o),
(262,441,cs),
(297,441,o),
(351,422,o),
(351,354,cs),
(351,259,o),
(250,218,o),
(175,205,c)
);
}
);
width = 534;
}
);
note = three.tosf;
},
{
glyphname = four.tosf;
layers = (
{
hints = (
{
horizontal = 1;
place = (17,79);
type = Stem;
},
{
horizontal = 1;
place = (17,57);
type = Stem;
},
{
place = (324,75);
type = Stem;
}
);
layerId = m01;
shapes = (
{
closed = 1;
nodes = (
(348,-172,o),
(381,-169,o),
(407,-157,c),
(403,-115,o),
(401,-51,o),
(400,17,c),
(495,17,l),
(503,34,o),
(515,78,o),
(515,102,c),
(401,90,l),
(400,194,ls),
(399,305,o),
(400,457,o),
(404,508,c),
(384,508,o),
(370,504,o),
(354,497,c),
(259,436,o),
(58,142,o),
(25,44,c),
(26,36,o),
(36,23,o),
(41,17,c),
(324,17,l),
(323,-51,o),
(321,-110,o),
(317,-170,c)
);
},
{
closed = 1;
nodes = (
(108,67,l),
(151,178,o),
(246,292,o),
(324,385,c),
(325,82,l)
);
}
);
width = 534;
}
);
note = four.tosf;
},
{
glyphname = five.tosf;
layers = (
{
hints = (
{
horizontal = 1;
place = (428,69);
type = Stem;
},
{
horizontal = 1;
place = (183,68);
type = Stem;
},
{
horizontal = 1;
place = (-166,63);
type = Stem;
},
{
place = (376,95);
type = Stem;
},
{
place = (117,75);
type = Stem;
}
);
layerId = m01;
shapes = (
{
closed = 1;
nodes = (
(108,209,l),
(111,204,o),
(130,186,o),
(138,183,c),
(216,183,ls),
(298,183,o),
(376,133,o),
(376,36,cs),
(376,-21,o),
(319,-103,o),
(244,-103,cs),
(189,-103,o),
(141,-95,o),
(109,-39,c),
(99,-39,o),
(63,-51,o),
(62,-52,c),
(107,-153,l),
(139,-160,o),
(173,-166,o),
(204,-166,cs),
(345,-166,o),
(471,-57,o),
(471,66,cs),
(471,162,o),
(393,251,o),
(283,251,cs),
(187,251,l),
(198,434,l),
(422,422,l),
(431,433,o),
(445,480,o),
(447,503,c),
(403,497,o),
(339,497,o),
(284,497,cs),
(227,497,o),
(180,499,o),
(127,501,c)
);
}
);
width = 534;
}
);
note = five.tosf;
},
{
glyphname = six.tosf;
layers = (
{
hints = (
{
horizontal = 1;
place = (301,66);
type = Stem;
},
{
horizontal = 1;
place = (-11,66);
type = Stem;
},
{
place = (393,87);
type = Stem;
},
{
place = (72,83);
type = Stem;
}
);
layerId = m01;
shapes = (
{
closed = 1;
nodes = (
(224,607,o),
(72,412,o),
(72,234,cs),
(72,85,o),
(146,-11,o),
(266,-11,cs),
(404,-11,o),
(480,117,o),
(480,204,cs),
(480,331,o),
(388,367,o),
(340,367,cs),
(294,367,o),
(204,334,o),
(162,299,c),
(186,411,o),
(246,567,o),
(454,554,c),
(454,576,o),
(451,612,o),
(443,628,c)
);
},
{
closed = 1;
nodes = (
(196,55,o),
(155,130,o),
(155,203,cs),
(155,216,o),
(156,235,o),
(158,254,c),
(200,287,o),
(268,301,o),
(300,301,cs),
(354,301,o),
(393,263,o),
(393,187,cs),
(393,106,o),
(348,55,o),
(298,55,cs)
);
}
);
width = 534;
}
);
note = six.tosf;
},
{
glyphname = seven.tosf;
layers = (
{
hints = (
{
horizontal = 1;
place = (436,60);
type = Stem;
},
{
place = (57,50);
type = Stem;
}
);
layerId = m01;
shapes = (
{
closed = 1;
nodes = (
(407,499,o),
(334,496,o),
(261,496,cs),
(202,496,o),
(130,498,o),
(57,510,c),
(57,354,l),
(65,352,o),
(75,351,o),
(81,351,cs),
(89,351,o),
(100,352,o),
(107,354,c),
(151,436,l),
(395,436,l),
(261,205,o),
(172,-16,o),
(142,-156,c),
(154,-162,o),
(207,-172,o),
(225,-172,c),
(283,60,o),
(362,240,o),
(494,466,c),
(492,477,o),
(480,501,o),
(468,503,c)
);
}
);
width = 534;
}
);
note = seven.tosf;
},
{
glyphname = eight.tosf;
layers = (
{
hints = (
{
horizontal = 1;
place = (576,57);
type = Stem;
},
{
horizontal = 1;
place = (-12,61);
type = Stem;
},
{
place = (380,86);
type = Stem;
},
{
place = (361,74);
type = Stem;
},
{
place = (106,77);
type = Stem;
},
{
place = (75,81);
type = Stem;
}
);
layerId = m01;
shapes = (
{
closed = 1;
nodes = (
(182,309,o),
(75,242,o),
(75,138,cs),
(75,52,o),
(146,-12,o),
(251,-12,cs),
(322,-12,o),
(466,47,o),
(466,178,cs),
(466,243,o),
(430,277,o),
(322,349,c),
(395,399,o),
(435,438,o),
(435,498,cs),
(435,582,o),
(358,633,o),
(278,633,cs),
(176,633,o),
(106,551,o),
(106,473,cs),
(106,405,o),
(158,362,o),
(215,328,c)
);
},
{
closed = 1;
nodes = (
(324,576,o),
(361,544,o),
(361,492,cs),
(361,440,o),
(323,407,o),
(281,377,c),
(197,423,o),
(183,453,o),
(183,491,cs),
(183,550,o),
(216,576,o),
(267,576,cs)
);
},
{
closed = 1;
nodes = (
(347,243,o),
(380,207,o),
(380,151,cs),
(380,83,o),
(334,49,o),
(268,49,cs),
(186,49,o),
(156,101,o),
(156,159,cs),
(156,215,o),
(169,243,o),
(248,298,c)
);
}
);
width = 534;
}
);
note = eight.tosf;
},
{
glyphname = nine.tosf;
layers = (
{
hints = (
{
horizontal = 1;
place = (444,59);
type = Stem;
},
{
horizontal = 1;
place = (95,64);
type = Stem;
},
{
place = (396,87);
type = Stem;
},
{
place = (62,87);
type = Stem;
}
);
layerId = m01;
shapes = (
{
closed = 1;
nodes = (
(405,-101,o),
(483,66,o),
(483,259,cs),
(483,368,o),
(424,503,o),
(284,503,cs),
(166,503,o),
(62,411,o),
(62,289,cs),
(62,167,o),
(164,95,o),
(221,95,cs),
(287,95,o),
(355,124,o),
(392,154,c),
(373,-20,o),
(249,-89,o),
(72,-78,c),
(77,-101,o),
(89,-146,o),
(107,-164,c)
);
},
{
closed = 1;
nodes = (
(320,444,o),
(396,400,o),
(396,292,cs),
(396,279,o),
(396,246,o),
(393,226,c),
(367,177,o),
(305,159,o),
(271,159,cs),
(168,159,o),
(149,214,o),
(149,312,cs),
(149,382,o),
(196,444,o),
(259,444,cs)
);
}
);
width = 534;
}
);
note = nine.tosf;
},
{
glyphname = .notdef;
lastChange = "2025-04-22 15:52:19 +0000";
layers = (
{
hints = (
{
horizontal = 1;
place = (514,68);
type = Stem;
},
{
horizontal = 1;
place = (488,8);
type = Stem;
},
{
horizontal = 1;
place = (161,34);
type = Stem;
},
{
horizontal = 1;
place = (16,30);
type = Stem;
},
{
horizontal = 1;
place = (-39,34);
type = Stem;
},
{
place = (587,39);
type = Stem;
},
{
place = (472,61);
type = Stem;
},
{
place = (455,8);
type = Stem;
},
{
place = (404,43);
type = Stem;
},
{
place = (269,43);
type = Stem;
},
{
place = (156,39);
type = Stem;
},
{
place = (24,71);
type = Stem;
}
);
layerId = m01;
shapes = (
{
closed = 1;
nodes = (
(269,25,o),
(288,-39,o),
(355,-39,cs),
(423,-39,o),
(447,30,o),
(447,83,cs),
(447,142,o),
(417,195,o),
(362,195,cs),
(302,195,o),
(269,131,o),
(269,71,cs)
);
},
{
closed = 1;
nodes = (
(396,161,o),
(404,104,o),
(404,73,cs),
(404,44,o),
(397,-5,o),
(358,-5,cs),
(319,-5,o),
(312,44,o),
(312,76,cs),
(312,103,o),
(317,161,o),
(357,161,cs)
);
},
{
closed = 1;
nodes = (
(156,-42,l),
(164,-42,o),
(188,-40,o),
(195,-37,c),
(195,16,l),
(227,16,l),
(230,28,o),
(231,42,o),
(231,55,c),
(195,51,l),
(195,82,ls),
(195,118,o),
(195,154,o),
(197,190,c),
(140,190,o),
(50,69,o),
(47,24,c),
(53,16,l),
(156,16,l)
);
},
{
closed = 1;
nodes = (
(92,44,l),
(102,78,o),
(127,113,o),
(156,133,c),
(156,49,l)
);
},
{
closed = 1;
nodes = (
(587,-42,l),
(595,-42,o),
(619,-40,o),
(626,-37,c),
(626,16,l),
(658,16,l),
(661,28,o),
(662,42,o),
(662,55,c),
(626,51,l),
(626,82,ls),
(626,118,o),
(626,154,o),
(628,190,c),
(571,190,o),
(481,69,o),
(478,24,c),
(484,16,l),
(587,16,l)
);
},
{
closed = 1;
nodes = (
(523,44,l),
(533,78,o),
(558,113,o),
(587,133,c),
(587,49,l)
);
},
{
closed = 1;
nodes = (
(95,431,o),
(93,448,o),
(99,465,cs),
(101,473,o),
(105,481,o),
(115,487,cs),
(131,496,o),
(141,491,o),
(153,481,cs),
(177,460,o),
(194,429,o),
(215,406,c),
(212,378,o),
(215,358,o),
(220,341,cs),
(244,259,o),
(323,233,o),
(392,233,cs),
(435,233,o),
(504,271,o),
(513,314,cs),
(518,340,o),
(523,355,o),
(520,375,cs),
(517,390,o),
(519,403,o),
(523,414,cs),
(527,424,o),
(533,435,o),
(533,448,cs),
(533,467,o),
(545,459,o),
(555,461,cs),
(560,462,o),
(579,469,o),
(587,478,cs),
(592,483,o),
(591,487,o),
(587,495,cs),
(581,505,o),
(578,514,o),
(577,521,cs),
(575,533,o),
(578,538,o),
(579,545,c),
(594,523,o),
(614,495,o),
(643,495,cs),
(655,495,o),
(664,499,o),
(672,511,cs),
(677,519,o),
(679,526,o),
(676,538,cs),
(669,571,o),
(641,585,o),
(604,594,cs),
(591,598,o),
(580,600,o),
(562,599,cs),
(549,599,o),
(542,600,o),
(528,600,cs),
(523,600,o),
(508,600,o),
(503,596,cs),
(484,580,o),
(477,578,o),
(450,588,cs),
(416,601,o),
(383,606,o),
(359,601,cs),
(345,598,o),
(331,600,o),
(325,601,cs),
(278,609,o),
(251,592,o),
(212,573,cs),
(208,571,o),
(203,571,o),
(194,576,cs),
(181,583,o),
(172,594,o),
(150,592,cs),
(143,592,o),
(130,590,o),
(112,590,cs),
(52,590,o),
(24,569,o),
(24,500,cs),
(24,478,o),
(27,450,o),
(34,421,cs),
(43,386,o),
(95,391,o),
(95,424,cs)
);
},
{
closed = 1;
nodes = (
(413,423,o),
(434,414,o),
(434,388,cs),
(434,357,o),
(403,341,o),
(385,341,cs),
(364,341,o),
(327,361,o),
(327,389,cs),
(327,413,o),
(355,423,o),
(384,423,cs)
);
},
{
closed = 1;
nodes = (
(347,392,ls),
(346,389,o),
(347,387,o),
(349,385,cs),
(350,384,o),
(354,381,o),
(356,380,c),
(368,378,l),
(364,372,l),
(363,369,o),
(363,362,o),
(363,361,cs),
(363,360,o),
(371,358,o),
(374,357,cs),
(389,352,l),
(400,362,l),
(396,381,l),
(412,374,l),
(421,379,l),
(421,385,l),
(419,396,l),
(415,398,l),
(401,394,l),
(400,403,l),
(382,404,l),
(362,407,l),
(349,398,l)
);
},
{
closed = 1;
nodes = (
(294,530,o),
(303,523,o),
(303,511,cs),
(303,492,o),
(281,481,o),
(263,481,cs),
(251,481,o),
(241,486,o),
(241,493,cs),
(241,501,o),
(257,530,o),
(282,530,cs)
);
},
{
closed = 1;
nodes = (
(418,503,o),
(431,514,o),
(448,514,cs),
(464,514,o),
(472,505,o),
(472,490,cs),
(472,470,o),
(454,467,o),
(447,467,cs),
(433,467,o),
(418,479,o),
(418,491,cs)
);
},
{
closed = 1;
nodes = (
(298,313,o),
(339,316,o),
(359,315,cs),
(369,314,o),
(405,310,o),
(405,291,cs),
(405,282,o),
(396,276,o),
(386,279,cs),
(379,281,o),
(359,292,o),
(344,294,cs),
(329,296,o),
(298,292,o),
(298,302,cs)
);
},
{
closed = 1;
nodes = (
(259,511,o),
(256,512,o),
(254,509,cs),
(252,507,o),
(249,501,o),
(252,496,cs),
(255,491,o),
(259,490,o),
(263,490,cs),
(266,490,o),
(272,491,o),
(269,494,cs),
(267,496,o),
(259,500,o),
(259,507,cs)
);
},
{
closed = 1;
nodes = (
(440,502,o),
(437,506,o),
(433,504,cs),
(429,502,o),
(428,497,o),
(430,489,cs),
(431,482,o),
(433,478,o),
(437,478,cs),
(439,478,o),
(442,479,o),
(440,485,cs),
(439,487,o),
(438,489,o),
(439,494,cs)
);
},
{
closed = 1;
nodes = (
(269,516,o),
(267,513,o),
(267,511,cs),
(267,508,o),
(269,508,o),
(269,508,c),
(275,508,o),
(276,512,o),
(276,513,cs),
(276,515,o),
(274,516,o),
(272,516,cs)
);
},
{
closed = 1;
nodes = (
(455,496,o),
(452,493,o),
(452,491,cs),
(452,488,o),
(455,488,o),
(455,488,c),
(461,488,o),
(463,492,o),
(463,493,cs),
(463,495,o),
(460,496,o),
(458,496,cs)
);
}
);
width = 711;
},
{
associatedMasterId = m01;
attr = {
svg = "1";
};
layerId = "ED605E5F-EDDF-4836-BC57-D01A196C0881";
width = 600;
}
);
note = .notdef;
},
{
glyphname = period;
layers = (
{
hints = (
{
horizontal = 1;
place = (-11,21);
target = up;
type = BottomGhost;
},
{
place = (55,135);
type = Stem;
}
);
layerId = m01;
shapes = (
{
closed = 1;
nodes = (
(171,99,o),
(134,120,o),
(106,124,c),
(82,103,o),
(61,68,o),
(55,35,c),
(71,15,o),
(107,-5,o),
(140,-11,c),
(160,6,o),
(185,46,o),
(190,77,c)
);
}
);
width = 242;
}
);
note = period;
unicode = 46;
},
{
glyphname = comma;
layers = (
{
hints = (
{
horizontal = 1;
place = (-152,276);
type = Stem;
},
{
place = (66,87);
type = Stem;
}
);
layerId = m01;
shapes = (
{
closed = 1;
nodes = (
(114,124,o),
(67,109,o),
(42,89,c),
(59,65,o),
(66,36,o),
(66,6,cs),
(66,-48,o),
(42,-104,o),
(7,-134,c),
(13,-142,o),
(27,-149,o),
(38,-152,c),
(95,-125,o),
(153,-30,o),
(153,65,cs),
(153,86,o),
(150,110,o),
(147,124,c)
);
}
);
width = 187;
}
);
note = comma;
unicode = 44;
},
{
glyphname = colon;
layers = (
{
hints = (
{
horizontal = 1;
place = (-11,21);
target = up;
type = BottomGhost;
},
{
place = (55,135);
type = Stem;
}
);
layerId = m01;
shapes = (
{
closed = 1;
nodes = (
(171,362,o),
(134,383,o),
(106,387,c),
(82,366,o),
(61,331,o),
(55,298,c),
(71,278,o),
(107,258,o),
(140,252,c),
(160,269,o),
(185,309,o),
(190,340,c)
);
},
{
closed = 1;
nodes = (
(171,99,o),
(134,120,o),
(106,124,c),
(82,103,o),
(61,68,o),
(55,35,c),
(71,15,o),
(107,-5,o),
(140,-11,c),
(160,6,o),
(185,46,o),
(190,77,c)
);
}
);
width = 253;
}
);
note = colon;
unicode = 58;
},
{
glyphname = semicolon;
layers = (
{
hints = (
{
horizontal = 1;
place = (-152,539);
type = Stem;
},
{
place = (96,87);
type = Stem;
}
);
layerId = m01;
shapes = (
{
closed = 1;
nodes = (
(144,124,o),
(97,109,o),
(72,89,c),
(89,65,o),
(96,36,o),
(96,6,cs),
(96,-48,o),
(72,-104,o),
(37,-134,c),
(43,-142,o),
(57,-149,o),
(68,-152,c),
(125,-125,o),
(183,-30,o),
(183,65,cs),
(183,86,o),
(180,110,o),
(177,124,c)
);
},
{
closed = 1;
nodes = (
(169,362,o),
(132,383,o),
(104,387,c),
(80,366,o),
(59,331,o),
(53,298,c),
(69,278,o),
(105,258,o),
(138,252,c),
(158,269,o),
(183,309,o),
(188,340,c)
);
}
);
width = 238;
}
);
note = semicolon;
unicode = 59;
},
{
glyphname = exclam;
layers = (
{
hints = (
{
horizontal = 1;
place = (677,-20);
target = down;
type = TopGhost;
},
{
horizontal = 1;
place = (-11,21);
target = up;
type = BottomGhost;
},
{
place = (84,65);
type = Stem;
}
);
layerId = m01;
shapes = (
{
closed = 1;
nodes = (
(74,538,o),
(84,362,o),
(84,230,cs),
(84,179,l),
(103,179,o),
(136,184,o),
(149,190,c),
(149,278,ls),
(149,401,o),
(152,564,o),
(164,677,c),
(137,677,o),
(84,671,o),
(59,660,c)
);
},
{
closed = 1;
nodes = (
(165,99,o),
(128,120,o),
(100,124,c),
(76,103,o),
(55,68,o),
(49,35,c),
(65,15,o),
(101,-5,o),
(134,-11,c),
(154,6,o),
(179,46,o),
(184,77,c)
);
}
);
width = 233;
}
);
note = exclam;
unicode = 33;
},
{
glyphname = question;
layers = (
{
hints = (
{
horizontal = 1;
place = (618,62);
type = Stem;
},
{
horizontal = 1;
place = (-11,21);
target = up;
type = BottomGhost;
},
{
place = (304,86);
type = Stem;
},
{
place = (161,60);
type = Stem;
}
);
layerId = m01;
shapes = (
{
closed = 1;
nodes = (
(304,451,o),
(241,401,o),
(152,344,c),
(158,306,o),
(161,269,o),
(161,225,cs),
(161,210,o),
(161,194,o),
(160,176,c),
(177,176,o),
(205,179,o),
(222,184,c),
(221,197,o),
(221,209,o),
(221,220,cs),
(221,256,o),
(225,286,o),
(233,326,c),
(279,354,o),
(390,446,o),
(390,539,cs),
(390,655,o),
(305,680,o),
(206,680,cs),
(185,680,o),
(75,626,o),
(42,607,c),
(64,493,l),
(68,489,o),
(76,488,o),
(84,488,cs),
(92,488,o),
(100,489,o),
(106,492,c),
(122,586,l),
(140,599,o),
(172,618,o),
(211,618,cs),
(266,618,o),
(304,580,o),
(304,524,cs)
);
},
{
closed = 1;
nodes = (
(241,99,o),
(204,120,o),
(176,124,c),
(152,103,o),
(131,68,o),
(125,35,c),
(141,15,o),
(177,-5,o),
(210,-11,c),
(230,6,o),
(255,46,o),
(260,77,c)
);
}
);
width = 415;
}
);
note = question;
unicode = 63;
},
{
glyphname = asterisk;
layers = (
{
hints = (
{
horizontal = 1;
place = (670,-20);
target = down;
type = TopGhost;
},
{
place = (20,295);
type = Stem;
}
);
layerId = m01;
shapes = (
{
closed = 1;
nodes = (
(225,728,o),
(201,733,o),
(180,733,c),
(170,644,o),
(146,538,o),
(95,455,c),
(112,443,o),
(134,436,o),
(157,435,c),
(168,523,o),
(187,614,o),
(241,715,c)
);
},
{
closed = 1;
nodes = (
(316,615,o),
(308,642,o),
(300,658,c),
(223,612,o),
(123,586,o),
(20,582,c),
(19,558,o),
(30,534,o),
(42,519,c),
(120,571,o),
(219,585,o),
(315,596,c)
);
},
{
closed = 1;
nodes = (
(270,466,o),
(296,486,o),
(303,504,c),
(229,545,o),
(144,634,o),
(94,717,c),
(75,709,o),
(55,691,o),
(47,670,c),
(124,614,o),
(200,543,o),
(253,458,c)
);
}
);
width = 339;
}
);
note = asterisk;
unicode = 42;
},
{
glyphname = numbersign;
layers = (
{
hints = (
{
horizontal = 1;
place = (321,62);
type = Stem;
},
{
horizontal = 1;
place = (312,68);
type = Stem;
},
{
horizontal = 1;
place = (309,64);
type = Stem;
},
{
horizontal = 1;
place = (117,62);
type = Stem;
},
{
horizontal = 1;
place = (105,64);
type = Stem;
},
{
place = (197,64);
type = Stem;
},
{
place = (-5,457);
type = Stem;
}
);
layerId = m01;
shapes = (
{
closed = 1;
nodes = (
(211,-81,o),
(246,-73,o),
(261,-67,c),
(254,-3,o),
(390,511,o),
(416,577,c),
(402,576,o),
(354,566,o),
(343,562,c),
(335,500,o),
(201,-24,o),
(197,-82,c)
);
},
{
closed = 1;
nodes = (
(60,-81,o),
(95,-73,o),
(110,-67,c),
(103,-3,o),
(238,511,o),
(264,577,c),
(250,576,o),
(202,566,o),
(191,562,c),
(183,500,o),
(50,-24,o),
(46,-82,c)
);
},
{
closed = 1;
nodes = (
(53,104,o),
(322,119,o),
(385,121,c),
(391,131,o),
(405,179,o),
(408,193,c),
(340,182,o),
(81,168,o),
(18,169,c),
(10,155,o),
(-2,112,o),
(-5,98,c)
);
},
{
closed = 1;
nodes = (
(97,308,o),
(366,323,o),
(429,325,c),
(435,335,o),
(449,383,o),
(452,397,c),
(384,386,o),
(125,372,o),
(62,373,c),
(54,359,o),
(42,316,o),
(39,302,c)
);
}
);
width = 487;
}
);
note = numbersign;
unicode = 35;
},
{
glyphname = slash;
layers = (
{
hints = (
{
horizontal = 1;
place = (-97,863);
type = Stem;
},
{
place = (26,384);
type = Stem;
}
);
layerId = m01;
shapes = (
{
closed = 1;
nodes = (
(38,-90,o),
(79,-99,o),
(97,-97,c),
(118,-29,o),
(374,681,o),
(410,744,c),
(399,753,o),
(354,767,o),
(338,766,c),
(320,702,o),
(71,2,o),
(26,-81,c)
);
}
);
width = 440;
}
);
note = slash;
unicode = 47;
},
{
glyphname = backslash;
layers = (
{
hints = (
{
horizontal = 1;
place = (-106,872);
type = Stem;
},
{
place = (30,386);
type = Stem;
}
);
layerId = m01;
shapes = (
{
closed = 1;
nodes = (
(371,-7,o),
(122,702,o),
(104,766,c),
(88,767,o),
(41,753,o),
(30,744,c),
(66,681,o),
(324,-38,o),
(345,-106,c),
(363,-108,o),
(404,-99,o),
(416,-90,c)
);
}
);
width = 440;
}
);
note = backslash;
unicode = 92;
},
{
glyphname = hyphen;
layers = (
{
hints = (
{
horizontal = 1;
place = (195,69);
type = Stem;
},
{
place = (53,211);
type = Stem;
}
);
layerId = m01;
shapes = (
{
closed = 1;
nodes = (
(265,215,o),
(266,245,o),
(264,265,c),
(194,260,o),
(123,259,o),
(55,260,c),
(51,240,o),
(49,211,o),
(51,191,c),
(120,196,o),
(191,199,o),
(260,200,c)
);
}
);
width = 315;
}
);
note = hyphen;
unicode = 45;
},
{
glyphname = endash;
layers = (
{
hints = (
{
horizontal = 1;
place = (191,74);
type = Stem;
},
{
place = (51,445);
type = Stem;
}
);
layerId = m01;
shapes = (
{
closed = 1;
nodes = (
(496,215,o),
(497,245,o),
(495,265,c),
(424,261,o),
(123,260,o),
(55,261,c),
(51,240,o),
(49,211,o),
(51,191,c),
(120,196,o),
(421,199,o),
(489,200,c)
);
}
);
width = 545;
}
);
note = endash;
unicode = 8211;
},
{
glyphname = emdash;
layers = (
{
hints = (
{
horizontal = 1;
place = (195,72);
type = Stem;
},
{
place = (51,899);
type = Stem;
}
);
layerId = m01;
shapes = (
{
closed = 1;
nodes = (
(950,220,o),
(951,248,o),
(949,268,c),
(878,263,o),
(123,254,o),
(55,258,c),
(51,237,o),
(49,208,o),
(51,188,c),
(120,193,o),
(876,202,o),
(945,203,c)
);
}
);
width = 999;
}
);
note = emdash;
unicode = 8212;
},
{
glyphname = underscore;
layers = (
{
hints = (
{
horizontal = 1;
place = (0,54);
type = Stem;
},
{
place = (-13,592);
type = Stem;
}
);
layerId = m01;
shapes = (
{
closed = 1;
nodes = (
(569,0,l),
(576,20,o),
(579,34,o),
(579,54,c),
(-3,54,l),
(-10,34,o),
(-13,20,o),
(-13,0,c)
);
}
);
width = 572;
}
);
note = underscore;
unicode = 95;
},
{
glyphname = parenleft;
layers = (
{
hints = (
{
horizontal = 1;
place = (778,8);
type = Stem;
},
{
horizontal = 1;
place = (-203,1013);
type = Stem;
},
{
place = (299,8);
type = Stem;
},
{
place = (41,81);
type = Stem;
}
);
layerId = m01;
shapes = (
{
closed = 1;
nodes = (
(194,-75,o),
(122,53,o),
(122,288,cs),
(122,523,o),
(159,643,o),
(310,777,c),
(307,791,o),
(291,805,o),
(282,810,c),
(156,707,o),
(41,530,o),
(41,313,cs),
(41,96,o),
(124,-103,o),
(284,-203,c),
(294,-198,o),
(306,-186,o),
(310,-171,c)
);
},
{
closed = 1;
nodes = (
(194,-75,o),
(122,53,o),
(122,288,cs),
(122,523,o),
(159,643,o),
(310,777,c),
(307,791,o),
(291,805,o),
(282,810,c),
(156,707,o),
(41,530,o),
(41,313,cs),
(41,96,o),
(124,-103,o),
(284,-203,c),
(294,-198,o),
(306,-186,o),
(310,-171,c)
);
}
);
width = 328;
}
);
note = parenleft;
unicode = 40;
},
{
glyphname = parenright;
layers = (
{
hints = (
{
horizontal = 1;
place = (-203,1013);
type = Stem;
},
{
place = (231,79);
type = Stem;
}
);
layerId = m01;
shapes = (
{
closed = 1;
nodes = (
(45,-186,o),
(57,-198,o),
(67,-203,c),
(227,-103,o),
(310,106,o),
(310,323,cs),
(310,540,o),
(195,707,o),
(69,810,c),
(60,805,o),
(44,791,o),
(41,777,c),
(188,636,o),
(231,530,o),
(231,295,cs),
(231,60,o),
(156,-72,o),
(41,-171,c)
);
}
);
width = 325;
}
);
note = parenright;
unicode = 41;
},
{
glyphname = braceleft;
layers = (
{
hints = (
{
horizontal = 1;
place = (773,21);
type = Stem;
},
{
horizontal = 1;
place = (-180,21);
type = Stem;
},
{
place = (153,73);
type = Stem;
}
);
layerId = m01;
shapes = (
{
closed = 1;
nodes = (
(39,292,l),
(99,280,o),
(159,245,o),
(159,195,cs),
(159,117,o),
(139,-27,o),
(173,-84,cs),
(218,-159,o),
(305,-175,o),
(387,-180,c),
(394,-175,o),
(398,-167,o),
(400,-159,c),
(293,-128,o),
(271,-112,o),
(252,-48,cs),
(228,31,o),
(223,135,o),
(229,250,c),
(212,266,o),
(162,292,o),
(145,304,c),
(146,312,l),
(164,322,o),
(210,346,o),
(229,364,c),
(223,479,o),
(225,583,o),
(249,664,cs),
(268,725,o),
(290,741,o),
(400,773,c),
(398,781,o),
(394,789,o),
(387,794,c),
(305,789,o),
(218,773,o),
(173,698,cs),
(139,641,o),
(159,497,o),
(159,419,cs),
(159,369,o),
(97,334,o),
(47,324,c)
);
}
);
width = 428;
}
);
note = braceleft;
unicode = 123;
},
{
glyphname = braceright;
layers = (
{
hints = (
{
horizontal = 1;
place = (773,21);
type = Stem;
},
{
place = (202,73);
type = Stem;
}
);
layerId = m01;
shapes = (
{
closed = 1;
nodes = (
(389,322,l),
(329,334,o),
(269,369,o),
(269,419,cs),
(269,497,o),
(289,641,o),
(255,698,cs),
(210,773,o),
(123,789,o),
(41,794,c),
(34,789,o),
(30,781,o),
(28,773,c),
(138,741,o),
(160,725,o),
(179,664,cs),
(203,583,o),
(205,479,o),
(199,364,c),
(216,348,o),
(266,322,o),
(283,310,c),
(282,302,l),
(264,292,o),
(218,268,o),
(199,250,c),
(205,135,o),
(200,31,o),
(176,-48,cs),
(157,-112,o),
(135,-128,o),
(28,-159,c),
(30,-167,o),
(34,-175,o),
(41,-180,c),
(123,-175,o),
(210,-159,o),
(255,-84,cs),
(289,-27,o),
(269,117,o),
(269,195,cs),
(269,245,o),
(331,280,o),
(381,290,c)
);
}
);
width = 428;
}
);
note = braceright;
unicode = 125;
},
{
glyphname = bracketleft;
layers = (
{
hints = (
{
horizontal = 1;
place = (737,60);
type = Stem;
},
{
horizontal = 1;
place = (-188,60);
type = Stem;
},
{
place = (52,68);
type = Stem;
}
);
layerId = m01;
shapes = (
{
closed = 1;
nodes = (
(292,734,l),
(292,754,o),
(291,775,o),
(285,795,c),
(272,796,o),
(221,797,o),
(170,797,cs),
(119,797,o),
(67,796,o),
(52,795,c),
(52,-185,l),
(68,-187,o),
(126,-188,o),
(177,-188,cs),
(228,-188,o),
(273,-187,o),
(285,-186,c),
(291,-166,o),
(292,-145,o),
(292,-125,c),
(161,-131,ls),
(111,-133,o),
(120,-91,o),
(120,-55,cs),
(120,662,ls),
(120,698,o),
(111,742,o),
(161,740,cs)
);
}
);
width = 320;
}
);
note = bracketleft;
unicode = 91;
},
{
glyphname = bracketright;
layers = (
{
hints = (
{
horizontal = 1;
place = (737,60);
type = Stem;
},
{
horizontal = 1;
place = (-188,60);
type = Stem;
},
{
place = (199,68);
type = Stem;
}
);
layerId = m01;
shapes = (
{
closed = 1;
nodes = (
(158,740,ls),
(208,742,o),
(199,698,o),
(199,662,cs),
(199,-55,ls),
(199,-91,o),
(208,-133,o),
(158,-131,cs),
(27,-125,l),
(27,-145,o),
(28,-166,o),
(34,-186,c),
(46,-187,o),
(91,-188,o),
(142,-188,cs),
(193,-188,o),
(251,-187,o),
(267,-185,c),
(267,795,l),
(252,796,o),
(200,797,o),
(149,797,cs),
(98,797,o),
(47,796,o),
(34,795,c),
(28,775,o),
(27,754,o),
(27,734,c)
);
}
);
width = 325;
}
);
note = bracketright;
unicode = 93;
},
{
glyphname = quotedblleft;
layers = (
{
hints = (
{
horizontal = 1;
place = (440,273);
type = Stem;
},
{
place = (211,79);
type = Stem;
},
{
place = (53,79);
type = Stem;
}
);
layerId = m01;
shapes = (
{
closed = 1;
nodes = (
(81,440,o),
(136,461,o),
(159,478,c),
(140,503,o),
(132,533,o),
(132,562,cs),
(132,610,o),
(154,659,o),
(188,689,c),
(184,699,o),
(175,708,o),
(163,713,c),
(107,687,o),
(53,599,o),
(53,501,cs),
(53,482,o),
(55,457,o),
(60,440,c)
);
},
{
closed = 1;
nodes = (
(239,440,o),
(294,461,o),
(317,478,c),
(298,503,o),
(290,533,o),
(290,562,cs),
(290,610,o),
(312,659,o),
(346,689,c),
(342,699,o),
(333,708,o),
(321,713,c),
(265,687,o),
(211,599,o),
(211,501,cs),
(211,482,o),
(213,457,o),
(218,440,c)
);
}
);
width = 371;
}
);
note = quotedblleft;
unicode = 8220;
},
{
glyphname = quotedblright;
layers = (
{
hints = (
{
horizontal = 1;
place = (669,-20);
target = down;
type = TopGhost;
},
{
place = (242,79);
type = Stem;
},
{
place = (82,79);
type = Stem;
}
);
layerId = m01;
shapes = (
{
closed = 1;
nodes = (
(133,707,o),
(78,686,o),
(55,669,c),
(74,644,o),
(82,614,o),
(82,585,cs),
(82,537,o),
(60,488,o),
(26,458,c),
(30,448,o),
(39,439,o),
(51,434,c),
(107,460,o),
(161,548,o),
(161,646,cs),
(161,665,o),
(159,690,o),
(154,707,c)
);
},
{
closed = 1;
nodes = (
(293,707,o),
(238,686,o),
(215,669,c),
(234,644,o),
(242,614,o),
(242,585,cs),
(242,537,o),
(220,488,o),
(186,458,c),
(190,448,o),
(199,439,o),
(211,434,c),
(267,460,o),
(321,548,o),
(321,646,cs),
(321,665,o),
(319,690,o),
(314,707,c)
);
}
);
width = 371;
}
);
note = quotedblright;
unicode = 8221;
},
{
glyphname = quoteleft;
layers = (
{
hints = (
{
horizontal = 1;
place = (440,273);
type = Stem;
},
{
place = (53,79);
type = Stem;
}
);
layerId = m01;
shapes = (
{
closed = 1;
nodes = (
(81,440,o),
(136,461,o),
(159,478,c),
(140,503,o),
(132,533,o),
(132,562,cs),
(132,610,o),
(154,659,o),
(188,689,c),
(184,699,o),
(175,708,o),
(163,713,c),
(107,687,o),
(53,599,o),
(53,501,cs),
(53,482,o),
(55,457,o),
(60,440,c)
);
}
);
width = 212;
}
);
note = quoteleft;
unicode = 8216;
},
{
glyphname = quoteright;
layers = (
{
hints = (
{
horizontal = 1;
place = (669,-20);
target = down;
type = TopGhost;
},
{
place = (82,79);
type = Stem;
}
);
layerId = m01;
shapes = (
{
closed = 1;
nodes = (
(133,707,o),
(78,686,o),
(55,669,c),
(74,644,o),
(82,614,o),
(82,585,cs),
(82,537,o),
(60,488,o),
(26,458,c),
(30,448,o),
(39,439,o),
(51,434,c),
(107,460,o),
(161,548,o),
(161,646,cs),
(161,665,o),
(159,690,o),
(154,707,c)
);
}
);
width = 212;
}
);
note = quoteright;
unicode = 8217;
},
{
glyphname = quotedbl;
layers = (
{
hints = (
{
horizontal = 1;
place = (448,253);
type = Stem;
},
{
place = (113,191);
type = Stem;
}
);
layerId = m01;
shapes = (
{
closed = 1;
nodes = (
(108,613,o),
(113,536,o),
(113,448,c),
(122,448,o),
(154,454,o),
(163,461,c),
(168,549,o),
(175,626,o),
(189,701,c),
(161,701,o),
(120,696,o),
(97,688,c)
);
},
{
closed = 1;
nodes = (
(249,613,o),
(254,536,o),
(254,448,c),
(263,448,o),
(295,454,o),
(304,461,c),
(309,549,o),
(316,626,o),
(330,701,c),
(302,701,o),
(261,696,o),
(238,688,c)
);
}
);
width = 408;
}
);
note = quotedbl;
unicode = 34;
},
{
glyphname = quotesingle;
layers = (
{
hints = (
{
horizontal = 1;
place = (448,253);
type = Stem;
},
{
place = (66,50);
type = Stem;
},
{
place = (50,92);
type = Stem;
}
);
layerId = m01;
shapes = (
{
closed = 1;
nodes = (
(61,613,o),
(66,536,o),
(66,448,c),
(75,448,o),
(107,454,o),
(116,461,c),
(121,549,o),
(128,626,o),
(142,701,c),
(114,701,o),
(73,696,o),
(50,688,c)
);
}
);
width = 192;
}
);
note = quotesingle;
unicode = 39;
},
{
glyphname = at;
layers = (
{
hints = (
{
horizontal = 1;
place = (559,53);
type = Stem;
},
{
horizontal = 1;
place = (374,55);
type = Stem;
},
{
horizontal = 1;
place = (-5,66);
type = Stem;
},
{
horizontal = 1;
place = (-11,82);
type = Stem;
},
{
horizontal = 1;
place = (-209,50);
type = Stem;
},
{
horizontal = 1;
place = (-11,21);
target = up;
type = BottomGhost;
},
{
place = (743,69);
type = Stem;
},
{
place = (481,75);
type = Stem;
},
{
place = (244,75);
type = Stem;
},
{
place = (50,81);
type = Stem;
}
);
layerId = m01;
shapes = (
{
closed = 1;
nodes = (
(498,160,l),
(488,123,o),
(481,78,o),
(481,45,cs),
(481,2,o),
(508,-5,o),
(538,-5,cs),
(666,-5,o),
(812,116,o),
(812,321,cs),
(812,487,o),
(692,612,o),
(487,612,cs),
(242,612,o),
(50,378,o),
(50,143,cs),
(50,-85,o),
(177,-209,o),
(374,-209,cs),
(387,-209,o),
(409,-206,o),
(420,-198,c),
(425,-188,o),
(427,-170,o),
(422,-158,c),
(414,-159,o),
(409,-159,o),
(404,-159,cs),
(205,-159,o),
(131,-32,o),
(131,159,cs),
(131,393,o),
(266,559,o),
(470,559,cs),
(645,559,o),
(743,437,o),
(743,290,cs),
(743,152,o),
(695,61,o),
(593,61,cs),
(572,61,o),
(548,65,o),
(559,117,cs),
(594,282,ls),
(605,335,o),
(616,379,o),
(635,412,c),
(608,423,o),
(569,429,o),
(495,429,cs),
(374,428,o),
(244,319,o),
(244,96,cs),
(244,21,o),
(282,-11,o),
(314,-11,cs),
(352,-11,l)
);
},
{
closed = 1;
nodes = (
(324,91,o),
(319,127,o),
(319,152,cs),
(319,223,o),
(335,284,o),
(374,328,cs),
(413,372,o),
(488,385,o),
(542,365,c),
(507,211,l),
(470,170,o),
(395,87,o),
(342,71,c)
);
}
);
width = 862;
}
);
note = at;
unicode = 64;
},
{
glyphname = ampersand;
layers = (
{
hints = (
{
horizontal = 1;
place = (625,43);
type = Stem;
},
{
horizontal = 1;
place = (434,46);
type = Stem;
},
{
horizontal = 1;
place = (-18,70);
type = Stem;
},
{
place = (392,76);
type = Stem;
},
{
place = (135,81);
type = Stem;
},
{
place = (38,87);
type = Stem;
}
);
layerId = m01;
shapes = (
{
closed = 1;
nodes = (
(135,459,o),
(155,424,o),
(219,357,c),
(85,274,o),
(38,232,o),
(38,158,cs),
(38,53,o),
(132,-18,o),
(223,-18,cs),
(316,-18,o),
(383,19,o),
(442,105,c),
(503,49,o),
(570,-1,o),
(622,-26,c),
(666,-25,o),
(743,-11,o),
(773,12,c),
(781,49,l),
(663,40,o),
(614,66,o),
(488,182,c),
(521,231,o),
(614,453,o),
(719,462,cs),
(731,463,l),
(739,477,o),
(741,490,o),
(740,504,c),
(716,496,o),
(649,480,o),
(602,480,cs),
(554,480,o),
(528,480,o),
(501,485,c),
(493,478,o),
(488,460,o),
(488,450,c),
(570,434,l),
(538,360,o),
(489,287,o),
(446,218,c),
(316,364,l),
(370,391,o),
(468,463,o),
(468,548,cs),
(468,615,o),
(408,668,o),
(320,668,cs),
(241,668,o),
(135,598,o),
(135,501,cs)
);
},
{
closed = 1;
nodes = (
(367,625,o),
(392,563,o),
(392,525,cs),
(392,470,o),
(343,424,o),
(292,396,c),
(251,443,o),
(216,485,o),
(216,533,cs),
(216,582,o),
(253,625,o),
(305,625,cs)
);
},
{
closed = 1;
nodes = (
(399,140,l),
(359,78,o),
(320,52,o),
(260,52,cs),
(197,52,o),
(125,112,o),
(125,185,cs),
(125,252,o),
(186,292,o),
(241,325,c)
);
}
);
width = 794;
}
);
note = ampersand;
unicode = 38;
},
{
glyphname = section;
layers = (
{
hints = (
{
horizontal = 1;
place = (671,-20);
target = down;
type = TopGhost;
},
{
horizontal = 1;
place = (629,58);
type = Stem;
},
{
horizontal = 1;
place = (-113,61);
type = Stem;
},
{
place = (325,72);
type = Stem;
},
{
place = (246,89);
type = Stem;
},
{
place = (40,65);
type = Stem;
}
);
layerId = m01;
shapes = (
{
closed = 1;
nodes = (
(274,629,o),
(293,609,o),
(305,546,c),
(312,543,o),
(320,541,o),
(327,541,cs),
(335,541,o),
(343,543,o),
(351,546,c),
(366,671,l),
(350,675,o),
(289,687,o),
(280,687,cs),
(175,687,o),
(103,641,o),
(112,570,c),
(49,525,o),
(11,448,o),
(66,347,cs),
(165,167,ls),
(182,135,o),
(246,43,o),
(246,1,cs),
(246,-29,o),
(215,-52,o),
(180,-52,cs),
(147,-52,o),
(114,-32,o),
(92,38,c),
(89,41,o),
(85,42,o),
(80,42,cs),
(68,42,o),
(54,35,o),
(55,28,cs),
(67,-86,l),
(79,-91,o),
(133,-113,o),
(178,-113,cs),
(261,-113,o),
(355,-40,o),
(332,12,c),
(371,44,o),
(425,126,o),
(381,206,cs),
(236,466,ls),
(197,536,o),
(191,561,o),
(191,580,cs),
(191,619,o),
(218,629,o),
(241,629,cs)
);
},
{
closed = 1;
nodes = (
(122,411,ls),
(97,456,o),
(101,490,o),
(120,518,c),
(303,182,ls),
(328,136,o),
(332,84,o),
(313,60,c)
);
}
);
width = 410;
}
);
note = section;
unicode = 167;
},
{
glyphname = bar;
layers = (
{
hints = (
{
horizontal = 1;
place = (-339,1099);
type = Stem;
},
{
place = (145,70);
type = Stem;
}
);
layerId = m01;
shapes = (
{
closed = 1;
nodes = (
(210,759,o),
(195,760,o),
(180,760,cs),
(165,760,o),
(151,759,o),
(141,755,c),
(144,720,o),
(145,466,o),
(145,211,cs),
(145,-44,o),
(144,-298,o),
(141,-334,c),
(151,-338,o),
(165,-339,o),
(180,-339,cs),
(195,-339,o),
(210,-338,o),
(219,-334,c),
(216,-298,o),
(215,-44,o),
(215,211,cs),
(215,466,o),
(216,720,o),
(219,755,c)
);
}
);
width = 360;
}
);
note = bar;
unicode = 124;
},
{
glyphname = cent;
layers = (
{
hints = (
{
horizontal = 1;
place = (471,48);
type = Stem;
},
{
horizontal = 1;
place = (86,69);
type = Stem;
},
{
horizontal = 1;
place = (-8,21);
target = up;
type = BottomGhost;
},
{
place = (281,52);
type = Stem;
},
{
place = (270,43);
type = Stem;
},
{
place = (239,43);
type = Stem;
},
{
place = (230,46);
type = Stem;
},
{
place = (60,85);
type = Stem;
}
);
layerId = m01;
shapes = (
{
closed = 1;
nodes = (
(436,174,o),
(427,200,o),
(419,203,c),
(384,165,o),
(342,155,o),
(269,155,cs),
(207,155,o),
(145,214,o),
(145,317,cs),
(145,414,o),
(199,471,o),
(272,471,cs),
(325,471,o),
(378,442,o),
(394,385,c),
(397,384,o),
(402,383,o),
(407,383,cs),
(412,383,o),
(418,384,o),
(421,385,c),
(436,503,l),
(424,503,o),
(398,507,o),
(381,510,cs),
(361,514,o),
(311,521,o),
(284,521,cs),
(180,521,o),
(60,447,o),
(60,293,cs),
(60,166,o),
(142,84,o),
(249,84,cs),
(291,84,o),
(383,104,o),
(435,167,c)
);
},
{
closed = 1;
nodes = (
(233,-7,o),
(258,-3,o),
(272,7,c),
(269,66,o),
(320,555,o),
(333,617,c),
(319,616,o),
(292,608,o),
(281,604,c),
(280,542,o),
(228,50,o),
(219,-8,c)
);
}
);
width = 456;
}
);
note = cent;
unicode = 162;
},
{
glyphname = dollar;
layers = (
{
hints = (
{
horizontal = 1;
place = (599,51);
type = Stem;
},
{
horizontal = 1;
place = (0,54);
type = Stem;
},
{
place = (412,86);
type = Stem;
},
{
place = (284,50);
type = Stem;
},
{
place = (274,47);
type = Stem;
},
{
place = (272,44);
type = Stem;
},
{
place = (109,78);
type = Stem;
}
);
layerId = m01;
shapes = (
{
closed = 1;
nodes = (
(374,600,o),
(420,578,o),
(428,485,c),
(430,484,o),
(439,482,o),
(446,482,cs),
(452,482,o),
(461,483,o),
(465,485,c),
(491,625,l),
(468,632,o),
(357,651,o),
(319,651,cs),
(204,651,o),
(109,582,o),
(109,483,cs),
(109,405,o),
(167,356,o),
(260,300,cs),
(360,241,o),
(412,204,o),
(412,147,cs),
(412,81,o),
(338,53,o),
(287,53,cs),
(208,53,o),
(151,80,o),
(137,198,c),
(133,199,o),
(127,200,o),
(122,200,cs),
(112,200,o),
(103,197,o),
(99,194,c),
(94,43,l),
(135,18,o),
(224,0,o),
(264,0,cs),
(374,0,o),
(498,66,o),
(498,193,cs),
(498,259,o),
(465,297,o),
(336,368,cs),
(239,421,o),
(187,450,o),
(187,520,cs),
(187,571,o),
(246,600,o),
(314,600,cs)
);
},
{
closed = 1;
nodes = (
(278,-101,o),
(303,-93,o),
(318,-87,c),
(311,-23,o),
(321,682,o),
(347,748,c),
(333,747,o),
(295,737,o),
(284,733,c),
(276,671,o),
(268,-44,o),
(264,-102,c)
);
}
);
width = 572;
}
);
note = dollar;
unicode = 36;
},
{
glyphname = plus;
layers = (
{
hints = (
{
horizontal = 1;
place = (208,61);
type = Stem;
},
{
horizontal = 1;
place = (-6,21);
target = up;
type = BottomGhost;
},
{
place = (256,61);
type = Stem;
}
);
layerId = m01;
shapes = (
{
closed = 1;
nodes = (
(519,225,o),
(526,254,o),
(526,275,c),
(456,269,o),
(134,266,o),
(66,270,c),
(57,249,o),
(51,219,o),
(51,199,c),
(120,207,o),
(438,210,o),
(507,208,c)
);
},
{
closed = 1;
nodes = (
(272,-5,o),
(309,1,o),
(323,10,c),
(315,81,o),
(316,416,o),
(321,485,c),
(302,484,o),
(270,477,o),
(249,464,c),
(258,395,o),
(257,64,o),
(255,-6,c)
);
}
);
width = 572;
}
);
note = plus;
unicode = 43;
},
{
glyphname = minus;
layers = (
{
hints = (
{
horizontal = 1;
place = (203,71);
type = Stem;
},
{
place = (51,475);
type = Stem;
}
);
layerId = m01;
shapes = (
{
closed = 1;
nodes = (
(519,225,o),
(526,254,o),
(526,275,c),
(456,269,o),
(134,266,o),
(66,270,c),
(57,249,o),
(51,219,o),
(51,199,c),
(120,207,o),
(438,210,o),
(507,208,c)
);
}
);
width = 572;
}
);
note = minus;
unicode = 8722;
},
{
glyphname = equal;
layers = (
{
hints = (
{
horizontal = 1;
place = (292,71);
type = Stem;
},
{
horizontal = 1;
place = (118,71);
type = Stem;
},
{
place = (51,475);
type = Stem;
}
);
layerId = m01;
shapes = (
{
closed = 1;
nodes = (
(519,140,o),
(526,169,o),
(526,190,c),
(456,184,o),
(134,181,o),
(66,185,c),
(57,164,o),
(51,134,o),
(51,114,c),
(120,122,o),
(438,125,o),
(507,123,c)
);
},
{
closed = 1;
nodes = (
(519,314,o),
(526,343,o),
(526,364,c),
(456,358,o),
(134,355,o),
(66,359,c),
(57,338,o),
(51,308,o),
(51,288,c),
(120,296,o),
(438,299,o),
(507,297,c)
);
}
);
width = 572;
}
);
note = equal;
unicode = 61;
},
{
glyphname = greater;
layers = (
{
hints = (
{
horizontal = 1;
place = (11,468);
type = Stem;
},
{
place = (73,434);
type = Stem;
}
);
layerId = m01;
shapes = (
{
closed = 1;
nodes = (
(79,65,o),
(84,31,o),
(91,11,c),
(154,46,o),
(426,183,o),
(490,208,c),
(497,228,o),
(505,251,o),
(507,272,c),
(371,334,o),
(236,406,o),
(103,479,c),
(90,466,o),
(76,435,o),
(73,414,c),
(122,396,o),
(305,304,o),
(417,247,c),
(417,245,o),
(415,239,o),
(413,237,c),
(303,184,o),
(127,103,o),
(82,85,c)
);
}
);
width = 572;
}
);
note = greater;
unicode = 62;
},
{
glyphname = less;
layers = (
{
hints = (
{
horizontal = 1;
place = (11,468);
type = Stem;
},
{
place = (66,433);
type = Stem;
}
);
layerId = m01;
shapes = (
{
closed = 1;
nodes = (
(493,425,o),
(488,459,o),
(481,479,c),
(419,444,o),
(143,303,o),
(80,280,c),
(73,260,o),
(68,241,o),
(66,220,c),
(166,174,o),
(262,125,o),
(469,11,c),
(482,24,o),
(496,55,o),
(499,76,c),
(450,94,o),
(265,187,o),
(153,244,c),
(153,246,o),
(155,252,o),
(157,254,c),
(267,307,o),
(445,387,o),
(490,405,c)
);
}
);
width = 572;
}
);
note = less;
unicode = 60;
},
{
glyphname = plusminus;
layers = (
{
hints = (
{
horizontal = 1;
place = (298,61);
type = Stem;
},
{
horizontal = 1;
place = (17,67);
type = Stem;
},
{
place = (256,61);
type = Stem;
}
);
layerId = m01;
shapes = (
{
closed = 1;
nodes = (
(506,315,o),
(513,344,o),
(513,365,c),
(443,359,o),
(147,356,o),
(79,360,c),
(70,339,o),
(64,309,o),
(64,289,c),
(133,297,o),
(425,300,o),
(494,298,c)
);
},
{
closed = 1;
nodes = (
(272,115,o),
(309,121,o),
(323,130,c),
(315,201,o),
(316,476,o),
(321,545,c),
(302,544,o),
(270,537,o),
(249,524,c),
(258,455,o),
(257,184,o),
(255,114,c)
);
},
{
closed = 1;
nodes = (
(506,39,o),
(513,64,o),
(513,85,c),
(443,79,o),
(147,76,o),
(79,80,c),
(70,59,o),
(64,33,o),
(64,13,c),
(133,21,o),
(425,24,o),
(494,22,c)
);
}
);
width = 572;
}
);
note = plusminus;
unicode = 177;
},
{
glyphname = asciicircum;
layers = (
{
hints = (
{
horizontal = 1;
place = (252,393);
type = Stem;
},
{
place = (63,418);
type = Stem;
}
);
layerId = m01;
shapes = (
{
closed = 1;
nodes = (
(290,646,o),
(247,639,o),
(229,630,c),
(202,567,o),
(98,330,o),
(63,269,c),
(78,260,o),
(103,257,o),
(125,259,c),
(148,325,o),
(208,457,o),
(260,569,c),
(262,570,o),
(264,570,o),
(266,570,c),
(310,464,o),
(382,302,o),
(398,252,c),
(424,250,o),
(467,258,o),
(481,269,c),
(444,325,o),
(337,575,o),
(313,645,c)
);
}
);
width = 544;
}
);
note = asciicircum;
unicode = 94;
},
{
glyphname = percent;
layers = (
{
hints = (
{
horizontal = 1;
place = (679,-20);
target = down;
type = TopGhost;
},
{
horizontal = 1;
place = (622,61);
type = Stem;
},
{
horizontal = 1;
place = (346,61);
type = Stem;
},
{
horizontal = 1;
place = (263,61);
type = Stem;
},
{
horizontal = 1;
place = (-12,61);
type = Stem;
},
{
place = (633,69);
type = Stem;
},
{
place = (407,69);
type = Stem;
},
{
place = (274,69);
type = Stem;
},
{
place = (50,69);
type = Stem;
}
);
layerId = m01;
shapes = (
{
closed = 1;
nodes = (
(136,-6,o),
(179,-15,o),
(197,-13,c),
(221,53,o),
(597,600,o),
(640,656,c),
(629,665,o),
(578,680,o),
(562,679,c),
(537,622,o),
(171,84,o),
(124,3,c)
);
},
{
closed = 1;
nodes = (
(407,67,o),
(461,-12,o),
(545,-12,cs),
(587,-12,o),
(702,47,o),
(702,168,cs),
(702,246,o),
(655,324,o),
(568,324,cs),
(515,324,o),
(407,263,o),
(407,148,cs)
);
},
{
closed = 1;
nodes = (
(608,263,o),
(633,215,o),
(633,158,cs),
(633,98,o),
(605,49,o),
(558,49,cs),
(515,49,o),
(476,91,o),
(476,159,cs),
(476,220,o),
(507,263,o),
(556,263,cs)
);
},
{
closed = 1;
nodes = (
(50,425,o),
(104,346,o),
(187,346,cs),
(229,346,o),
(343,405,o),
(343,527,cs),
(343,605,o),
(296,683,o),
(210,683,cs),
(158,683,o),
(50,622,o),
(50,506,cs)
);
},
{
closed = 1;
nodes = (
(249,622,o),
(274,574,o),
(274,517,cs),
(274,456,o),
(246,407,o),
(200,407,cs),
(158,407,o),
(119,449,o),
(119,518,cs),
(119,579,o),
(150,622,o),
(198,622,cs)
);
}
);
width = 752;
}
);
note = percent;
unicode = 37;
},
